<svg width="40" height="40" viewBox="0 0 40 40" fill="none" xmlns="http://www.w3.org/2000/svg">
<rect width="40" height="40" fill="#F5B523"/>
<path d="M14 26C14 26.55 14.45 27 15 27H16V30.5C16 31.33 16.67 32 17.5 32C18.33 32 19 31.33 19 30.5V27H21V30.5C21 31.33 21.67 32 22.5 32C23.33 32 24 31.33 24 30.5V27H25C25.55 27 26 26.55 26 26V16H14V26ZM11.5 16C10.67 16 10 16.67 10 17.5V24.5C10 25.33 10.67 26 11.5 26C12.33 26 13 25.33 13 24.5V17.5C13 16.67 12.33 16 11.5 16ZM28.5 16C27.67 16 27 16.67 27 17.5V24.5C27 25.33 27.67 26 28.5 26C29.33 26 30 25.33 30 24.5V17.5C30 16.67 29.33 16 28.5 16ZM23.53 10.16L24.83 8.86C25.03 8.66 25.03 8.35 24.83 8.15C24.63 7.95 24.32 7.95 24.12 8.15L22.64 9.63C21.85 9.23 20.95 9 20 9C19.04 9 18.14 9.23 17.34 9.63L15.85 8.15C15.65 7.95 15.34 7.95 15.14 8.15C14.94 8.35 14.94 8.66 15.14 8.86L16.45 10.17C14.97 11.26 14 13.01 14 15H26C26 13.01 25.03 11.25 23.53 10.16ZM18 13H17V12H18V13ZM23 13H22V12H23V13Z" fill="white"/>
</svg>
