<svg width="40" height="40" viewBox="0 0 40 40" fill="none" xmlns="http://www.w3.org/2000/svg">
<rect width="40" height="40" fill="#F5B523"/>
<path d="M20 7C12.8211 7 7 12.8211 7 20C7 27.1789 12.8211 33 20 33C21.1989 33 22.1667 32.0322 22.1667 30.8333C22.1667 30.27 21.95 29.7644 21.6033 29.3744C21.2711 28.9989 21.0544 28.4933 21.0544 27.9444C21.0544 26.7456 22.0222 25.7778 23.2211 25.7778H25.7778C29.7644 25.7778 33 22.5422 33 18.5556C33 12.1711 27.1789 7 20 7ZM12.0556 20C10.8567 20 9.88889 19.0322 9.88889 17.8333C9.88889 16.6344 10.8567 15.6667 12.0556 15.6667C13.2544 15.6667 14.2222 16.6344 14.2222 17.8333C14.2222 19.0322 13.2544 20 12.0556 20ZM16.3889 14.2222C15.19 14.2222 14.2222 13.2544 14.2222 12.0556C14.2222 10.8567 15.19 9.88889 16.3889 9.88889C17.5878 9.88889 18.5556 10.8567 18.5556 12.0556C18.5556 13.2544 17.5878 14.2222 16.3889 14.2222ZM23.6111 14.2222C22.4122 14.2222 21.4444 13.2544 21.4444 12.0556C21.4444 10.8567 22.4122 9.88889 23.6111 9.88889C24.81 9.88889 25.7778 10.8567 25.7778 12.0556C25.7778 13.2544 24.81 14.2222 23.6111 14.2222ZM27.9444 20C26.7456 20 25.7778 19.0322 25.7778 17.8333C25.7778 16.6344 26.7456 15.6667 27.9444 15.6667C29.1433 15.6667 30.1111 16.6344 30.1111 17.8333C30.1111 19.0322 29.1433 20 27.9444 20Z" fill="white"/>
</svg>
