<svg width="40" height="40" viewBox="0 0 40 40" fill="none" xmlns="http://www.w3.org/2000/svg">
<rect width="40" height="40" fill="#F5B523"/>
<path d="M27.8 7C26.63 7 25.2 8.3 25.2 9.6H14.8C14.8 8.3 13.37 7 12.2 7H7V18.7C7 20 8.3 21.3 9.6 21.3H12.46C12.98 23.9 14.67 26.11 18.7 26.5V29.204C14.8 29.802 14.8 33 14.8 33H25.2C25.2 33 25.2 29.802 21.3 29.204V26.5C25.33 26.11 27.02 23.9 27.54 21.3H30.4C31.7 21.3 33 20 33 18.7V7H27.8ZM12.2 18.7H9.6V9.6H12.2V18.7ZM30.4 18.7H27.8V9.6H30.4V18.7Z" fill="white"/>
</svg>
