<svg width="40" height="40" viewBox="0 0 40 40" fill="none" xmlns="http://www.w3.org/2000/svg">
<rect width="40" height="40" fill="#5A60F3"/>
<path fill-rule="evenodd" clip-rule="evenodd" d="M15.1506 20.4889C16.5947 16.5466 18.1952 12.1774 24.3462 12.0016C32.8003 11.8843 33 18.2323 33 20.3093C33 24.463 30.2308 28.6169 26.7693 28.6169H11.8847C9.47837 28.6169 8.67779 28.0702 7.4112 26.5714C5.99207 25.866 5.61351 22.97 6.4111 19.7796C7.27651 16.318 11.8111 13.895 15.4111 16.6642C14.7029 17.2543 14.193 18.7292 13.6236 20.3759C12.6477 23.1985 11.4972 26.526 8.87461 26.7682C12.7623 27.0087 13.8976 23.9095 15.1506 20.4889Z" fill="white"/>
</svg>
