<svg width="40" height="40" viewBox="0 0 40 40" fill="none" xmlns="http://www.w3.org/2000/svg">
<rect width="40" height="40" fill="white"/>
<rect width="40" height="40" fill="#5A60F3"/>
<path fill-rule="evenodd" clip-rule="evenodd" d="M16.8874 18.3738C9.74646 15.7882 11.7606 6 19.9992 6H20C27.1797 6 33 11.9534 33 19.2972C33 22.7105 31.7427 25.8234 29.676 28.1778C29.8435 24.359 28.034 21.1254 23.4789 20.2207C21.0357 19.7354 19.4377 19.2972 16.8874 18.3738ZM21.831 18.0045C23.7523 18.0045 25.3099 16.4334 25.3099 14.4955C25.3099 12.5575 23.7523 10.9865 21.831 10.9865C19.9097 10.9865 18.3521 12.5575 18.3521 14.4955C18.3521 16.4334 19.9097 18.0045 21.831 18.0045Z" fill="white"/>
<path d="M7 19.2972C7 25.2681 10.8474 30.3198 16.1447 32C17.9431 27.5829 17.193 24.1571 13.0423 20.036C9.61107 16.6293 9.24795 14.2547 10.14 10.6309C8.1829 12.9583 7 15.9865 7 19.2972Z" fill="white"/>
</svg>
