<svg width="40" height="40" viewBox="0 0 40 40" fill="none" xmlns="http://www.w3.org/2000/svg">
<rect width="40" height="40" fill="#5A60F3"/>
<path d="M29.1802 21.17C29.2265 20.795 29.2574 20.405 29.2574 20C29.2574 19.595 29.2265 19.205 29.1648 18.83L31.7723 16.85C32.0037 16.67 32.0654 16.34 31.9266 16.085L29.4579 11.93C29.3036 11.66 28.9796 11.57 28.7019 11.66L25.6316 12.86C24.9835 12.38 24.3047 11.99 23.5487 11.69L23.0858 8.51C23.0395 8.21 22.7772 8 22.4686 8H17.5314C17.2228 8 16.9759 8.21 16.9296 8.51L16.4668 11.69C15.7108 11.99 15.0165 12.395 14.3839 12.86L11.3135 11.66C11.0358 11.555 10.7118 11.66 10.5575 11.93L8.08886 16.085C7.93457 16.355 7.99629 16.67 8.24315 16.85L10.8506 18.83C10.7889 19.205 10.7426 19.61 10.7426 20C10.7426 20.39 10.7735 20.795 10.8352 21.17L8.22772 23.15C7.99629 23.33 7.93457 23.66 8.07343 23.915L10.5421 28.07C10.6964 28.34 11.0204 28.43 11.2981 28.34L14.3684 27.14C15.0165 27.62 15.6953 28.01 16.4513 28.31L16.9142 31.49C16.9759 31.79 17.2228 32 17.5314 32H22.4686C22.7772 32 23.0395 31.79 23.0704 31.49L23.5332 28.31C24.2892 28.01 24.9835 27.605 25.6161 27.14L28.6865 28.34C28.9642 28.445 29.2882 28.34 29.4425 28.07L31.9111 23.915C32.0654 23.645 32.0037 23.33 31.7568 23.15L29.1802 21.17ZM20 24.5C17.4542 24.5 15.3713 22.475 15.3713 20C15.3713 17.525 17.4542 15.5 20 15.5C22.5458 15.5 24.6287 17.525 24.6287 20C24.6287 22.475 22.5458 24.5 20 24.5Z" fill="white"/>
</svg>
