<svg width="40" height="40" viewBox="0 0 40 40" fill="none" xmlns="http://www.w3.org/2000/svg">
<rect width="40" height="40" fill="#5A60F3"/>
<path d="M20.8823 33.7534C20.8904 33.7528 20.8973 33.7594 20.8973 33.7677C20.8973 33.7757 20.9038 33.7822 20.9116 33.7821C26.0704 33.7145 30.5263 30.6636 32.7067 26.2383C32.8746 25.8977 33.2735 25.7408 33.6128 25.8991C33.9467 26.0549 34.0972 26.4577 33.9335 26.7938C31.5191 31.7495 26.5164 35.1538 20.7365 35.1538C20.6201 35.1538 20.504 35.1525 20.3883 35.1497C20.2814 35.1525 20.1742 35.1538 20.0667 35.1538C17.33 35.1538 14.7976 34.2588 12.7339 32.7392C8.68135 30.0527 6 25.3852 6 20.0769C6 11.7502 12.5978 5 20.7365 5C26.4436 5 31.393 8.31914 33.841 13.1736C34.0111 13.5107 33.8614 13.9194 33.5241 14.0768C33.188 14.2336 32.7928 14.0815 32.622 13.7465C30.387 9.36316 25.9034 6.37063 20.7365 6.37063C13.3377 6.37063 7.33969 12.5071 7.33969 20.0769C7.33969 20.3408 7.34697 20.6029 7.36136 20.8631C7.3688 20.9977 7.56376 20.9916 7.57836 20.8576C8.27789 14.4349 13.6023 9.44084 20.0667 9.44084C24.2499 9.44084 27.9557 11.5321 30.2398 14.7485C30.481 15.0881 30.3434 15.5606 29.9701 15.7348C29.6673 15.876 29.3109 15.7692 29.1137 15.4951C27.0699 12.6546 23.7787 10.8115 20.0667 10.8115C16.7324 10.8115 13.7375 12.2987 11.6813 14.6601C11.5846 14.7712 11.4988 14.8932 11.4241 15.0209C10.1346 17.2242 9.58207 18.7099 9.35013 20.3569C9.32255 20.5526 9.5669 20.5954 9.62308 20.4061C9.84319 19.6647 10.0725 19.0647 10.3998 18.4308C10.6418 17.9371 10.9228 17.467 11.2388 17.0246C11.2596 16.993 11.2808 16.9611 11.3022 16.9289C11.3041 16.926 11.3068 16.9237 11.31 16.9222C11.3128 16.9209 11.3153 16.9188 11.3172 16.9162C13.0869 14.5075 15.9033 12.9497 19.0754 12.9497C20.4432 12.9497 21.6985 13.1889 22.8198 13.6248C24.3821 14.1114 25.6984 15.1758 26.531 16.5746C26.7259 16.9021 26.5755 17.3183 26.2345 17.4774C25.9018 17.6326 25.5123 17.4837 25.3142 17.1693C24.3795 15.6861 22.7505 14.7041 20.8973 14.7041C17.9969 14.7041 15.6457 17.1096 15.6457 20.0769C15.6457 23.0443 17.9969 25.4498 20.8973 25.4498C22.8122 25.4498 24.4878 24.4012 25.4053 22.8346C25.5976 22.5064 25.9956 22.3457 26.336 22.5045C26.6687 22.6596 26.8208 23.0616 26.641 23.3874C25.5101 25.4368 23.3617 26.8204 20.8973 26.8204C17.3374 26.8204 14.4367 23.9331 14.3103 20.3225C14.2951 20.0201 14.2903 19.7304 14.2958 19.4528L14.2793 19.5013C14.2793 19.2271 13.9264 19.0627 13.797 19.5561C13.4418 20.9106 13.3889 22.0363 13.5826 23.4487L13.5686 23.4406C14.4327 27.1097 17.662 29.8358 21.5136 29.8358C24.9339 29.8358 27.8634 27.686 29.0817 24.6351C29.2336 24.2548 29.6604 24.0553 30.0258 24.2258C30.3326 24.3689 30.488 24.7259 30.3642 25.0467C28.9723 28.6541 25.5343 31.2064 21.5136 31.2064C16.2604 31.2064 12.0018 26.8495 12.0018 21.475C12.0018 20.7864 12.0717 20.1146 12.2046 19.4665C12.2285 19.3499 12.0793 19.2764 12.0108 19.3727C11.3616 20.2855 11.0312 21.0669 10.7425 22.5166C10.0994 27.725 13.5022 33.7558 20.7633 33.7558L20.6889 33.7631C20.6684 33.7652 20.6479 33.7672 20.6274 33.7691C20.7126 33.7649 20.7976 33.7596 20.8823 33.7534Z" fill="white"/>
</svg>
