<svg width="40" height="40" viewBox="0 0 40 40" fill="none" xmlns="http://www.w3.org/2000/svg">
<rect width="40" height="40" fill="#F5B523"/>
<path d="M30.6364 13H9.36364C8.06364 13 7 14.05 7 15.3333V24.6667C7 25.95 8.06364 27 9.36364 27H30.6364C31.9364 27 33 25.95 33 24.6667V15.3333C33 14.05 31.9364 13 30.6364 13ZM18.8182 21.1667H15.2727V24.6667H12.9091V21.1667H9.36364V18.8333H12.9091V15.3333H15.2727V18.8333H18.8182V21.1667ZM24.1364 23.5C23.1555 23.5 22.3636 22.7183 22.3636 21.75C22.3636 20.7817 23.1555 20 24.1364 20C25.1173 20 25.9091 20.7817 25.9091 21.75C25.9091 22.7183 25.1173 23.5 24.1364 23.5ZM28.8636 20C27.8827 20 27.0909 19.2183 27.0909 18.25C27.0909 17.2817 27.8827 16.5 28.8636 16.5C29.8445 16.5 30.6364 17.2817 30.6364 18.25C30.6364 19.2183 29.8445 20 28.8636 20Z" fill="white"/>
</svg>
