<svg width="40" height="40" viewBox="0 0 40 40" fill="none" xmlns="http://www.w3.org/2000/svg">
<rect width="40" height="40" fill="#5A60F3"/>
<path d="M17.5 23H22.5L21.5 35H18.5L17.5 23Z" fill="white"/>
<path d="M23.5 23L25 20C25 20 23 20.5 20 20.5C17 20.5 15 20 15 20L16.5 23H23.5Z" fill="white"/>
<path d="M23.5981 10.2868C26.9816 15.8015 23.4687 18.6691 21.1576 19C23.2431 17.3235 22.6552 15.1397 22.1006 14.2574C21.8787 15.0846 21.435 15.7463 20.7139 15.5809C19.4382 15.2882 22.1006 13.5956 19.8819 11.3897C19.9568 12.6684 19.7155 13.3199 18.5507 14.2574C17.9714 14.7236 16.6649 17.0147 18.5507 19C13.8915 17.5662 14.9934 13.2403 15.4446 12.4926C16.1102 11.3897 17.0531 9.51471 16.0547 8.30147C16.7758 8.30147 17.2565 8.72426 17.4413 9.01838C17.127 7.93382 17.3415 5.41176 20.7139 4C19.66 6.64706 21.6782 7.15751 23.5981 10.2868Z" fill="white"/>
</svg>
