<svg width="40" height="40" viewBox="0 0 40 40" fill="none" xmlns="http://www.w3.org/2000/svg">
<rect width="40" height="40" fill="#5A60F3"/>
<path d="M22.2909 21.3761V22.3943C23.8182 21.8852 29.4182 21.8852 28.4 25.4488L31.4545 26.467C33.8982 19.9506 26.0242 20.0185 22.2909 21.3761Z" fill="white"/>
<path d="M21.2727 9.66701C22.9697 9.66701 23.8182 8.81853 23.8182 7.12156C23.8182 8.81853 24.6667 9.66701 26.3636 9.66701C24.6667 9.66701 23.8182 10.5155 23.8182 12.2125C23.8182 10.5155 22.9697 9.66701 21.2727 9.66701Z" fill="white"/>
<path d="M28.4 17.8125C30.097 17.8125 30.9455 16.964 30.9455 15.267C30.9455 16.964 31.7939 17.8125 33.4909 17.8125C31.7939 17.8125 30.9455 18.6609 30.9455 20.3579C30.9455 18.6609 30.097 17.8125 28.4 17.8125Z" fill="white"/>
<path d="M24.3273 29.0125C26.0242 29.0125 26.8727 28.164 26.8727 26.467C26.8727 28.164 27.7212 29.0125 29.4182 29.0125C27.7212 29.0125 26.8727 29.8609 26.8727 31.5579C26.8727 29.8609 26.0242 29.0125 24.3273 29.0125Z" fill="white"/>
<path d="M8.03636 11.7034C9.73333 11.7034 10.5818 10.8549 10.5818 9.15792C10.5818 10.8549 11.4303 11.7034 13.1273 11.7034C11.4303 11.7034 10.5818 12.5519 10.5818 14.2488C10.5818 12.5519 9.73333 11.7034 8.03636 11.7034Z" fill="white"/>
<path d="M6 17.8125C7.69697 17.8125 8.54545 16.964 8.54545 15.267C8.54545 16.964 9.39394 17.8125 11.0909 17.8125C9.39394 17.8125 8.54545 18.6609 8.54545 20.3579C8.54545 18.6609 7.69697 17.8125 6 17.8125Z" fill="white"/>
<path d="M15.1636 9.1579C21.2727 8.34336 20.5343 14.9873 19.2364 16.2852C18.2182 17.3034 19.2364 17.8125 19.7455 17.8125L19.2364 18.3216C18.0016 17.9777 17.8087 17.104 18.2182 16.2852C19.7455 13.2306 16.6909 11.1943 14.1455 12.2124L15.1636 9.1579Z" fill="white"/>
<path fill-rule="evenodd" clip-rule="evenodd" d="M20.7636 19.8488L21.2727 20.3579C21.6121 19.17 22.5891 17.3034 23.3091 17.3034C24.3273 17.3034 25.6232 18.32 26.8727 17.3034C27.9962 16.3893 27.8909 14.7579 27.8909 13.7397C27.8909 12.7216 28.4 11.1943 29.9273 10.6852C31.273 10.2366 33.1284 11.8499 34 12.7216L31.9636 7.63063C27.8909 6.10337 25.5993 7.37258 26.3636 11.1943C26.6078 12.4149 26.8727 15.267 25.8545 16.2852C25.2882 16.8515 24.3273 15.7761 22.8 16.2852C21.5542 16.7005 20.7636 19.3397 20.7636 19.8488Z" fill="white"/>
<path fill-rule="evenodd" clip-rule="evenodd" d="M22.5547 28.0071C22.7877 28.0004 22.9741 27.9347 23.1042 27.8046C23.8994 27.0094 22.2877 24.1083 19.5044 21.3249C16.721 18.5416 13.82 16.9299 13.0247 17.7251C12.8946 17.8552 12.8289 18.0416 12.8223 18.2747C12.7981 18.3069 12.7775 18.343 12.7616 18.383L7.64314 31.179C7.41374 31.7525 7.54819 32.4076 7.98496 32.8443C8.42173 33.2811 9.07677 33.4156 9.65028 33.1862L22.4463 28.0677C22.4863 28.0518 22.5224 28.0312 22.5547 28.0071ZM21.1063 27.6027C19.8525 27.0096 18.2192 25.7995 16.6245 24.2048C15.0298 22.6101 13.8198 20.9768 13.2266 19.723L8.53621 31.2926C8.42027 31.5786 8.48672 31.9062 8.70492 32.1244C8.92313 32.3426 9.25072 32.409 9.5367 32.2931L21.1063 27.6027ZM22.3842 27.0846C21.9866 27.4823 19.5502 26.0506 17.1645 23.6648C14.7787 21.2791 13.347 18.8427 13.7447 18.4451C14.1423 18.0475 16.6686 19.3892 19.0544 21.7749C21.4401 24.1607 22.7819 26.687 22.3842 27.0846Z" fill="white"/>
</svg>
