<svg width="40" height="40" viewBox="0 0 40 40" fill="none" xmlns="http://www.w3.org/2000/svg">
<rect width="40" height="40" fill="#F5B523"/>
<path d="M19.8598 22.8224C21.3196 22.8224 22.503 21.6574 22.503 20.2204C22.503 18.7833 21.3196 17.6184 19.8598 17.6184C18.4001 17.6184 17.2167 18.7833 17.2167 20.2204C17.2167 21.6574 18.4001 22.8224 19.8598 22.8224Z" fill="white"/>
<path fill-rule="evenodd" clip-rule="evenodd" d="M12.4738 32.0183C10.8908 31.0004 10.6103 28.3436 11.4603 25.0322C8.13739 23.9493 5.99756 22.2527 6 20.3481C6.00249 18.4044 8.23544 16.6831 11.6783 15.6127C10.8563 12.1394 11.2014 9.36908 12.8643 8.3782C14.5979 7.34519 17.3576 8.48804 20.1487 11.0782C23.0679 8.51097 25.9182 7.419 27.6385 8.52525C29.2544 9.56433 29.513 12.3111 28.5975 15.7187C31.8874 16.8023 34.0024 18.4903 34 20.3838C33.9975 22.314 31.7955 24.0249 28.3934 25.0968C29.2283 28.59 28.8872 31.3789 27.2175 32.3738C25.4631 33.4192 22.6577 32.2362 19.8324 29.5798C16.9593 32.0648 14.1683 33.108 12.4738 32.0183ZM25.8787 22.0702C26.1635 22.7615 26.4084 23.4371 26.6128 24.0897C25.8913 24.2632 25.1218 24.4099 24.3128 24.5252C24.5541 24.181 24.7917 23.8281 25.0248 23.4669C25.3251 23.0017 25.6098 22.5356 25.8787 22.0702ZM23.1185 26.1217C24.5001 25.9908 25.8041 25.7736 26.9969 25.4842C27.1147 25.9833 27.2057 26.4637 27.2697 26.9213C27.444 28.1668 27.4082 29.1712 27.2243 29.9015C27.0424 30.624 26.7486 30.9697 26.4751 31.1326C26.2016 31.2956 25.7573 31.3897 25.0337 31.2068C24.3024 31.0219 23.3996 30.5767 22.3838 29.8327C21.8983 29.477 21.4005 29.0631 20.8979 28.5953C21.6469 27.8586 22.3931 27.03 23.1185 26.1217ZM23.8073 22.684C23.3411 23.4062 22.8584 24.091 22.3659 24.7347C21.5993 24.7914 20.8068 24.8209 19.9943 24.8198C19.158 24.8187 18.3429 24.7855 17.5556 24.7234C17.0939 24.0734 16.6431 23.384 16.2094 22.6591C15.7257 21.8503 15.2911 21.0437 14.9062 20.2496C15.3215 19.4606 15.788 18.6603 16.3049 17.8596C16.7253 17.2083 17.1592 16.5874 17.6015 15.9997C18.3783 15.9414 19.1817 15.9111 20.0057 15.9121C20.8674 15.9132 21.7065 15.9485 22.5161 16.0143C22.9813 16.6685 23.4356 17.3627 23.8724 18.0929C24.3402 18.875 24.762 19.655 25.1373 20.4237C24.7395 21.1707 24.2959 21.9271 23.8073 22.684ZM19.9924 26.2654C19.5595 26.2648 19.1312 26.256 18.7083 26.2392C19.0942 26.7127 19.4838 27.1581 19.8736 27.5732C20.291 27.1631 20.7096 26.7206 21.1255 26.2478C20.7518 26.2599 20.3739 26.2658 19.9924 26.2654ZM14.9659 23.4001C15.1928 23.7794 15.4247 24.1502 15.6608 24.5119C14.815 24.3886 14.0126 24.2312 13.2633 24.0447C13.4972 23.348 13.7801 22.6242 14.1113 21.8831C14.3783 22.3878 14.6633 22.8942 14.9659 23.4001ZM16.7699 26.1042C15.3715 25.9635 14.0541 25.7346 12.8527 25.4322C12.7534 25.8232 12.6717 26.2022 12.6079 26.5672C12.3912 27.806 12.3926 28.8111 12.5514 29.5472C12.7086 30.2755 12.9904 30.631 13.2582 30.8031C13.5259 30.9753 13.9667 31.0845 14.6961 30.9263C15.4333 30.7664 16.3508 30.3522 17.3915 29.6432C17.8534 29.3285 18.3277 28.9638 18.8082 28.5525C18.1174 27.8159 17.4329 26.9961 16.7699 26.1042ZM10.6602 23.1938C11.0381 23.3536 11.4422 23.5045 11.8701 23.645C12.2356 22.5461 12.7121 21.395 13.294 20.223C12.7922 19.1224 12.3798 18.0425 12.0601 17.0081C11.5642 17.1638 11.0988 17.3332 10.6675 17.5143C9.50604 18.0019 8.65959 18.5463 8.12498 19.0776C7.59601 19.6032 7.44871 20.032 7.4483 20.3499C7.44789 20.6678 7.5941 21.097 8.12172 21.624C8.65496 22.1566 9.50001 22.7032 10.6602 23.1938ZM14.1659 18.591C13.8916 17.9184 13.6554 17.2609 13.4575 16.6254C14.1524 16.4607 14.8912 16.3208 15.6663 16.2097C15.4707 16.493 15.2776 16.7821 15.0874 17.0767C14.7619 17.581 14.4545 18.0866 14.1659 18.591ZM20.0076 14.4666C19.6079 14.4661 19.2122 14.4726 18.821 14.486C19.2524 13.9863 19.6873 13.519 20.1212 13.0866C20.5353 13.5228 20.9493 13.9933 21.3594 14.4955C20.9145 14.4769 20.4636 14.4672 20.0076 14.4666ZM25.1159 17.3519C24.8871 16.9695 24.6533 16.5957 24.4152 16.2312C25.2497 16.3553 26.0414 16.5126 26.7809 16.6983C26.5452 17.3787 26.2633 18.0836 25.9362 18.8043C25.6791 18.321 25.4056 17.8362 25.1159 17.3519ZM23.3024 14.6351C24.697 14.7787 26.01 15.0101 27.2066 15.3147C27.3302 14.8515 27.4295 14.4043 27.5044 13.9764C27.7211 12.7375 27.7197 11.7325 27.5609 10.9964C27.4037 10.2681 27.1219 9.91261 26.8541 9.74043C26.5864 9.56825 26.1456 9.45904 25.4161 9.61725C24.679 9.77714 23.7615 10.1913 22.7208 10.9004C22.2188 11.2424 21.7022 11.6434 21.179 12.0991C21.8986 12.8579 22.6122 13.7074 23.3024 14.6351ZM26.7526 20.452C27.3283 19.3066 27.8036 18.18 28.1736 17.1013C28.5854 17.2378 28.9748 17.3838 29.3398 17.5381C30.5 18.0287 31.345 18.5753 31.8783 19.1079C32.4059 19.6349 32.5521 20.0641 32.5517 20.382C32.5513 20.6999 32.404 21.1287 31.875 21.6543C31.3404 22.1856 30.494 22.73 29.3325 23.2177C28.9212 23.3904 28.4789 23.5524 28.0087 23.7021C27.6834 22.6562 27.2635 21.5644 26.7526 20.452ZM13.076 15.2301C14.2374 14.9523 15.5028 14.7427 16.8415 14.614C17.5748 13.6807 18.3308 12.8287 19.0909 12.0706C18.6199 11.638 18.1535 11.253 17.698 10.9193C16.6822 10.1753 15.7794 9.7301 15.0481 9.54521C14.3245 9.36227 13.8802 9.45641 13.6067 9.61937C13.3333 9.78233 13.0395 10.128 12.8575 10.8505C12.6736 11.5808 12.6379 12.5852 12.8121 13.8307C12.8745 14.2768 12.9626 14.7445 13.076 15.2301Z" fill="white"/>
</svg>
