<svg width="40" height="40" viewBox="0 0 40 40" fill="none" xmlns="http://www.w3.org/2000/svg">
<rect width="40" height="40" fill="#F5B523"/>
<path d="M24.7273 19.2857C26.6891 19.2857 28.2609 17.6586 28.2609 15.6429C28.2609 13.6271 26.6891 12 24.7273 12C22.7655 12 21.1818 13.6271 21.1818 15.6429C21.1818 17.6586 22.7655 19.2857 24.7273 19.2857ZM15.2727 19.2857C17.2345 19.2857 18.8064 17.6586 18.8064 15.6429C18.8064 13.6271 17.2345 12 15.2727 12C13.3109 12 11.7273 13.6271 11.7273 15.6429C11.7273 17.6586 13.3109 19.2857 15.2727 19.2857ZM15.2727 21.7143C12.5191 21.7143 7 23.135 7 25.9643V29H23.5455V25.9643C23.5455 23.135 18.0264 21.7143 15.2727 21.7143ZM24.7273 21.7143C24.3845 21.7143 23.9945 21.7386 23.5809 21.775C24.9518 22.795 25.9091 24.1671 25.9091 25.9643V29H33V25.9643C33 23.135 27.4809 21.7143 24.7273 21.7143Z" fill="white"/>
</svg>
