<svg width="98" height="101" viewBox="0 0 98 101" fill="none" xmlns="http://www.w3.org/2000/svg">
<circle r="7.5" transform="matrix(1 0 0 -1 18.0005 44.9999)" stroke="#F5B523" stroke-width="5"/>
<circle r="2.5" transform="matrix(1 0 0 -1 91.0005 57.9999)" stroke="#F5B523" stroke-width="5"/>
<circle r="2.5" transform="matrix(1 0 0 -1 5.00049 79.9999)" stroke="#F5B523" stroke-width="5"/>
<circle r="12.5" transform="matrix(1 0 0 -1 54.0005 85.9999)" stroke="#F5B523" stroke-width="5"/>
<circle r="22.5" transform="matrix(1 0 0 -1 64.0005 24.9999)" stroke="#F5B523" stroke-width="5"/>
<circle r="2.5" transform="matrix(1 0 0 -1 10.0005 13.9999)" stroke="#F5B523" stroke-width="5"/>
<circle r="2.5" transform="matrix(1 0 0 -1 93.0005 93.9999)" stroke="#F5B523" stroke-width="5"/>
<path d="M16.0005 52.4999L5.00049 78.9999" stroke="#F5B523" stroke-width="3"/>
<path d="M90.5004 58.4998L65.0005 82.7296" stroke="#F5B523" stroke-width="3"/>
<path d="M68.5018 46.9998L59.0007 73.9999" stroke="#F5B523" stroke-width="3"/>
<path d="M22.5005 51.4999L46.0005 76.4999" stroke="#F5B523" stroke-width="3"/>
<path d="M23.9996 40.4997L42.499 30.9998" stroke="#F5B523" stroke-width="3"/>
</svg>
