<svg width="36" height="37" viewBox="0 0 36 37" fill="none" xmlns="http://www.w3.org/2000/svg">
<path d="M1.98617 0.330551C0.888652 0.330551 0 1.2192 0 2.31672V34.3444C0 35.4416 0.888511 36.3305 1.98617 36.3305H19.2288V22.3924H14.5362V16.9577H19.2288V12.9504C19.2288 8.30065 22.0695 5.76962 26.2175 5.76962C28.2044 5.76962 29.9106 5.91731 30.4081 5.98352V10.842H27.5315C25.2758 10.842 24.8381 11.9143 24.8381 13.4873V16.9577H30.2204L29.5176 22.3924H24.8381V36.3305H34.0138C35.1109 36.3305 36 35.4417 36 34.3444V2.31672C36 1.2192 35.111 0.330551 34.0138 0.330551H1.98617V0.330551Z" fill="#FEC156"/>
</svg>
