<svg width="36" height="36" viewBox="0 0 36 36" fill="none" xmlns="http://www.w3.org/2000/svg">
<path d="M5.3125 0H30.875C33.3125 0 34.9375 0.958333 35.75 2.875C35.9167 3.4375 36 4.16667 36 5.0625V30.9375C36 32.9271 35.4375 34.2812 34.3125 35C33.625 35.6667 32.5417 36 31.0625 36H5C2.4375 36 0.8125 34.875 0.125 32.625L0 30.6875V5.125C0 2.55208 1.0625 0.90625 3.1875 0.1875C3.67708 0.0625 4.38542 0 5.3125 0ZM7.0625 18.25C7.0625 21.2708 8.25 23.9583 10.625 26.3125C12.1354 27.5521 13.4896 28.3229 14.6875 28.625H14.8125C15.1458 28.625 15.3125 28.4583 15.3125 28.125L15.25 26.0625L14 26.1875H13.8125C12.6146 26.1875 11.7396 25.4583 11.1875 24C11.0625 23.7812 10.6667 23.3854 10 22.8125V22.6875C10 22.6042 10.125 22.5417 10.375 22.5C10.9896 22.5 11.5938 22.8958 12.1875 23.6875C12.7292 24.4792 13.375 24.875 14.125 24.875C15.0417 24.875 15.5 24.5417 15.5 23.875L16 23.125C14.9688 23.125 13.7812 22.6667 12.4375 21.75C11.4792 20.6458 11 19.3958 11 18V17.75C11 16.6875 11.375 15.6875 12.125 14.75V14.6875L12 13.9375V13.1875C12.0521 12.4271 12.1771 11.9896 12.375 11.875H12.5625C13.1667 11.875 14.0833 12.25 15.3125 13C15.9583 12.8333 16.8542 12.7083 18 12.625C18.8958 12.6667 19.8125 12.7917 20.75 13C21.9062 12.25 22.8021 11.875 23.4375 11.875H23.625C23.8438 11.875 23.9896 12.5 24.0625 13.75L23.875 14.8125C24.625 15.5521 25 16.6146 25 18C25 20.3958 23.8958 21.9792 21.6875 22.75L20 23.0625C20.5 23.5521 20.75 24.2812 20.75 25.25V25.75L20.6875 28.1875C20.7708 28.4792 20.9375 28.625 21.1875 28.625H21.25C23.5938 27.9271 25.5104 26.5521 27 24.5C28.2917 22.4792 28.9375 20.4167 28.9375 18.3125C28.9375 14.2812 27.0625 11.0729 23.3125 8.6875C21.4375 7.77083 19.6875 7.3125 18.0625 7.3125C14.2917 7.3125 11.2083 9 8.8125 12.375C7.64583 14.3021 7.0625 16.2604 7.0625 18.25ZM10.9375 22.875V22.9375L11.0625 23.0625H11.1875V22.875H10.9375ZM11.375 23.25V23.375L11.5625 23.5625L11.6875 23.4375L11.5 23.25H11.375ZM11.8125 23.8125V24L12 24.1875L12.125 24.0625V24L11.9375 23.8125H11.8125ZM12.3125 24.4375C12.3125 24.6875 12.4167 24.8125 12.625 24.8125L12.6875 24.75V24.5L12.375 24.4375H12.3125ZM13.125 24.875L13.0625 25.125L13.125 25.1875H13.375L13.5 25.0625L13.3125 24.875H13.125ZM14.75 25.125L15 25.25L15.1875 25.1875V25.0625L15.0625 24.9375H14.9375L14.75 25.125ZM14.0625 25L13.9375 25.1875L14.125 25.375L14.375 25.1875C14.375 25.0938 14.2708 25.0312 14.0625 25Z" fill="#FEC156"/>
</svg>
