<svg width="40" height="40" viewBox="0 0 40 40" fill="none" xmlns="http://www.w3.org/2000/svg">
<rect width="40" height="40" fill="#F5B523"/>
<path fill-rule="evenodd" clip-rule="evenodd" d="M19.9988 7C12.821 7 7 12.8203 7 20.0012C7 25.744 10.7245 30.617 15.8904 32.336C16.5408 32.4549 16.7778 32.0535 16.7778 31.7095C16.7778 31.4007 16.7667 30.5835 16.7603 29.4981C13.1443 30.2842 12.3813 27.7559 12.3813 27.7559C11.79 26.254 10.9376 25.8542 10.9376 25.8542C9.75729 25.0473 11.027 25.0641 11.027 25.0641C12.3318 25.1559 13.0182 26.4032 13.0182 26.4032C14.1777 28.3904 16.0612 27.8166 16.8018 27.4838C16.9199 26.6435 17.2559 26.0704 17.627 25.7456C14.7404 25.4176 11.7054 24.3019 11.7054 19.3205C11.7054 17.9015 12.2121 16.7411 13.0437 15.8321C12.9096 15.5033 12.4635 14.1817 13.1714 12.3917C13.1714 12.3917 14.2623 12.0421 16.7459 13.7245C17.7826 13.4364 18.8951 13.2919 20.0004 13.2871C21.1049 13.2919 22.2166 13.4364 23.2549 13.7245C25.7369 12.0421 26.8262 12.3917 26.8262 12.3917C27.5357 14.1817 27.0896 15.5033 26.9563 15.8321C27.7895 16.7411 28.2922 17.9015 28.2922 19.3205C28.2922 24.3147 25.2524 25.4136 22.3571 25.7353C22.8231 26.1367 23.2389 26.93 23.2389 28.143C23.2389 29.8812 23.223 31.2834 23.223 31.7095C23.223 32.0567 23.4576 32.4613 24.1168 32.3344C29.2786 30.6122 33 25.7424 33 20.0012C33 12.8203 27.1789 7 19.9988 7Z" fill="white"/>
</svg>
