<svg width="98" height="86" viewBox="0 0 98 86" fill="none" xmlns="http://www.w3.org/2000/svg">
<path fill-rule="evenodd" clip-rule="evenodd" d="M91.3792 39H83V19H53V39L33 39V69H53V79.7818L46.9455 85.8363L8.06921 46.9601L8.05457 46.9455C-2.68485 36.206 -2.68486 18.794 8.05457 8.05457C18.794 -2.68486 36.206 -2.68485 46.9455 8.05457L46.9455 8.05458L46.9455 8.05457C57.6849 -2.68485 75.097 -2.68486 85.8364 8.05457C94.2047 16.4229 96.0523 28.8427 91.3792 39Z" fill="#F5B523"/>
<path fill-rule="evenodd" clip-rule="evenodd" d="M78 24H58V44H38V64H58V84H78V64H98V44H78V24Z" fill="#F5B523"/>
</svg>
