<svg width="36" height="36" viewBox="0 0 36 36" fill="none" xmlns="http://www.w3.org/2000/svg">
<path fill-rule="evenodd" clip-rule="evenodd" d="M2.52761 0C1.13192 0 0.000488281 1.13143 0.000488281 2.52712V33.4729C0.000488281 34.8686 1.13192 36 2.52761 36H33.4734C34.8691 36 36.0005 34.8686 36.0005 33.4729V2.52712C36.0005 1.13143 34.8691 0 33.4734 0H2.52761ZM5.14258 12.5874C5.14258 8.48271 8.48058 5.14286 12.5853 5.14286H23.4141C27.5188 5.14286 30.8569 8.48271 30.8569 12.5874V23.3518C30.8569 27.4565 27.5188 30.7945 23.4141 30.7945H12.5853C8.48058 30.7945 5.14258 27.4565 5.14258 23.3518V12.5874ZM23.4141 7.34807H12.5853C9.66391 7.34807 7.34775 9.66607 7.34775 12.5874V23.3518C7.34775 26.2732 9.66391 28.5893 12.5853 28.5893H23.4141C26.3355 28.5893 28.6535 26.2732 28.6535 23.3518V12.5874C28.6535 9.66607 26.3355 7.34807 23.4141 7.34807ZM23.3588 11.0952C23.3588 10.2434 24.049 9.55324 24.9008 9.55324C25.7527 9.55324 26.4428 10.2434 26.4428 11.0952C26.4428 11.9471 25.7527 12.6372 24.9008 12.6372C24.049 12.6372 23.3588 11.9471 23.3588 11.0952ZM11.3952 17.9687C11.3952 14.334 14.365 11.3642 17.9997 11.3642C21.6345 11.3642 24.6061 14.334 24.6061 17.9687C24.6061 21.6034 21.6345 24.5732 17.9997 24.5732C14.365 24.5732 11.3952 21.6034 11.3952 17.9687ZM22.4009 17.9687C22.4009 15.5255 20.4429 13.5694 17.9997 13.5694C15.5566 13.5694 13.6004 15.5255 13.6004 17.9687C13.6004 20.4119 15.5566 22.368 17.9997 22.368C20.4429 22.368 22.4009 20.4119 22.4009 17.9687Z" fill="#FEC156"/>
</svg>
