<svg width="36" height="37" viewBox="0 0 36 37" fill="none" xmlns="http://www.w3.org/2000/svg">
<path d="M2.66219 0.661102C1.19288 0.661102 0 1.81272 0 3.23684V34.0854C0 35.51 1.19288 36.6611 2.66219 36.6611H33.3378C34.8071 36.6611 36 35.51 36 34.0854V3.23684C36 1.81272 34.8071 0.661102 33.3378 0.661102H2.66219ZM8.22857 6.70454C10.0887 6.70454 11.2285 7.91536 11.2638 9.51077C11.2638 11.071 10.0844 12.317 8.18825 12.317H8.15806C6.3333 12.317 5.15302 11.071 5.15302 9.51077C5.15302 7.91536 6.36862 6.70454 8.22861 6.70454H8.22857ZM24.2622 14.1611C27.8396 14.1611 30.5143 16.4833 30.5143 21.4774V30.7981H25.079V22.0987C25.079 19.913 24.2936 18.4206 22.326 18.4206C20.8239 18.4206 19.9259 19.4341 19.5328 20.405C19.3892 20.7524 19.3613 21.232 19.3613 21.7179V30.7981H13.916C13.916 30.7981 13.9873 16.0676 13.916 14.5419H19.3613V16.837C20.0841 15.7292 21.379 14.1611 24.2622 14.1611V14.1611ZM19.3613 16.837C19.3486 16.8563 19.3333 16.8782 19.321 16.8972H19.3613V16.837ZM5.47562 14.5419H10.9109V30.7981H5.47562V14.5419Z" fill="#FEC156"/>
</svg>
