<svg width="40" height="40" viewBox="0 0 40 40" fill="none" xmlns="http://www.w3.org/2000/svg">
<rect width="40" height="40" fill="#F5B523"/>
<path fill-rule="evenodd" clip-rule="evenodd" d="M8.25869 22.7982C7.90775 21.6283 7.73262 20.348 7.73262 18.9669C7.73262 18.1309 7.81769 17.3319 7.97966 16.5739C7.37632 16.0021 7 15.1932 7 14.2963C7 12.5637 8.4046 11.1591 10.1373 11.1591C10.4205 11.1591 10.6949 11.1966 10.9559 11.267C13.158 9.18296 16.3024 8 19.7962 8C23.3449 8 26.5332 9.22048 28.7396 11.366C29.0883 11.2323 29.4669 11.1591 29.8626 11.1591C31.5953 11.1591 32.9999 12.5637 32.9999 14.2963C32.9999 15.356 32.4745 16.293 31.67 16.861C31.7946 17.5329 31.8597 18.2357 31.8597 18.9669C31.8597 20.4009 31.6623 21.7259 31.3114 22.9312C31.6623 23.918 31.8597 24.9159 31.8597 25.876C31.8597 29.6045 26.464 32.4122 19.7962 32.4122C13.1283 32.4122 7.73262 29.6045 7.73262 25.876C7.73262 24.8306 7.90775 23.7942 8.25869 22.7982ZM25.1129 20.7901C25.1129 21.3542 25.5703 21.8115 26.1344 21.8115C26.6985 21.8115 27.1558 21.3542 27.1558 20.7901C27.1558 20.226 26.6985 19.7687 26.1344 19.7687C25.5703 19.7687 25.1129 20.226 25.1129 20.7901ZM13.7311 21.8115C13.167 21.8115 12.7097 21.3542 12.7097 20.7901C12.7097 20.226 13.167 19.7687 13.7311 19.7687C14.2952 19.7687 14.7526 20.226 14.7526 20.7901C14.7526 21.3542 14.2952 21.8115 13.7311 21.8115ZM10.266 26.2198C10.2056 26.445 10.4787 26.7139 10.8759 26.8203C11.2731 26.9268 11.6441 26.8305 11.7044 26.6053C11.7648 26.3801 11.4917 26.1112 11.0945 26.0048C10.6972 25.8983 10.3263 25.9946 10.266 26.2198ZM13.8614 27.1834C13.801 27.4086 14.0741 27.6774 14.4713 27.7839C14.8685 27.8903 15.2395 27.794 15.2998 27.5688C15.3602 27.3436 15.0871 27.0748 14.6899 26.9683C14.2926 26.8619 13.9217 26.9582 13.8614 27.1834ZM12.3168 28.6343C11.9196 28.5279 11.6465 28.259 11.7069 28.0338C11.7672 27.8086 12.1382 27.7123 12.5354 27.8188C12.9326 27.9252 13.2057 28.194 13.1453 28.4192C13.085 28.6444 12.7141 28.7407 12.3168 28.6343ZM29.0219 26.8203C29.4191 26.7139 29.6922 26.445 29.6318 26.2198C29.5715 25.9946 29.2006 25.8983 28.8034 26.0048C28.4061 26.1112 28.1331 26.3801 28.1934 26.6053C28.2537 26.8305 28.6247 26.9268 29.0219 26.8203ZM25.427 27.7839C25.8242 27.6774 26.0973 27.4086 26.037 27.1834C25.9766 26.9582 25.6057 26.8619 25.2085 26.9683C24.8113 27.0748 24.5382 27.3436 24.5985 27.5688C24.6589 27.794 25.0298 27.8903 25.427 27.7839ZM28.1915 28.0338C28.2518 28.259 27.9787 28.5279 27.5815 28.6343C27.1843 28.7407 26.8134 28.6444 26.753 28.4192C26.6927 28.194 26.9658 27.9252 27.363 27.8188C27.7602 27.7123 28.1311 27.8086 28.1915 28.0338ZM17.3101 25.1376C17.3101 25.7755 18.7873 26.7554 20.0534 26.7554C21.3195 26.7554 22.7966 25.7755 22.7966 25.1376C22.7966 24.4997 21.3195 24.1519 20.0534 24.1519C18.7873 24.1519 17.3101 24.4997 17.3101 25.1376Z" fill="white"/>
</svg>
