<svg width="34" height="34" viewBox="0 0 34 34" fill="none" xmlns="http://www.w3.org/2000/svg">
<path d="M17.0002 33.855C26.3889 33.855 34 26.2763 34 16.9275C34 7.57871 26.3889 0 17.0002 0C7.61153 0 0.000488281 7.57871 0.000488281 16.9275C0.000488281 26.2763 7.61153 33.855 17.0002 33.855Z" fill="#E2E3E4"/>
<path d="M13.4345 29.0267L19.0727 21.3134L15.4146 14.2018L22.6489 10.7434L18.1306 3.27436L33.5129 20.9488C34.3529 17.5285 34.1009 13.9326 32.792 10.6616C31.4831 7.39068 29.1824 4.60758 26.2103 2.69986C23.2382 0.79214 19.7426 -0.145233 16.2104 0.0182656C12.6781 0.181765 9.28496 1.438 6.50342 3.61203C3.72188 5.78607 1.69041 8.7697 0.691871 12.1474C-0.306664 15.5252 -0.222552 19.1289 0.932496 22.4568C2.08754 25.7847 4.25603 28.6712 7.136 30.7142C10.016 32.7572 13.4641 33.8551 17.0001 33.855H17.3023L13.4345 29.0267Z" fill="white"/>
<path d="M22.6455 10.7434L18.0454 2.93454L12.1016 18.1134L22.6455 10.7434Z" fill="#050708"/>
<path d="M16.8438 14.7718L22.6526 21.9895L12.0837 18.1382L16.8438 14.7718Z" fill="#303130"/>
<path d="M22.6528 21.9895L13.4348 29.0267L16.2397 19.6532L22.6528 21.9895Z" fill="#050708"/>
</svg>
