<svg width="100" height="100" viewBox="0 0 100 100" fill="none" xmlns="http://www.w3.org/2000/svg">
<path d="M11.5 16.2C11.5 13.2797 11.5012 11.1827 11.64 9.53871C11.7772 7.91308 12.0407 6.86741 12.488 6.0226C13.2853 4.51676 14.5168 3.28529 16.0226 2.48799C16.8674 2.04069 17.9131 1.77716 19.5387 1.63998C21.1828 1.50124 23.2797 1.5 26.2 1.5H60.2897C62.8913 1.5 63.9392 1.51029 64.907 1.7507C65.7292 1.95493 66.5162 2.28093 67.242 2.7179C68.0964 3.23225 68.8446 3.96596 70.6842 5.80553L84.1945 19.3158C86.034 21.1554 86.7678 21.9036 87.2821 22.758C87.7191 23.4838 88.0451 24.2708 88.2493 25.093L89.7051 24.7314L88.2493 25.093C88.4897 26.0608 88.5 27.1087 88.5 29.7103V83.8C88.5 86.7203 88.4988 88.8172 88.36 90.4613C88.2228 92.0869 87.9593 93.1326 87.512 93.9774C86.7147 95.4832 85.4832 96.7147 83.9774 97.512C83.1326 97.9593 82.0869 98.2228 80.4613 98.36C78.8172 98.4988 76.7203 98.5 73.8 98.5H26.2C23.2797 98.5 21.1828 98.4988 19.5387 98.36C17.9131 98.2228 16.8674 97.9593 16.0226 97.512L15.3207 98.8377L16.0226 97.512C14.5168 96.7147 13.2853 95.4832 12.488 93.9774C12.0407 93.1326 11.7772 92.0869 11.64 90.4613C11.5012 88.8172 11.5 86.7203 11.5 83.8V16.2Z" fill="white" stroke="#5960F2" stroke-width="3"/>
<path fill-rule="evenodd" clip-rule="evenodd" d="M50 32C64.3498 32 76 43.6502 76 58C76 72.3498 64.3498 84 50 84C35.6502 84 24 72.3498 24 58C24 43.6502 35.6502 32 50 32ZM57.5097 63.6832L43.539 67.2538L49.636 58.6847L57.5097 63.6832L36.077 44.3522C32.6277 47.8708 30.5 52.6895 30.5 58C30.5 68.7618 39.2382 77.5 50 77.5C51.5275 77.5 53.016 77.3245 54.4438 76.9908L43.539 67.2538L52.9445 66.0167C52.9445 66.0167 54.9877 72.417 56.3137 76.4535C63.9815 73.8275 69.5 66.5518 69.5 58C69.5 49.7558 64.3715 42.699 57.1327 39.8477L57.5097 63.6832Z" fill="#5960F2"/>
<path d="M66 2V24H88" stroke="#5960F2" stroke-width="3"/>
</svg>
