<svg width="121" height="126" viewBox="0 0 121 126" fill="none" xmlns="http://www.w3.org/2000/svg">
<path d="M84 0H42V14H84V0ZM56 91H70V49H56V91ZM112.21 44.73L122.15 34.79C119.14 31.22 115.85 27.86 112.28 24.92L102.34 34.86C91.49 26.18 77.84 21 63 21C28.21 21 0 49.21 0 84C0 118.79 28.14 147 63 147C97.86 147 126 118.79 126 84C126 69.16 120.82 55.51 112.21 44.73ZM63 133C35.91 133 14 111.09 14 84C14 56.91 35.91 35 63 35C90.09 35 112 56.91 112 84C112 111.09 90.09 133 63 133Z" fill="white" fill-opacity="0.17"/>
</svg>
