<svg width="100" height="100" viewBox="0 0 100 100" fill="none" xmlns="http://www.w3.org/2000/svg">
<path d="M11.5 16.2C11.5 13.2797 11.5012 11.1827 11.64 9.53871C11.7772 7.91308 12.0407 6.86741 12.488 6.0226C13.2853 4.51676 14.5168 3.28529 16.0226 2.48799C16.8674 2.04069 17.9131 1.77716 19.5387 1.63998C21.1828 1.50124 23.2797 1.5 26.2 1.5H60.2897C62.8913 1.5 63.9392 1.51029 64.907 1.7507C65.7292 1.95493 66.5162 2.28093 67.242 2.7179C68.0964 3.23225 68.8446 3.96596 70.6842 5.80553L84.1945 19.3158C86.034 21.1554 86.7678 21.9036 87.2821 22.758C87.7191 23.4838 88.0451 24.2708 88.2493 25.093L89.7051 24.7314L88.2493 25.093C88.4897 26.0608 88.5 27.1087 88.5 29.7103V83.8C88.5 86.7203 88.4988 88.8172 88.36 90.4613C88.2228 92.0869 87.9593 93.1326 87.512 93.9774C86.7147 95.4832 85.4832 96.7147 83.9774 97.512C83.1326 97.9593 82.0869 98.2228 80.4613 98.36C78.8172 98.4988 76.7203 98.5 73.8 98.5H26.2C23.2797 98.5 21.1828 98.4988 19.5387 98.36C17.9131 98.2228 16.8674 97.9593 16.0226 97.512L15.3207 98.8377L16.0226 97.512C14.5168 96.7147 13.2853 95.4832 12.488 93.9774C12.0407 93.1326 11.7772 92.0869 11.64 90.4613C11.5012 88.8172 11.5 86.7203 11.5 83.8V16.2Z" fill="white" stroke="#5960F2" stroke-width="3"/>
<path d="M44.9663 67.8319C44.7228 67.8319 44.5037 67.7588 44.309 67.6128C44.1629 67.418 44.0899 67.1989 44.0899 66.9555V64.6184C44.0899 62.1839 44.6985 60.2364 45.9157 58.7757C47.1816 57.2663 48.9831 55.6839 51.3202 54.0285C53.2191 52.7139 54.6311 51.5453 55.5562 50.5229C56.4813 49.5004 56.9438 48.2588 56.9438 46.7981C56.9438 45.2401 56.3596 43.9985 55.191 43.0734C54.0225 42.0996 52.4888 41.6128 50.5899 41.6128C48.5449 41.6128 46.8895 42.124 45.6236 43.1465C44.4064 44.1689 43.7978 45.4835 43.7978 47.0903V48.2588C43.7978 48.7944 43.5056 49.0622 42.9213 49.0622L34.3764 48.697C34.133 48.697 33.9139 48.624 33.7191 48.4779C33.573 48.2832 33.5 48.0641 33.5 47.8206V47.0903C33.5 44.1689 34.2303 41.5884 35.691 39.3487C37.1517 37.0603 39.1723 35.3075 41.7528 34.0903C44.382 32.8244 47.4008 32.1914 50.809 32.1914C54.1199 32.1914 57.0169 32.8 59.5 34.0172C62.0318 35.1858 63.9794 36.8412 65.3427 38.9835C66.706 41.1259 67.3876 43.609 67.3876 46.433C67.3876 48.5753 66.9981 50.4255 66.2191 51.9835C65.4888 53.4929 64.588 54.7345 63.5169 55.7083C62.4457 56.682 61.0824 57.7532 59.427 58.9217C57.6742 60.139 56.3839 61.1858 55.5562 62.0622C54.7285 62.9386 54.3146 64.0098 54.3146 65.2757V66.9555C54.3146 67.1989 54.2172 67.418 54.0225 67.6128C53.8764 67.7588 53.6817 67.8319 53.4382 67.8319H44.9663ZM48.9101 84.1914C47.2547 84.1914 45.867 83.6558 44.7472 82.5847C43.676 81.4648 43.1405 80.0772 43.1405 78.4217C43.1405 76.7663 43.676 75.403 44.7472 74.3319C45.8184 73.2607 47.206 72.7251 48.9101 72.7251C50.6142 72.7251 51.9775 73.2607 53 74.3319C54.0712 75.3543 54.6067 76.7176 54.6067 78.4217C54.6067 80.0772 54.0712 81.4648 53 82.5847C51.9288 83.6558 50.5655 84.1914 48.9101 84.1914Z" fill="#5960F2"/>
<path d="M66 2V24H88" stroke="#5960F2" stroke-width="3"/>
</svg>
