<svg width="393" height="688" viewBox="0 0 393 688" fill="none" xmlns="http://www.w3.org/2000/svg">
<g clip-path="url(#clip0)">
<path d="M21.78 267.74C21.78 265.14 27.33 264 31.05 264H363.3C367.02 264 367.78 265.14 367.78 267.74V622C367.77 623.511 367.299 624.982 366.43 626.219C365.562 627.455 364.338 628.397 362.92 628.92L204 687.12C200.185 688.315 196.095 688.315 192.28 687.12L28.9 628.93C25.6 627.75 21.78 624.64 21.78 622.04V267.74Z" fill="#F8B92A"/>
<path d="M355.89 390.68V350.02H34.24L355.89 390.68Z" fill="#BA8B20"/>
<path d="M377.07 332.51C377.07 332.51 217.3 385.32 15.71 332.51V223C201.71 271.41 377.07 223 377.07 223V332.51Z" fill="white"/>
<path d="M377.07 229.73V332.51C377.07 332.51 306.05 356 199 356C137.15 356.037 75.5514 348.143 15.71 332.51V229.73C77.71 245.86 138.52 251.24 192.05 251.24C299.12 251.24 377.05 229.73 377.05 229.73H377.07ZM392.63 209.26L372.91 214.71C372.08 214.94 295.44 235.66 192.03 235.66C131.19 235.66 73.18 228.59 19.62 214.66L0.130005 209.57V344.57L11.77 347.62C72.8946 363.588 135.814 371.654 198.99 371.62C307.31 371.62 378.99 348.35 381.99 347.36L392.68 343.83V209.26H392.63Z" fill="#F8B92A"/>
<path d="M75.44 269.91C76.5131 270.101 77.5347 270.513 78.44 271.12C80.1531 272.259 81.3742 274.001 81.86 276C82.1181 277.034 82.1522 278.112 81.96 279.16C80.1334 289.56 78.2967 299.963 76.45 310.37C76.2662 311.424 75.8457 312.422 75.22 313.29C74.6267 314.163 73.8734 314.917 73 315.51C72.0905 316.103 71.0697 316.504 70 316.69C68.8735 316.905 67.7165 316.905 66.59 316.69C58.0434 315.063 49.5134 313.287 41 311.36C39.8886 311.101 38.8344 310.64 37.89 310C36.9856 309.389 36.2051 308.612 35.59 307.71C34.9977 306.835 34.5894 305.848 34.39 304.81C34.1917 303.76 34.219 302.679 34.47 301.64C36.9367 291.373 39.4034 281.103 41.87 270.83C42.1204 269.807 42.5726 268.845 43.2 268C43.8108 267.171 44.5829 266.473 45.47 265.95C46.3725 265.433 47.3567 265.075 48.38 264.89C49.4402 264.693 50.5295 264.717 51.58 264.96C59.5067 266.747 67.46 268.397 75.44 269.91ZM69.16 280.47C63.78 279.417 58.41 278.3 53.05 277.12L47.77 301C53.33 302.233 58.8934 303.393 64.46 304.48C66.0334 296.487 67.6 288.483 69.16 280.47Z" fill="#F8B92A"/>
<path d="M130 278.29C130.215 278.557 130.316 278.899 130.28 279.24L129.35 288.17C129.334 288.34 129.284 288.506 129.201 288.655C129.118 288.805 129.006 288.936 128.87 289.04C128.732 289.155 128.572 289.239 128.4 289.287C128.228 289.335 128.047 289.346 127.87 289.32C120.13 288.493 112.397 287.537 104.67 286.45C104.44 286.45 104.31 286.45 104.29 286.67C103.943 289.11 103.61 291.557 103.29 294.01C103.277 294.055 103.276 294.103 103.285 294.149C103.294 294.196 103.314 294.239 103.344 294.276C103.373 294.313 103.41 294.343 103.453 294.363C103.496 294.382 103.543 294.392 103.59 294.39C109.51 295.23 115.44 295.99 121.38 296.67C121.55 296.681 121.716 296.728 121.867 296.81C122.017 296.891 122.148 297.003 122.25 297.14C122.358 297.281 122.435 297.442 122.478 297.614C122.521 297.786 122.529 297.965 122.5 298.14C122.18 300.95 121.87 303.77 121.5 306.58C121.468 306.919 121.302 307.232 121.04 307.45C120.903 307.566 120.743 307.65 120.57 307.696C120.397 307.743 120.216 307.751 120.04 307.72C114.04 307.053 108.013 306.283 101.96 305.41C101.915 305.394 101.867 305.389 101.82 305.396C101.772 305.402 101.727 305.42 101.688 305.447C101.649 305.475 101.617 305.511 101.595 305.553C101.572 305.595 101.56 305.642 101.56 305.69C100.84 310.743 100.123 315.793 99.4101 320.84C99.2901 321.7 98.77 322.06 97.85 321.93C94.5 321.44 91.15 320.93 87.85 320.41C86.93 320.26 86.54 319.77 86.67 318.91C89.05 304.097 91.4234 289.283 93.79 274.47C93.7945 274.291 93.8403 274.116 93.9239 273.957C94.0075 273.799 94.1266 273.662 94.2719 273.558C94.4172 273.453 94.5847 273.383 94.7613 273.354C94.938 273.325 95.1189 273.338 95.29 273.39C106.53 275.17 117.797 276.66 129.09 277.86C129.263 277.868 129.432 277.91 129.588 277.984C129.744 278.058 129.884 278.162 130 278.29Z" fill="#F8B92A"/>
<path d="M173.38 281.42C173.498 281.543 173.589 281.689 173.648 281.849C173.706 282.009 173.731 282.18 173.72 282.35C173.61 285.35 173.49 288.35 173.38 291.35C173.374 291.52 173.333 291.688 173.261 291.842C173.189 291.997 173.086 292.136 172.96 292.25C172.825 292.371 172.667 292.464 172.495 292.523C172.323 292.581 172.141 292.604 171.96 292.59C164.187 292.27 156.42 291.82 148.66 291.24C148.42 291.24 148.3 291.3 148.29 291.48C148.1 293.95 147.92 296.41 147.73 298.87C147.721 298.916 147.722 298.964 147.734 299.01C147.746 299.055 147.769 299.098 147.8 299.133C147.83 299.169 147.869 299.197 147.912 299.216C147.956 299.234 148.003 299.242 148.05 299.24C154.01 299.693 159.97 300.063 165.93 300.35C166.101 300.352 166.27 300.391 166.425 300.463C166.58 300.536 166.718 300.64 166.83 300.77C166.94 300.897 167.024 301.045 167.078 301.204C167.131 301.364 167.152 301.532 167.14 301.7C167 304.527 166.867 307.357 166.74 310.19C166.73 310.531 166.586 310.854 166.34 311.09C166.214 311.209 166.064 311.301 165.901 311.357C165.737 311.414 165.563 311.436 165.39 311.42C159.33 311.12 153.273 310.743 147.22 310.29C147.174 310.279 147.126 310.279 147.08 310.29C147.034 310.301 146.991 310.322 146.954 310.352C146.917 310.382 146.888 310.42 146.868 310.463C146.848 310.506 146.839 310.553 146.84 310.6C146.46 315.693 146.077 320.78 145.69 325.86C145.62 326.72 145.12 327.11 144.2 327.04C140.83 326.78 137.47 326.49 134.1 326.19C133.17 326.1 132.75 325.63 132.83 324.77C134.243 309.83 135.647 294.89 137.04 279.95C137.032 279.772 137.065 279.594 137.138 279.431C137.21 279.268 137.32 279.124 137.458 279.01C137.595 278.897 137.758 278.817 137.932 278.777C138.106 278.737 138.287 278.738 138.46 278.78C149.793 279.82 161.127 280.573 172.46 281.04C172.631 281.036 172.802 281.067 172.96 281.133C173.119 281.198 173.262 281.296 173.38 281.42Z" fill="#F8B92A"/>
<path d="M192.18 327.83C192.18 328.69 191.7 329.12 190.78 329.11C187.4 329.06 184.03 329 180.65 328.91C179.72 328.91 179.27 328.44 179.3 327.58C179.727 312.58 180.153 297.58 180.58 282.58C180.562 282.403 180.586 282.225 180.648 282.058C180.71 281.892 180.81 281.742 180.94 281.62C181.069 281.498 181.225 281.408 181.395 281.356C181.565 281.304 181.745 281.292 181.92 281.32C185.067 281.413 188.217 281.477 191.37 281.51C191.546 281.486 191.726 281.503 191.894 281.561C192.063 281.619 192.215 281.715 192.34 281.843C192.464 281.97 192.557 282.125 192.611 282.295C192.665 282.464 192.678 282.644 192.65 282.82C192.503 297.82 192.347 312.823 192.18 327.83Z" fill="#F8B92A"/>
<path d="M215.92 293.27C215.797 293.382 215.701 293.52 215.639 293.674C215.577 293.828 215.55 293.994 215.56 294.16C215.727 301.493 215.9 308.827 216.08 316.16C216.077 316.328 216.113 316.495 216.184 316.647C216.255 316.8 216.359 316.934 216.49 317.04C216.773 317.264 217.13 317.375 217.49 317.35C225.21 317.163 232.927 316.83 240.64 316.35C240.819 316.332 241 316.35 241.172 316.403C241.343 316.457 241.503 316.544 241.64 316.66C241.775 316.77 241.885 316.907 241.964 317.062C242.043 317.217 242.09 317.386 242.1 317.56L242.64 326.51C242.652 326.684 242.627 326.859 242.566 327.022C242.506 327.186 242.412 327.335 242.29 327.46C242.023 327.725 241.666 327.879 241.29 327.89C236.19 328.183 231.083 328.427 225.97 328.62C221.77 328.767 217.567 328.883 213.36 328.97H212.04C210.898 328.999 209.761 328.809 208.69 328.41C207.671 328.037 206.733 327.47 205.93 326.74C205.147 326.03 204.52 325.165 204.09 324.2C203.644 323.231 203.412 322.177 203.41 321.11V320V315C203.41 309.713 203.383 304.43 203.33 299.15V294.73V289.5C203.324 288.436 203.531 287.382 203.94 286.4C204.328 285.449 204.907 284.588 205.64 283.87C206.387 283.15 207.253 282.565 208.2 282.14C209.175 281.7 210.23 281.465 211.3 281.45H212.54C221.207 281.277 229.897 280.943 238.61 280.45C238.953 280.428 239.291 280.543 239.55 280.77C239.809 280.997 239.967 281.317 239.99 281.66L240.53 290.66C240.543 290.831 240.52 291.003 240.464 291.165C240.407 291.326 240.317 291.475 240.2 291.6C240.083 291.729 239.941 291.834 239.783 291.908C239.625 291.982 239.454 292.023 239.28 292.03C231.84 292.457 224.393 292.767 216.94 292.96C216.758 292.94 216.573 292.957 216.398 293.01C216.223 293.063 216.06 293.152 215.92 293.27Z" fill="#F8B92A"/>
<path d="M267.09 324.68C267.17 325.54 266.75 326.01 265.82 326.09C262.46 326.41 259.09 326.7 255.73 326.96C254.8 327.03 254.3 326.64 254.24 325.78C253.087 310.82 251.94 295.86 250.8 280.9C250.76 280.726 250.762 280.545 250.805 280.371C250.848 280.198 250.932 280.037 251.049 279.902C251.165 279.766 251.312 279.66 251.478 279.592C251.643 279.524 251.822 279.496 252 279.51C255.14 279.263 258.28 278.993 261.42 278.7C261.593 278.658 261.773 278.657 261.946 278.696C262.119 278.736 262.281 278.815 262.418 278.927C262.556 279.039 262.666 279.182 262.739 279.344C262.812 279.506 262.847 279.683 262.84 279.86C264.28 294.8 265.697 309.74 267.09 324.68Z" fill="#F8B92A"/>
<path d="M305.38 273.14C306.441 272.962 307.527 273.007 308.57 273.27C309.571 273.519 310.52 273.946 311.37 274.53C312.205 275.124 312.924 275.866 313.49 276.72C314.088 277.605 314.491 278.607 314.67 279.66C316.837 292.26 319.01 304.857 321.19 317.45C321.229 317.624 321.227 317.805 321.186 317.978C321.144 318.151 321.064 318.313 320.95 318.45C320.84 318.596 320.702 318.719 320.544 318.812C320.386 318.904 320.211 318.965 320.03 318.99C316.697 319.557 313.333 320.107 309.94 320.64C309.591 320.698 309.233 320.619 308.94 320.42C308.795 320.327 308.672 320.203 308.579 320.058C308.486 319.914 308.425 319.75 308.4 319.58C307.78 315.58 307.163 311.58 306.55 307.58C306.528 307.411 306.472 307.248 306.386 307.1C306.3 306.952 306.186 306.823 306.05 306.72C305.909 306.613 305.747 306.538 305.574 306.5C305.402 306.462 305.223 306.462 305.05 306.5C300.383 307.207 295.677 307.873 290.93 308.5C290.754 308.518 290.582 308.57 290.426 308.655C290.27 308.739 290.132 308.853 290.02 308.99C289.902 309.125 289.816 309.286 289.767 309.458C289.719 309.631 289.71 309.813 289.74 309.99L291.28 322C291.39 322.85 290.99 323.34 290.06 323.46C286.71 323.88 283.35 324.29 280 324.67C279.07 324.77 278.56 324.39 278.47 323.54C277.05 310.833 275.637 298.127 274.23 285.42C274.111 284.365 274.206 283.297 274.51 282.28C274.795 281.291 275.282 280.372 275.94 279.58C276.607 278.784 277.405 278.108 278.3 277.58C279.222 277.046 280.242 276.706 281.3 276.58C289.353 275.573 297.38 274.427 305.38 273.14ZM304.76 296.14C304.147 292.2 303.54 288.257 302.94 284.31C297.54 285.143 292.13 285.91 286.71 286.61C287.223 290.57 287.737 294.527 288.25 298.48C293.763 297.773 299.267 297 304.76 296.16V296.14Z" fill="#F8B92A"/>
<path d="M362.72 298.45C362.889 298.406 363.065 298.397 363.238 298.424C363.411 298.451 363.576 298.514 363.723 298.608C363.87 298.701 363.997 298.825 364.094 298.97C364.192 299.115 364.259 299.278 364.29 299.45C364.99 302.36 365.69 305.26 366.38 308.17C366.428 308.337 366.441 308.513 366.416 308.685C366.392 308.857 366.332 309.022 366.24 309.17C366.148 309.322 366.024 309.454 365.878 309.555C365.731 309.657 365.565 309.727 365.39 309.76C355.05 312.22 344.667 314.45 334.24 316.45C333.32 316.62 332.78 316.29 332.62 315.45C329.827 300.71 327.033 285.967 324.24 271.22C324.184 271.051 324.168 270.87 324.194 270.694C324.22 270.517 324.286 270.349 324.388 270.203C324.49 270.056 324.624 269.935 324.781 269.85C324.937 269.764 325.112 269.716 325.29 269.71C328.39 269.11 331.5 268.5 334.6 267.86C334.767 267.797 334.947 267.774 335.125 267.793C335.302 267.813 335.473 267.873 335.623 267.971C335.773 268.068 335.898 268.199 335.987 268.354C336.077 268.508 336.13 268.682 336.14 268.86L343 301.6C343.027 301.767 343.093 301.925 343.192 302.062C343.291 302.199 343.42 302.312 343.57 302.39C343.877 302.552 344.232 302.598 344.57 302.52C350.637 301.253 356.687 299.897 362.72 298.45Z" fill="#F8B92A"/>
<path d="M392.9 209.24L373 199.37L372.78 0H17.78L18.15 201L-0.109985 210L18.15 222.69V223H18.56L19.68 223.78L19.76 223H25.92C25.92 223 196.34 274.17 370.4 223.78H373V223H373.12L392.9 209.24Z" fill="#F8B92A"/>
<path d="M80.64 157.5C81.1822 157.735 81.6147 158.168 81.85 158.71C81.9699 158.988 82.0312 159.287 82.03 159.59V170.59C82.032 170.639 82.0232 170.687 82.0042 170.732C81.9852 170.777 81.9564 170.818 81.92 170.85C81.8862 170.884 81.8455 170.911 81.8007 170.928C81.7559 170.945 81.7079 170.953 81.66 170.95H79C78.9536 170.952 78.9074 170.944 78.8643 170.927C78.8213 170.909 78.7823 170.883 78.75 170.85C78.6866 170.778 78.6511 170.686 78.65 170.59V160.66H76.44V170.59C76.442 170.638 76.4342 170.686 76.417 170.73C76.3998 170.775 76.3736 170.816 76.34 170.85C76.3081 170.884 76.2692 170.91 76.226 170.928C76.1829 170.945 76.1364 170.953 76.09 170.95H73.64C73.5921 170.952 73.5444 170.944 73.4996 170.927C73.4549 170.91 73.4142 170.884 73.38 170.85C73.3451 170.816 73.3174 170.776 73.2985 170.731C73.2796 170.687 73.2699 170.639 73.27 170.59V160.66H71.1V170.59C71.1049 170.639 71.0986 170.689 71.0816 170.736C71.0646 170.782 71.0373 170.825 71.0018 170.859C70.9662 170.894 70.9233 170.92 70.8762 170.936C70.8292 170.951 70.7792 170.956 70.73 170.95H68.05C68.0004 170.958 67.9496 170.955 67.9016 170.94C67.8536 170.925 67.8098 170.899 67.7737 170.864C67.7377 170.829 67.7104 170.786 67.6942 170.738C67.6779 170.691 67.673 170.64 67.68 170.59V157.69C67.6712 157.639 67.6747 157.588 67.6902 157.539C67.7057 157.49 67.7327 157.445 67.769 157.409C67.8053 157.373 67.8498 157.346 67.8987 157.33C67.9476 157.315 67.9995 157.311 68.05 157.32H79.76C80.0626 157.319 80.3622 157.38 80.64 157.5Z" fill="white"/>
<path d="M94.23 157.32C94.5326 157.319 94.8322 157.38 95.11 157.5C95.6522 157.735 96.0847 158.168 96.32 158.71C96.4399 158.988 96.5012 159.287 96.5 159.59V170.59C96.502 170.638 96.4942 170.686 96.477 170.73C96.4598 170.775 96.4336 170.816 96.4 170.85C96.3266 170.918 96.2296 170.953 96.13 170.95H93.43C93.3821 170.952 93.3343 170.944 93.2896 170.927C93.2449 170.91 93.2042 170.884 93.17 170.85C93.1351 170.816 93.1074 170.776 93.0885 170.731C93.0695 170.687 93.0599 170.639 93.06 170.59V167.11C93.0626 167.015 93.0306 166.923 92.97 166.85C92.9367 166.815 92.8964 166.787 92.8516 166.768C92.8068 166.749 92.7586 166.739 92.71 166.74H88.87C88.8214 166.739 88.7732 166.749 88.7284 166.768C88.6837 166.787 88.6433 166.815 88.61 166.85C88.5751 166.884 88.5474 166.924 88.5285 166.969C88.5096 167.014 88.4999 167.062 88.5 167.11V170.59C88.507 170.64 88.5021 170.691 88.4859 170.738C88.4696 170.786 88.4423 170.829 88.4063 170.864C88.3702 170.899 88.3264 170.925 88.2784 170.94C88.2304 170.955 88.1796 170.958 88.13 170.95H85.45C85.4004 170.958 85.3496 170.955 85.3016 170.94C85.2536 170.925 85.2098 170.899 85.1737 170.864C85.1377 170.829 85.1104 170.786 85.0942 170.738C85.0779 170.691 85.073 170.64 85.08 170.59V159.59C85.0788 159.287 85.1401 158.988 85.26 158.71C85.3655 158.438 85.5294 158.192 85.74 157.99C85.9546 157.788 86.2013 157.622 86.47 157.5C86.7478 157.38 87.0474 157.319 87.35 157.32H94.23ZM93.06 163.79V160.37H88.5V163.79H93.06Z" fill="white"/>
<path d="M108.73 157.43C108.765 157.463 108.793 157.504 108.812 157.548C108.831 157.593 108.841 157.641 108.84 157.69V168.64C108.838 168.947 108.773 169.249 108.65 169.53C108.535 169.797 108.373 170.041 108.17 170.25C107.961 170.464 107.71 170.633 107.433 170.747C107.156 170.86 106.859 170.916 106.56 170.91H100.72C100.415 170.915 100.112 170.857 99.83 170.74C99.2825 170.513 98.8474 170.078 98.62 169.53C98.5002 169.249 98.4389 168.946 98.44 168.64V164.49C98.4335 164.44 98.4385 164.389 98.4548 164.341C98.4711 164.293 98.4981 164.25 98.5339 164.214C98.5697 164.178 98.6132 164.151 98.661 164.135C98.7089 164.119 98.7599 164.113 98.81 164.12H101.49C101.541 164.111 101.592 164.115 101.641 164.13C101.69 164.146 101.735 164.173 101.771 164.209C101.807 164.245 101.834 164.29 101.85 164.339C101.865 164.388 101.869 164.439 101.86 164.49V167.26C101.859 167.309 101.869 167.357 101.888 167.402C101.907 167.446 101.935 167.487 101.97 167.52C102.043 167.581 102.135 167.613 102.23 167.61H105.05C105.145 167.613 105.237 167.581 105.31 167.52C105.345 167.487 105.373 167.446 105.392 167.402C105.411 167.357 105.421 167.309 105.42 167.26V157.69C105.416 157.595 105.448 157.502 105.51 157.43C105.542 157.392 105.582 157.363 105.627 157.344C105.672 157.325 105.721 157.316 105.77 157.32H108.47C108.519 157.318 108.567 157.327 108.612 157.346C108.657 157.365 108.698 157.394 108.73 157.43Z" fill="white"/>
<path d="M121 157.32C121.306 157.318 121.609 157.379 121.89 157.5C122.157 157.62 122.401 157.785 122.61 157.99C122.815 158.197 122.978 158.441 123.09 158.71C123.218 158.986 123.283 159.286 123.28 159.59V168.59C123.283 168.897 123.218 169.201 123.09 169.48C122.975 169.747 122.812 169.991 122.61 170.2C122.406 170.411 122.161 170.578 121.89 170.69C121.608 170.808 121.305 170.865 121 170.86H114.13C113.831 170.864 113.534 170.808 113.257 170.695C112.979 170.583 112.727 170.416 112.516 170.204C112.304 169.993 112.137 169.741 112.025 169.463C111.912 169.186 111.856 168.889 111.86 168.59V159.59C111.855 159.288 111.913 158.988 112.03 158.71C112.142 158.439 112.309 158.194 112.52 157.99C112.731 157.788 112.974 157.622 113.24 157.5C113.521 157.38 113.824 157.319 114.13 157.32H121ZM119.84 160.62H115.27V167.62H119.84V160.62Z" fill="white"/>
<path d="M138.18 170.6C138.201 170.635 138.212 170.674 138.212 170.715C138.212 170.756 138.201 170.795 138.18 170.83C138.155 170.86 138.122 170.883 138.085 170.897C138.049 170.911 138.009 170.916 137.97 170.91H134.9C134.791 170.912 134.684 170.884 134.59 170.83C134.495 170.775 134.415 170.696 134.36 170.6L132.3 166.91C132.286 166.886 132.266 166.866 132.241 166.854C132.216 166.841 132.188 166.836 132.16 166.84H129.85C129.78 166.84 129.75 166.84 129.75 166.93V170.55C129.757 170.6 129.752 170.651 129.736 170.698C129.72 170.746 129.692 170.789 129.656 170.824C129.62 170.859 129.576 170.885 129.528 170.9C129.48 170.915 129.43 170.918 129.38 170.91H126.7C126.651 170.916 126.601 170.911 126.554 170.896C126.507 170.88 126.464 170.854 126.428 170.819C126.393 170.785 126.365 170.742 126.348 170.696C126.331 170.649 126.325 170.599 126.33 170.55V157.69C126.323 157.64 126.328 157.589 126.345 157.541C126.361 157.493 126.388 157.45 126.424 157.414C126.46 157.378 126.503 157.351 126.551 157.335C126.599 157.319 126.65 157.313 126.7 157.32H135.48C135.786 157.319 136.089 157.38 136.37 157.5C136.633 157.622 136.873 157.788 137.08 157.99C137.291 158.194 137.458 158.439 137.57 158.71C137.69 158.988 137.751 159.287 137.75 159.59V164.7C137.755 165.178 137.604 165.645 137.32 166.03C137.04 166.41 136.649 166.694 136.2 166.84H136.14C136.05 166.84 136.03 166.9 136.14 166.95L138.18 170.6ZM134.32 160.48H129.64V163.79H134.32V160.48Z" fill="white"/>
<path d="M156.5 167.61C156.547 167.609 156.594 167.619 156.637 167.638C156.68 167.657 156.719 167.685 156.75 167.72C156.784 167.754 156.81 167.795 156.827 167.84C156.844 167.884 156.852 167.932 156.85 167.98V170.55C156.852 170.598 156.844 170.646 156.827 170.69C156.81 170.735 156.784 170.776 156.75 170.81C156.718 170.844 156.679 170.87 156.636 170.888C156.593 170.905 156.546 170.913 156.5 170.91H148.11C148.06 170.918 148.01 170.915 147.962 170.9C147.914 170.885 147.87 170.859 147.834 170.824C147.798 170.789 147.77 170.746 147.754 170.698C147.738 170.651 147.733 170.6 147.74 170.55V157.69C147.731 157.639 147.735 157.588 147.75 157.539C147.766 157.49 147.793 157.445 147.829 157.409C147.865 157.373 147.91 157.346 147.959 157.33C148.008 157.315 148.059 157.311 148.11 157.32H150.79C150.84 157.313 150.891 157.319 150.939 157.335C150.987 157.351 151.03 157.378 151.066 157.414C151.102 157.45 151.129 157.493 151.145 157.541C151.162 157.589 151.167 157.64 151.16 157.69V167.26C151.157 167.308 151.165 167.356 151.182 167.401C151.199 167.446 151.226 167.486 151.26 167.52C151.337 167.581 151.432 167.612 151.53 167.61H156.5Z" fill="white"/>
<path d="M169 157.43C169.034 157.464 169.061 157.504 169.078 157.549C169.095 157.594 169.103 157.642 169.1 157.69V160.13C169.103 160.178 169.095 160.226 169.078 160.271C169.061 160.316 169.034 160.356 169 160.39C168.923 160.451 168.828 160.482 168.73 160.48H162.23C162.216 160.478 162.203 160.48 162.19 160.484C162.177 160.489 162.165 160.496 162.156 160.506C162.146 160.515 162.139 160.527 162.134 160.54C162.13 160.553 162.128 160.566 162.13 160.58V162.7C162.13 162.75 162.13 162.78 162.23 162.78H167.78C167.827 162.776 167.873 162.783 167.917 162.8C167.96 162.818 167.999 162.845 168.03 162.88C168.064 162.916 168.091 162.958 168.108 163.005C168.125 163.051 168.133 163.101 168.13 163.15V165.09C168.132 165.138 168.124 165.186 168.107 165.23C168.09 165.275 168.064 165.316 168.03 165.35C167.999 165.386 167.961 165.415 167.918 165.434C167.874 165.453 167.827 165.462 167.78 165.46H162.23C162.16 165.46 162.13 165.46 162.13 165.55V166.55V167.68C162.13 167.75 162.13 167.78 162.23 167.78H168.73C168.78 167.775 168.83 167.782 168.877 167.799C168.924 167.816 168.967 167.843 169.002 167.878C169.037 167.913 169.064 167.956 169.081 168.003C169.098 168.05 169.105 168.1 169.1 168.15V170.58C169.102 170.628 169.094 170.676 169.077 170.72C169.06 170.765 169.034 170.806 169 170.84C168.927 170.907 168.83 170.943 168.73 170.94H159.08C159.03 170.948 158.98 170.945 158.932 170.93C158.884 170.915 158.84 170.889 158.804 170.854C158.768 170.819 158.74 170.776 158.724 170.728C158.708 170.681 158.703 170.63 158.71 170.58V157.69C158.709 157.641 158.719 157.593 158.738 157.548C158.757 157.504 158.785 157.463 158.82 157.43C158.853 157.394 158.893 157.365 158.938 157.346C158.983 157.327 159.031 157.318 159.08 157.32H168.73C168.78 157.318 168.83 157.327 168.877 157.346C168.924 157.365 168.966 157.393 169 157.43Z" fill="white"/>
<path d="M181.36 157.32C181.663 157.319 181.962 157.38 182.24 157.5C182.782 157.735 183.215 158.168 183.45 158.71C183.57 158.988 183.631 159.287 183.63 159.59V170.59C183.632 170.638 183.624 170.686 183.607 170.73C183.59 170.775 183.564 170.816 183.53 170.85C183.457 170.918 183.36 170.953 183.26 170.95H180.56C180.512 170.952 180.464 170.944 180.42 170.927C180.375 170.91 180.334 170.884 180.3 170.85C180.265 170.816 180.237 170.776 180.218 170.731C180.2 170.687 180.19 170.639 180.19 170.59V167.11C180.193 167.015 180.161 166.923 180.1 166.85C180.068 166.815 180.03 166.788 179.987 166.769C179.943 166.75 179.897 166.74 179.85 166.74H176C175.903 166.743 175.81 166.782 175.741 166.851C175.672 166.92 175.633 167.013 175.63 167.11V170.59C175.637 170.64 175.632 170.691 175.616 170.738C175.6 170.786 175.572 170.829 175.536 170.864C175.5 170.899 175.456 170.925 175.408 170.94C175.36 170.955 175.31 170.958 175.26 170.95H172.58C172.531 170.956 172.481 170.951 172.434 170.936C172.387 170.92 172.344 170.894 172.308 170.859C172.273 170.825 172.245 170.782 172.228 170.736C172.211 170.689 172.205 170.639 172.21 170.59V159.59C172.209 159.287 172.27 158.988 172.39 158.71C172.496 158.438 172.659 158.192 172.87 157.99C173.085 157.788 173.331 157.622 173.6 157.5C173.878 157.38 174.177 157.319 174.48 157.32H181.36ZM180.19 163.79V160.37H175.63V163.79H180.19Z" fill="white"/>
<path d="M198 163.6C198.034 163.634 198.06 163.675 198.077 163.72C198.094 163.764 198.102 163.812 198.1 163.86V168.64C198.101 168.946 198.04 169.249 197.92 169.53C197.798 169.796 197.632 170.039 197.43 170.25C197.226 170.461 196.981 170.628 196.71 170.74C196.432 170.857 196.132 170.915 195.83 170.91H188.95C188.648 170.915 188.349 170.857 188.07 170.74C187.797 170.625 187.549 170.459 187.34 170.25C187.131 170.047 186.968 169.801 186.86 169.53C186.74 169.249 186.679 168.946 186.68 168.64V159.64C186.679 159.337 186.74 159.038 186.86 158.76C186.966 158.488 187.129 158.242 187.34 158.04C187.555 157.837 187.801 157.672 188.07 157.55C188.348 157.43 188.647 157.369 188.95 157.37H196.95C196.999 157.368 197.047 157.377 197.092 157.396C197.137 157.415 197.178 157.444 197.21 157.48C197.245 157.513 197.273 157.554 197.292 157.598C197.311 157.643 197.321 157.691 197.32 157.74V160.3C197.317 160.397 197.278 160.49 197.209 160.559C197.14 160.628 197.047 160.668 196.95 160.67H190.44C190.392 160.668 190.344 160.676 190.3 160.693C190.255 160.71 190.214 160.736 190.18 160.77C190.145 160.801 190.117 160.84 190.098 160.883C190.079 160.926 190.069 160.973 190.07 161.02V167.31C190.069 167.359 190.079 167.407 190.098 167.452C190.117 167.496 190.145 167.537 190.18 167.57C190.253 167.631 190.345 167.663 190.44 167.66H194.29C194.382 167.662 194.471 167.63 194.54 167.57C194.602 167.498 194.635 167.405 194.63 167.31V163.91C194.633 163.813 194.672 163.72 194.741 163.651C194.81 163.582 194.903 163.543 195 163.54H197.7C197.751 163.529 197.805 163.529 197.856 163.539C197.908 163.55 197.957 163.57 198 163.6Z" fill="white"/>
<path d="M212.31 157.43C212.345 157.463 212.373 157.504 212.392 157.548C212.411 157.593 212.421 157.641 212.42 157.69V168.64C212.418 168.946 212.353 169.249 212.23 169.53C212.115 169.797 211.953 170.041 211.75 170.25C211.541 170.464 211.29 170.633 211.013 170.747C210.737 170.86 210.439 170.916 210.14 170.91H203.27C202.971 170.914 202.674 170.858 202.397 170.745C202.119 170.633 201.868 170.466 201.656 170.254C201.444 170.043 201.277 169.791 201.165 169.513C201.052 169.236 200.996 168.939 201 168.64V157.69C200.992 157.64 200.995 157.59 201.01 157.542C201.025 157.494 201.051 157.45 201.086 157.414C201.121 157.378 201.164 157.35 201.212 157.334C201.26 157.318 201.31 157.313 201.36 157.32H204C204.051 157.311 204.102 157.315 204.151 157.33C204.2 157.346 204.245 157.373 204.281 157.409C204.317 157.445 204.344 157.49 204.36 157.539C204.375 157.588 204.379 157.639 204.37 157.69V167.26C204.369 167.309 204.379 167.357 204.398 167.402C204.417 167.446 204.445 167.487 204.48 167.52C204.553 167.581 204.645 167.613 204.74 167.61H208.59C208.682 167.614 208.772 167.582 208.84 167.52C208.874 167.486 208.901 167.446 208.918 167.401C208.935 167.356 208.943 167.308 208.94 167.26V157.69C208.943 157.593 208.982 157.5 209.051 157.431C209.12 157.362 209.213 157.323 209.31 157.32H212.01C212.065 157.311 212.122 157.317 212.174 157.336C212.227 157.356 212.273 157.388 212.31 157.43Z" fill="white"/>
<path d="M225.77 157.43C225.805 157.463 225.833 157.504 225.852 157.548C225.871 157.593 225.881 157.641 225.88 157.69V160.13C225.881 160.179 225.871 160.227 225.852 160.272C225.833 160.316 225.805 160.357 225.77 160.39C225.697 160.451 225.605 160.483 225.51 160.48H219C218.987 160.478 218.973 160.48 218.96 160.484C218.947 160.489 218.935 160.496 218.926 160.506C218.916 160.515 218.909 160.527 218.904 160.54C218.9 160.553 218.898 160.567 218.9 160.58V162.7C218.9 162.75 218.9 162.78 219 162.78H224.56C224.606 162.778 224.653 162.786 224.696 162.803C224.739 162.821 224.778 162.847 224.81 162.88C224.875 162.955 224.91 163.051 224.91 163.15V165.09C224.909 165.186 224.873 165.278 224.81 165.35C224.778 165.385 224.74 165.412 224.697 165.431C224.654 165.45 224.607 165.46 224.56 165.46H219C218.94 165.46 218.9 165.46 218.9 165.55V166.55V167.68C218.898 167.694 218.9 167.707 218.904 167.72C218.909 167.733 218.916 167.745 218.926 167.754C218.935 167.764 218.947 167.771 218.96 167.776C218.973 167.78 218.987 167.782 219 167.78H225.51C225.558 167.778 225.606 167.786 225.65 167.803C225.695 167.82 225.736 167.846 225.77 167.88C225.84 167.952 225.88 168.049 225.88 168.15V170.58C225.88 170.629 225.87 170.677 225.852 170.721C225.833 170.766 225.805 170.806 225.77 170.84C225.736 170.874 225.695 170.9 225.65 170.917C225.606 170.934 225.558 170.942 225.51 170.94H215.86C215.81 170.948 215.76 170.945 215.712 170.93C215.664 170.915 215.62 170.889 215.584 170.854C215.548 170.819 215.52 170.776 215.504 170.728C215.488 170.681 215.483 170.63 215.49 170.58V157.69C215.487 157.642 215.495 157.594 215.512 157.549C215.529 157.505 215.556 157.464 215.59 157.43C215.624 157.392 215.665 157.363 215.712 157.344C215.759 157.325 215.81 157.316 215.86 157.32H225.51C225.559 157.318 225.607 157.327 225.652 157.346C225.697 157.365 225.738 157.394 225.77 157.43Z" fill="white"/>
<path d="M246.62 157.32C246.669 157.318 246.717 157.327 246.762 157.346C246.807 157.365 246.848 157.394 246.88 157.43C246.915 157.463 246.943 157.504 246.962 157.548C246.981 157.593 246.991 157.641 246.99 157.69V170.55C246.99 170.599 246.98 170.647 246.962 170.691C246.943 170.736 246.915 170.776 246.88 170.81C246.846 170.844 246.805 170.87 246.76 170.887C246.716 170.904 246.668 170.912 246.62 170.91H243.92C243.872 170.912 243.824 170.904 243.78 170.887C243.735 170.87 243.694 170.844 243.66 170.81C243.625 170.776 243.597 170.736 243.578 170.691C243.56 170.647 243.55 170.599 243.55 170.55V166.06C243.551 166.014 243.543 165.968 243.526 165.925C243.509 165.881 243.483 165.842 243.451 165.81C243.418 165.777 243.379 165.751 243.336 165.734C243.292 165.717 243.246 165.709 243.2 165.71H239.35C239.302 165.708 239.254 165.716 239.21 165.733C239.165 165.75 239.124 165.776 239.09 165.81C239.056 165.842 239.03 165.881 239.012 165.924C238.995 165.967 238.988 166.014 238.99 166.06V170.55C238.995 170.599 238.989 170.649 238.972 170.696C238.955 170.742 238.927 170.785 238.892 170.819C238.856 170.854 238.813 170.88 238.766 170.896C238.719 170.911 238.669 170.916 238.62 170.91H235.94C235.89 170.918 235.84 170.915 235.792 170.9C235.744 170.885 235.7 170.859 235.664 170.824C235.628 170.789 235.6 170.746 235.584 170.698C235.568 170.651 235.563 170.6 235.57 170.55V157.69C235.561 157.64 235.565 157.588 235.58 157.539C235.596 157.49 235.623 157.445 235.659 157.409C235.695 157.373 235.74 157.346 235.789 157.33C235.838 157.315 235.889 157.311 235.94 157.32H238.62C238.67 157.314 238.721 157.319 238.769 157.335C238.817 157.351 238.86 157.378 238.896 157.414C238.932 157.45 238.959 157.493 238.975 157.541C238.992 157.589 238.997 157.64 238.99 157.69V162C238.984 162.049 238.989 162.099 239.004 162.146C239.02 162.193 239.046 162.236 239.081 162.272C239.115 162.307 239.158 162.335 239.204 162.352C239.251 162.369 239.301 162.375 239.35 162.37H243.2C243.247 162.371 243.294 162.361 243.337 162.342C243.38 162.323 243.419 162.295 243.45 162.26C243.484 162.226 243.51 162.185 243.527 162.14C243.544 162.096 243.552 162.048 243.55 162V157.65C243.549 157.601 243.559 157.553 243.578 157.508C243.597 157.464 243.625 157.423 243.66 157.39C243.693 157.354 243.733 157.325 243.778 157.306C243.823 157.287 243.871 157.278 243.92 157.28L246.62 157.32Z" fill="white"/>
<path d="M259.2 157.32C259.506 157.318 259.809 157.379 260.09 157.5C260.357 157.62 260.601 157.785 260.81 157.99C261.015 158.197 261.178 158.441 261.29 158.71C261.418 158.986 261.483 159.286 261.48 159.59V170.59C261.48 170.639 261.47 170.687 261.452 170.731C261.433 170.776 261.405 170.816 261.37 170.85C261.336 170.884 261.295 170.91 261.25 170.927C261.206 170.944 261.158 170.952 261.11 170.95H258.41C258.362 170.953 258.314 170.945 258.269 170.928C258.224 170.911 258.184 170.884 258.15 170.85C258.115 170.816 258.087 170.776 258.068 170.731C258.05 170.687 258.04 170.639 258.04 170.59V167.11C258.042 167.062 258.034 167.014 258.017 166.97C258 166.925 257.974 166.884 257.94 166.85C257.909 166.815 257.87 166.787 257.827 166.768C257.784 166.749 257.737 166.739 257.69 166.74H253.84C253.743 166.743 253.65 166.782 253.581 166.851C253.512 166.92 253.473 167.013 253.47 167.11V170.59C253.477 170.639 253.472 170.689 253.456 170.735C253.44 170.782 253.414 170.824 253.379 170.859C253.344 170.894 253.302 170.92 253.255 170.936C253.209 170.952 253.159 170.957 253.11 170.95H250.43C250.38 170.958 250.33 170.955 250.282 170.94C250.234 170.925 250.19 170.899 250.154 170.864C250.118 170.829 250.09 170.786 250.074 170.738C250.058 170.691 250.053 170.64 250.06 170.59V159.59C250.06 159.289 250.118 158.99 250.23 158.71C250.342 158.439 250.509 158.194 250.72 157.99C250.931 157.788 251.174 157.622 251.44 157.5C251.721 157.38 252.024 157.319 252.33 157.32H259.2ZM258 163.79V160.37H253.43V163.79H258Z" fill="white"/>
<path d="M268 160.72C267.966 160.752 267.94 160.791 267.922 160.834C267.905 160.877 267.898 160.924 267.9 160.97V167.26C267.897 167.308 267.905 167.356 267.922 167.401C267.939 167.446 267.966 167.486 268 167.52C268.076 167.582 268.172 167.614 268.27 167.61H274.5C274.597 167.613 274.69 167.652 274.759 167.721C274.828 167.79 274.867 167.883 274.87 167.98V170.55C274.87 170.599 274.86 170.647 274.842 170.691C274.823 170.736 274.795 170.776 274.76 170.81C274.726 170.844 274.685 170.87 274.64 170.887C274.596 170.904 274.548 170.912 274.5 170.91H266.75C266.448 170.915 266.149 170.857 265.87 170.74C265.597 170.625 265.349 170.459 265.14 170.25C264.931 170.044 264.765 169.8 264.65 169.53C264.538 169.247 264.48 168.945 264.48 168.64V159.64C264.48 159.339 264.538 159.04 264.65 158.76C264.762 158.489 264.929 158.244 265.14 158.04C265.355 157.837 265.601 157.672 265.87 157.55C266.148 157.43 266.447 157.369 266.75 157.37H274.5C274.549 157.368 274.597 157.377 274.642 157.396C274.687 157.415 274.728 157.444 274.76 157.48C274.795 157.513 274.823 157.554 274.842 157.598C274.861 157.643 274.871 157.691 274.87 157.74V160.3C274.867 160.397 274.828 160.49 274.759 160.559C274.69 160.628 274.597 160.668 274.5 160.67H268.27C268.177 160.65 268.08 160.668 268 160.72Z" fill="white"/>
<path d="M285.7 163.05C285.691 163.058 285.684 163.069 285.68 163.08C285.675 163.091 285.672 163.103 285.672 163.115C285.672 163.127 285.675 163.139 285.68 163.15C285.684 163.162 285.691 163.172 285.7 163.18L290.24 170.6C290.261 170.635 290.273 170.674 290.273 170.715C290.273 170.756 290.261 170.795 290.24 170.83C290.215 170.86 290.182 170.883 290.145 170.897C290.109 170.911 290.069 170.916 290.03 170.91H286.81C286.699 170.913 286.589 170.886 286.492 170.832C286.395 170.777 286.315 170.697 286.26 170.6L283.33 165.3C283.33 165.24 283.26 165.23 283.23 165.3L281.62 167.07C281.543 167.149 281.485 167.245 281.45 167.35C281.412 167.46 281.392 167.574 281.39 167.69V170.57C281.395 170.619 281.389 170.669 281.372 170.716C281.355 170.762 281.327 170.805 281.292 170.839C281.256 170.874 281.213 170.9 281.166 170.916C281.119 170.931 281.069 170.936 281.02 170.93H278.34C278.29 170.938 278.24 170.935 278.192 170.92C278.144 170.905 278.1 170.879 278.064 170.844C278.028 170.809 278 170.766 277.984 170.718C277.968 170.671 277.963 170.62 277.97 170.57V157.69C277.961 157.639 277.965 157.588 277.98 157.539C277.996 157.49 278.023 157.445 278.059 157.409C278.095 157.373 278.14 157.346 278.189 157.33C278.238 157.315 278.289 157.311 278.34 157.32H281C281.05 157.313 281.101 157.319 281.149 157.335C281.197 157.351 281.24 157.378 281.276 157.414C281.312 157.45 281.339 157.493 281.355 157.541C281.372 157.589 281.377 157.64 281.37 157.69V163.46L286.37 157.59C286.441 157.503 286.535 157.438 286.64 157.4C286.742 157.347 286.855 157.32 286.97 157.32H290.19C290.3 157.32 290.36 157.32 290.38 157.4C290.4 157.48 290.38 157.51 290.31 157.59L285.7 163.05Z" fill="white"/>
<path d="M296.17 170.55C296.175 170.599 296.169 170.649 296.152 170.696C296.135 170.742 296.107 170.785 296.072 170.819C296.036 170.854 295.993 170.88 295.946 170.896C295.899 170.911 295.849 170.916 295.8 170.91H293.12C293.07 170.918 293.02 170.915 292.972 170.9C292.924 170.885 292.88 170.859 292.844 170.824C292.808 170.789 292.78 170.746 292.764 170.698C292.748 170.651 292.743 170.6 292.75 170.55V157.69C292.741 157.639 292.745 157.588 292.76 157.539C292.776 157.49 292.803 157.445 292.839 157.409C292.875 157.373 292.92 157.346 292.969 157.33C293.018 157.315 293.069 157.311 293.12 157.32H295.8C295.85 157.313 295.901 157.319 295.949 157.335C295.997 157.351 296.04 157.378 296.076 157.414C296.112 157.45 296.139 157.493 296.155 157.541C296.172 157.589 296.177 157.64 296.17 157.69V170.55Z" fill="white"/>
<path d="M309.25 157.5C309.517 157.62 309.761 157.785 309.97 157.99C310.175 158.197 310.338 158.441 310.45 158.71C310.573 158.987 310.638 159.287 310.64 159.59V170.59C310.64 170.639 310.63 170.687 310.612 170.731C310.593 170.776 310.565 170.816 310.53 170.85C310.496 170.884 310.455 170.91 310.41 170.927C310.366 170.944 310.318 170.952 310.27 170.95H307.57C307.523 170.954 307.477 170.947 307.433 170.93C307.39 170.912 307.351 170.885 307.32 170.85C307.286 170.816 307.26 170.775 307.243 170.73C307.226 170.686 307.218 170.638 307.22 170.59V161C307.221 160.953 307.211 160.906 307.192 160.863C307.173 160.82 307.145 160.781 307.11 160.75C307.076 160.716 307.035 160.69 306.99 160.673C306.946 160.656 306.898 160.648 306.85 160.65H303C302.952 160.648 302.904 160.656 302.86 160.673C302.815 160.69 302.774 160.716 302.74 160.75C302.706 160.782 302.68 160.821 302.662 160.864C302.645 160.907 302.638 160.954 302.64 161V170.58C302.645 170.629 302.639 170.679 302.622 170.726C302.605 170.772 302.577 170.815 302.542 170.849C302.506 170.884 302.463 170.91 302.416 170.926C302.369 170.941 302.319 170.946 302.27 170.94H299.59C299.54 170.948 299.49 170.945 299.442 170.93C299.394 170.915 299.35 170.889 299.314 170.854C299.278 170.819 299.25 170.776 299.234 170.728C299.218 170.681 299.213 170.63 299.22 170.58V157.69C299.211 157.639 299.215 157.588 299.23 157.539C299.246 157.49 299.273 157.445 299.309 157.409C299.345 157.373 299.39 157.346 299.439 157.33C299.488 157.315 299.539 157.311 299.59 157.32H308.36C308.666 157.319 308.969 157.38 309.25 157.5Z" fill="white"/>
<path d="M325 163.6C325.035 163.634 325.063 163.674 325.082 163.719C325.1 163.763 325.11 163.812 325.11 163.86V168.64C325.108 168.947 325.043 169.249 324.92 169.53C324.805 169.797 324.643 170.041 324.44 170.25C324.236 170.461 323.991 170.628 323.72 170.74C323.438 170.857 323.135 170.915 322.83 170.91H315.96C315.661 170.913 315.364 170.856 315.087 170.743C314.81 170.63 314.558 170.463 314.345 170.252C314.133 170.041 313.965 169.789 313.851 169.513C313.737 169.236 313.679 168.939 313.68 168.64V159.64C313.679 159.337 313.74 159.038 313.86 158.76C313.972 158.489 314.139 158.244 314.35 158.04C314.561 157.838 314.804 157.672 315.07 157.55C315.351 157.43 315.654 157.369 315.96 157.37H323.96C324.009 157.368 324.057 157.377 324.102 157.396C324.147 157.415 324.188 157.444 324.22 157.48C324.255 157.513 324.283 157.554 324.302 157.598C324.321 157.643 324.331 157.691 324.33 157.74V160.3C324.327 160.397 324.288 160.49 324.219 160.559C324.15 160.628 324.057 160.668 323.96 160.67H317.45C317.402 160.668 317.354 160.676 317.31 160.693C317.265 160.71 317.224 160.736 317.19 160.77C317.155 160.801 317.127 160.84 317.108 160.883C317.089 160.926 317.079 160.973 317.08 161.02V167.31C317.079 167.359 317.089 167.407 317.108 167.452C317.127 167.496 317.155 167.537 317.19 167.57C317.263 167.631 317.355 167.663 317.45 167.66H321.3C321.392 167.664 321.482 167.632 321.55 167.57C321.584 167.536 321.611 167.496 321.628 167.451C321.645 167.406 321.653 167.358 321.65 167.31V163.91C321.648 163.862 321.656 163.814 321.673 163.77C321.69 163.725 321.716 163.684 321.75 163.65C321.822 163.58 321.919 163.54 322.02 163.54H324.72C324.768 163.53 324.818 163.531 324.866 163.541C324.914 163.551 324.96 163.571 325 163.6Z" fill="white"/>
<path d="M149.61 63.72C151.301 64.4526 152.84 65.4937 154.15 66.79C155.448 68.0941 156.49 69.6308 157.22 71.32C158 73.0728 158.399 74.9714 158.39 76.89V148.22C158.397 148.527 158.34 148.832 158.223 149.116C158.106 149.4 157.931 149.657 157.71 149.87C157.496 150.09 157.239 150.264 156.955 150.381C156.672 150.498 156.367 150.555 156.06 150.55H139C138.702 150.559 138.405 150.502 138.13 150.385C137.856 150.268 137.61 150.092 137.41 149.87C136.998 149.421 136.779 148.829 136.8 148.22V83.38H123V148.22C123.017 148.83 122.795 149.422 122.38 149.87C122.18 150.092 121.934 150.268 121.66 150.385C121.385 150.502 121.088 150.559 120.79 150.55H105.36C105.052 150.555 104.745 150.498 104.46 150.381C104.175 150.264 103.916 150.09 103.7 149.87C103.48 149.657 103.307 149.4 103.191 149.116C103.076 148.831 103.021 148.526 103.03 148.22V83.38H89.28V148.22C89.3234 148.532 89.2948 148.849 89.1963 149.148C89.0979 149.447 88.9322 149.72 88.712 149.945C88.4919 150.17 88.2231 150.341 87.9263 150.446C87.6295 150.551 87.3127 150.587 87 150.55H70C69.6835 150.595 69.3609 150.566 69.0576 150.465C68.7544 150.364 68.4788 150.193 68.2528 149.967C68.0267 149.741 67.8564 149.466 67.7552 149.162C67.6541 148.859 67.6249 148.537 67.67 148.22V64.89C67.6249 64.5735 67.6541 64.2509 67.7552 63.9476C67.8564 63.6444 68.0267 63.3688 68.2528 63.1428C68.4788 62.9167 68.7544 62.7464 69.0576 62.6453C69.3609 62.5441 69.6835 62.5149 70 62.56H144C145.931 62.5491 147.842 62.9444 149.61 63.72Z" fill="white"/>
<path d="M149.61 63.7201C151.301 64.4527 152.84 65.4937 154.15 66.7901C155.448 68.0941 156.49 69.6309 157.22 71.3201C158 73.0729 158.399 74.9715 158.39 76.8901V83.2501L136.79 83.3801H89.28L67.68 83.2501V64.8901C67.6353 64.5745 67.6644 64.2529 67.765 63.9505C67.8656 63.6481 68.035 63.3732 68.2598 63.1474C68.4847 62.9216 68.7589 62.751 69.0608 62.6491C69.3628 62.5472 69.6843 62.5167 70 62.5601H144C145.931 62.5492 147.842 62.9444 149.61 63.7201Z" fill="white"/>
<path d="M232.78 129.19C233.095 129.177 233.408 129.232 233.7 129.351C233.991 129.47 234.254 129.651 234.47 129.88C234.685 130.106 234.854 130.373 234.965 130.665C235.077 130.957 235.13 131.268 235.12 131.58V148.17C235.13 148.482 235.077 148.793 234.965 149.085C234.854 149.377 234.685 149.644 234.47 149.87C234.254 150.099 233.991 150.28 233.7 150.399C233.408 150.518 233.095 150.573 232.78 150.56H174.35C174.021 150.612 173.684 150.587 173.366 150.487C173.048 150.386 172.758 150.213 172.518 149.982C172.279 149.75 172.096 149.465 171.986 149.151C171.875 148.837 171.839 148.501 171.88 148.17V65C171.839 64.6692 171.875 64.3334 171.986 64.0189C172.096 63.7045 172.279 63.4202 172.518 63.1884C172.758 62.9566 173.048 62.7837 173.366 62.6833C173.684 62.5829 174.021 62.5578 174.35 62.61H192.29C192.619 62.5578 192.956 62.5829 193.274 62.6833C193.592 62.7837 193.882 62.9566 194.122 63.1884C194.361 63.4202 194.544 63.7045 194.654 64.0189C194.765 64.3334 194.801 64.6692 194.76 65V127C194.75 127.31 194.809 127.618 194.933 127.902C195.058 128.186 195.245 128.438 195.48 128.64C195.963 129.064 196.588 129.289 197.23 129.27L232.78 129.19Z" fill="white"/>
<path d="M194.57 150.56H174.34C174.012 150.61 173.676 150.584 173.359 150.483C173.043 150.382 172.754 150.209 172.515 149.977C172.277 149.745 172.096 149.462 171.985 149.148C171.875 148.835 171.839 148.5 171.88 148.17V65C171.839 64.6702 171.875 64.3354 171.985 64.0218C172.096 63.7083 172.277 63.4246 172.515 63.193C172.754 62.9614 173.043 62.7883 173.359 62.6871C173.676 62.5859 174.012 62.5596 174.34 62.61H192.24C192.569 62.5578 192.906 62.5829 193.224 62.6833C193.542 62.7837 193.832 62.9566 194.072 63.1884C194.311 63.4202 194.494 63.7045 194.604 64.0189C194.715 64.3334 194.751 64.6692 194.71 65V127C194.71 127.6 194.57 150.56 194.57 150.56Z" fill="white"/>
<path d="M322.6 62.5601C322.926 62.552 323.25 62.6089 323.554 62.7273C323.858 62.8458 324.135 63.0235 324.37 63.2501C324.603 63.4691 324.787 63.7344 324.911 64.0289C325.035 64.3234 325.096 64.6406 325.09 64.9601V148.41C325.097 148.728 325.036 149.044 324.912 149.337C324.788 149.63 324.603 149.894 324.37 150.11C324.137 150.34 323.861 150.52 323.556 150.641C323.252 150.761 322.927 150.819 322.6 150.81H304.43C304.103 150.819 303.778 150.761 303.474 150.641C303.169 150.52 302.893 150.34 302.66 150.11C302.427 149.894 302.242 149.63 302.118 149.337C301.994 149.044 301.933 148.728 301.94 148.41V119.29C301.951 118.987 301.898 118.684 301.787 118.402C301.675 118.12 301.506 117.864 301.29 117.65C300.829 117.223 300.218 116.996 299.59 117.02H274.09C273.445 117 272.816 117.225 272.33 117.65C272.095 117.853 271.909 118.105 271.784 118.389C271.66 118.672 271.6 118.98 271.61 119.29V148.41C271.61 150.01 270.78 150.81 269.12 150.81H251.12C249.46 150.81 248.63 150.01 248.63 148.41V65.0001C248.63 63.4001 249.46 62.6001 251.12 62.6001H269.12C270.78 62.6001 271.61 63.4001 271.61 65.0001V93.1901C271.567 93.5226 271.602 93.8607 271.712 94.1773C271.823 94.4939 272.006 94.7802 272.247 95.0134C272.488 95.2466 272.78 95.4203 273.1 95.5204C273.42 95.6205 273.759 95.6444 274.09 95.5901H299.59C299.906 95.6009 300.221 95.5451 300.514 95.4262C300.806 95.3073 301.071 95.1281 301.29 94.9001C301.723 94.4377 301.957 93.8234 301.94 93.1901V65.0001C301.934 64.6806 301.995 64.3634 302.119 64.0689C302.243 63.7744 302.427 63.5091 302.66 63.2901C302.895 63.0635 303.172 62.8858 303.476 62.7673C303.78 62.6489 304.104 62.592 304.43 62.6001L322.6 62.5601Z" fill="white"/>
<path d="M271.61 119.29V148.41C271.61 150.01 270.78 150.81 269.12 150.81H251.12C249.46 150.81 248.63 150.01 248.63 148.41V65C248.63 63.4 249.46 62.6 251.12 62.6H269.12C270.78 62.6 271.61 63.4 271.61 65V119.33V119.29Z" fill="white"/>
<path d="M322.6 62.5601C322.926 62.552 323.25 62.6089 323.554 62.7273C323.858 62.8458 324.135 63.0235 324.37 63.2501C324.603 63.4691 324.787 63.7344 324.911 64.0289C325.035 64.3234 325.096 64.6406 325.09 64.9601V148.41C325.097 148.728 325.036 149.044 324.912 149.337C324.788 149.63 324.603 149.894 324.37 150.11C324.137 150.34 323.861 150.52 323.556 150.641C323.252 150.761 322.927 150.819 322.6 150.81H304.43C304.103 150.819 303.778 150.761 303.474 150.641C303.169 150.52 302.893 150.34 302.66 150.11C302.427 149.894 302.242 149.63 302.118 149.337C301.994 149.044 301.933 148.728 301.94 148.41V65.0001C301.934 64.6806 301.995 64.3634 302.119 64.0689C302.243 63.7744 302.427 63.5091 302.66 63.2901C302.895 63.0635 303.172 62.8858 303.476 62.7673C303.78 62.6489 304.104 62.592 304.43 62.6001L322.6 62.5601Z" fill="white"/>
<path d="M83.3 487.83V498C83.3483 498.488 83.5833 498.939 83.9561 499.257C84.3289 499.576 84.8104 499.738 85.3 499.71H123.61C123.888 499.701 124.164 499.753 124.42 499.862C124.675 499.97 124.904 500.134 125.09 500.34C125.471 500.761 125.675 501.312 125.66 501.88V515.67C125.675 516.237 125.471 516.789 125.09 517.21C124.904 517.416 124.675 517.58 124.42 517.688C124.164 517.797 123.888 517.849 123.61 517.84H67.57C67.2753 517.882 66.975 517.854 66.6927 517.76C66.4104 517.666 66.1539 517.507 65.9435 517.297C65.733 517.086 65.5744 516.83 65.48 516.547C65.3857 516.265 65.3583 515.965 65.4 515.67V483C65.3753 481.239 65.7157 479.492 66.4 477.87C67.0676 476.292 68.0355 474.859 69.25 473.65C70.4698 472.426 71.9214 471.457 73.52 470.8C75.1664 470.125 76.9308 469.785 78.71 469.8H105.71C105.995 469.807 106.279 469.755 106.544 469.649C106.809 469.542 107.049 469.383 107.25 469.18C107.452 468.978 107.611 468.738 107.717 468.473C107.824 468.209 107.876 467.925 107.87 467.64V458.4C107.874 458.115 107.821 457.832 107.714 457.569C107.607 457.305 107.448 457.065 107.246 456.864C107.045 456.662 106.805 456.503 106.541 456.396C106.277 456.289 105.995 456.236 105.71 456.24H70C69.7331 456.24 69.4689 456.187 69.2229 456.083C68.977 455.979 68.7542 455.828 68.5678 455.637C68.3815 455.446 68.2352 455.219 68.1377 454.971C68.0402 454.722 67.9934 454.457 68 454.19V440.19C67.9862 439.623 68.1902 439.072 68.57 438.65C68.7491 438.447 68.9691 438.284 69.2155 438.172C69.462 438.06 69.7293 438.001 70 438H112.52C114.288 437.987 116.038 438.355 117.65 439.08C119.212 439.777 120.64 440.741 121.87 441.93C123.1 443.126 124.07 444.563 124.72 446.15C125.401 447.795 125.741 449.56 125.72 451.34V454.53C125.799 454.625 125.838 454.747 125.83 454.87V484C125.84 484.278 125.788 484.554 125.679 484.81C125.571 485.066 125.407 485.294 125.2 485.48C124.783 485.861 124.235 486.065 123.67 486.05H85.35C84.8471 486.034 84.3567 486.209 83.9767 486.539C83.5968 486.869 83.3551 487.33 83.3 487.83Z" fill="white"/>
<path d="M192 438C193.787 437.993 195.555 438.361 197.19 439.08C200.366 440.439 202.895 442.972 204.25 446.15C204.974 447.784 205.346 449.553 205.34 451.34V504.46C205.344 506.247 204.972 508.015 204.25 509.65C203.564 511.233 202.598 512.679 201.4 513.92C200.208 515.149 198.774 516.12 197.19 516.77C195.545 517.449 193.78 517.789 192 517.77H157.68C154.138 517.777 150.737 516.382 148.22 513.89C146.983 512.646 146.004 511.17 145.34 509.547C144.676 507.923 144.339 506.184 144.35 504.43V451.35C144.334 449.571 144.674 447.806 145.35 446.16C146.008 444.577 146.977 443.141 148.2 441.94C149.445 440.741 150.894 439.776 152.48 439.09C154.112 438.37 155.877 438.002 157.66 438.01H192V438ZM186 457.38H163.73V498.38H186V457.38Z" fill="white"/>
<path d="M241.53 487.83V498C241.578 498.497 241.82 498.956 242.204 499.276C242.588 499.596 243.082 499.752 243.58 499.71H281.89C282.168 499.701 282.444 499.753 282.7 499.862C282.955 499.97 283.184 500.134 283.37 500.34C283.751 500.761 283.955 501.312 283.94 501.88V515.67C283.955 516.237 283.751 516.789 283.37 517.21C283.184 517.416 282.955 517.58 282.7 517.688C282.444 517.797 282.168 517.849 281.89 517.84H225.8C225.505 517.882 225.205 517.854 224.923 517.76C224.64 517.666 224.384 517.507 224.173 517.297C223.963 517.086 223.804 516.83 223.71 516.547C223.616 516.265 223.588 515.965 223.63 515.67V483C223.61 481.24 223.95 479.494 224.63 477.87C225.298 476.292 226.266 474.859 227.48 473.65C228.7 472.426 230.151 471.457 231.75 470.8C233.397 470.126 235.161 469.786 236.94 469.8H263.94C264.226 469.805 264.509 469.753 264.774 469.647C265.04 469.54 265.28 469.381 265.483 469.18C265.685 468.978 265.845 468.738 265.953 468.474C266.061 468.209 266.114 467.926 266.11 467.64V458.4C266.116 458.115 266.063 457.833 265.955 457.569C265.846 457.306 265.685 457.068 265.48 456.87C265.28 456.665 265.04 456.503 264.775 456.395C264.51 456.287 264.226 456.234 263.94 456.24H228.14C227.869 456.247 227.599 456.198 227.347 456.098C227.096 455.997 226.867 455.847 226.675 455.655C226.483 455.463 226.333 455.234 226.232 454.982C226.131 454.731 226.083 454.461 226.09 454.19V440.19C226.076 439.623 226.28 439.072 226.66 438.65C226.847 438.446 227.077 438.285 227.332 438.178C227.588 438.071 227.863 438.02 228.14 438.03H270.67C272.438 438.019 274.187 438.387 275.8 439.11C277.359 439.807 278.784 440.771 280.01 441.96C281.24 443.156 282.21 444.592 282.86 446.18C283.541 447.825 283.881 449.59 283.86 451.37V454.56C283.939 454.655 283.978 454.777 283.97 454.9V484C283.98 484.277 283.929 484.552 283.822 484.808C283.715 485.063 283.554 485.293 283.35 485.48C282.928 485.86 282.377 486.064 281.81 486.05H243.58C243.077 486.034 242.587 486.209 242.207 486.539C241.827 486.869 241.585 487.33 241.53 487.83Z" fill="white"/>
<path d="M327.43 440.17V515.64C327.472 515.935 327.444 516.235 327.35 516.517C327.256 516.8 327.097 517.056 326.887 517.267C326.676 517.477 326.42 517.636 326.137 517.73C325.855 517.824 325.555 517.852 325.26 517.81H309.53C309.236 517.852 308.936 517.825 308.654 517.731C308.372 517.636 308.116 517.477 307.906 517.267C307.696 517.056 307.538 516.799 307.445 516.517C307.352 516.234 307.326 515.934 307.37 515.64V459.33C307.37 459.02 307.2 458.89 306.85 458.93C306.402 459.019 305.989 459.234 305.66 459.55L300.07 463.89C299.62 464.27 299.22 464.36 298.87 464.17C298.684 464.036 298.538 463.853 298.448 463.641C298.358 463.43 298.327 463.198 298.36 462.97V447C298.375 446.341 298.55 445.696 298.87 445.12C299.172 444.537 299.579 444.015 300.07 443.58L305.66 439.25C306.199 438.827 306.818 438.518 307.48 438.34C308.127 438.132 308.801 438.017 309.48 438H325.21C325.509 437.947 325.816 437.966 326.106 438.056C326.396 438.146 326.66 438.303 326.877 438.515C327.094 438.727 327.257 438.988 327.354 439.276C327.45 439.564 327.476 439.87 327.43 440.17Z" fill="white"/>
<path d="M92.52 560.62C93.4532 560.99 94.2982 561.552 95 562.27C95.6883 562.981 96.2467 563.807 96.65 564.71C97.0689 565.654 97.2803 566.677 97.27 567.71V580.12C97.2719 581.152 97.0609 582.173 96.65 583.12C96.2489 584.025 95.6903 584.851 95 585.56C94.3069 586.274 93.4725 586.836 92.55 587.21C91.6012 587.612 90.5804 587.816 89.55 587.81H63.19C63.0187 587.835 62.8439 587.82 62.6795 587.766C62.5151 587.711 62.3657 587.619 62.2432 587.497C62.1208 587.374 62.0287 587.225 61.9743 587.061C61.9199 586.896 61.9048 586.721 61.93 586.55V578.55C61.9262 578.384 61.9571 578.219 62.0209 578.066C62.0846 577.913 62.1797 577.774 62.3 577.66C62.4151 577.541 62.5535 577.446 62.7066 577.383C62.8597 577.319 63.0242 577.287 63.19 577.29H85.63C85.9582 577.299 86.2771 577.181 86.52 576.96C86.638 576.853 86.7313 576.721 86.7935 576.575C86.8556 576.428 86.8852 576.269 86.88 576.11V570.63C86.8813 570.465 86.85 570.301 86.7877 570.149C86.7255 569.996 86.6337 569.857 86.5174 569.74C86.4012 569.623 86.263 569.53 86.1107 569.466C85.9584 569.403 85.795 569.37 85.63 569.37H69.63C68.6139 569.377 67.6064 569.183 66.6658 568.799C65.7252 568.414 64.8701 567.847 64.15 567.13C63.4445 566.433 62.8838 565.604 62.5 564.69C62.0943 563.742 61.89 562.721 61.9 561.69V549.33C61.894 548.3 62.0982 547.279 62.5 546.33C62.8737 545.408 63.4357 544.573 64.15 543.88C64.8681 543.187 65.7047 542.628 66.62 542.23C67.5668 541.819 68.588 541.608 69.62 541.61H94.54C94.7096 541.587 94.8823 541.603 95.0445 541.658C95.2067 541.713 95.3541 541.804 95.4751 541.925C95.5961 542.046 95.6875 542.193 95.7422 542.356C95.7968 542.518 95.8132 542.69 95.79 542.86V551C95.7953 551.161 95.7659 551.321 95.7037 551.469C95.6416 551.618 95.5483 551.751 95.43 551.86C95.1871 552.081 94.8682 552.199 94.54 552.19H73.48C73.3192 552.185 73.1592 552.214 73.0108 552.276C72.8624 552.338 72.7291 552.432 72.62 552.55C72.3991 552.793 72.2808 553.112 72.29 553.44V558.79C72.2808 559.118 72.3991 559.437 72.62 559.68C72.7291 559.798 72.8624 559.892 73.0108 559.954C73.1592 560.016 73.3192 560.045 73.48 560.04H89.48C90.5224 560.022 91.5573 560.22 92.52 560.62Z" fill="white"/>
<path d="M141.36 542C141.479 542.115 141.573 542.254 141.637 542.407C141.7 542.56 141.732 542.724 141.73 542.89V551.21C141.733 551.372 141.702 551.532 141.638 551.68C141.574 551.829 141.48 551.961 141.36 552.07C141.117 552.291 140.798 552.409 140.47 552.4H118.36C118.315 552.393 118.269 552.397 118.226 552.411C118.183 552.426 118.144 552.45 118.112 552.482C118.08 552.514 118.056 552.553 118.041 552.596C118.027 552.639 118.023 552.685 118.03 552.73V559.92C118.03 560.1 118.14 560.18 118.36 560.18H137.24C137.402 560.177 137.562 560.208 137.71 560.272C137.859 560.336 137.991 560.43 138.1 560.55C138.321 560.793 138.439 561.112 138.43 561.44V568C138.439 568.328 138.321 568.647 138.1 568.89C137.991 569.008 137.858 569.102 137.709 569.164C137.561 569.226 137.401 569.255 137.24 569.25H118.36C118.315 569.243 118.269 569.247 118.226 569.261C118.183 569.276 118.144 569.3 118.112 569.332C118.08 569.364 118.056 569.403 118.041 569.446C118.027 569.489 118.023 569.535 118.03 569.58V576.71C118.023 576.755 118.027 576.801 118.041 576.844C118.056 576.887 118.08 576.926 118.112 576.958C118.144 576.99 118.183 577.015 118.226 577.029C118.269 577.043 118.315 577.047 118.36 577.04H140.47C140.635 577.036 140.799 577.066 140.952 577.128C141.105 577.19 141.244 577.283 141.36 577.4C141.478 577.516 141.572 577.655 141.635 577.808C141.699 577.96 141.731 578.124 141.73 578.29V586.54C141.733 586.706 141.701 586.87 141.637 587.023C141.574 587.177 141.479 587.315 141.36 587.43C141.246 587.55 141.107 587.645 140.954 587.709C140.801 587.773 140.636 587.804 140.47 587.8H107.67C107.499 587.824 107.326 587.807 107.163 587.752C107 587.697 106.852 587.604 106.73 587.482C106.609 587.36 106.518 587.211 106.464 587.048C106.41 586.884 106.395 586.71 106.42 586.54V542.86C106.417 542.695 106.448 542.531 106.51 542.379C106.572 542.226 106.664 542.087 106.78 541.97C106.897 541.854 107.036 541.762 107.189 541.7C107.341 541.638 107.505 541.607 107.67 541.61H140.47C140.637 541.61 140.803 541.645 140.956 541.712C141.109 541.779 141.247 541.877 141.36 542Z" fill="white"/>
<path d="M182.38 541.61C183.412 541.606 184.434 541.817 185.38 542.23C187.228 543.011 188.699 544.482 189.48 546.33C189.893 547.276 190.104 548.298 190.1 549.33V586.55C190.104 586.715 190.075 586.879 190.013 587.033C189.951 587.186 189.858 587.324 189.74 587.44C189.626 587.56 189.487 587.655 189.334 587.719C189.181 587.783 189.016 587.814 188.85 587.81H179.68C179.514 587.811 179.35 587.78 179.196 587.717C179.043 587.654 178.903 587.561 178.786 587.444C178.669 587.327 178.576 587.187 178.513 587.034C178.45 586.88 178.419 586.716 178.42 586.55V574.74C178.429 574.412 178.311 574.093 178.09 573.85C177.981 573.732 177.848 573.638 177.699 573.576C177.551 573.514 177.391 573.485 177.23 573.49H164.17C164.003 573.486 163.838 573.517 163.683 573.578C163.529 573.64 163.388 573.733 163.27 573.85C163.152 573.966 163.06 574.105 162.998 574.258C162.936 574.411 162.906 574.575 162.91 574.74V586.55C162.935 586.72 162.92 586.894 162.866 587.058C162.812 587.221 162.721 587.37 162.6 587.492C162.478 587.614 162.33 587.707 162.167 587.762C162.004 587.817 161.831 587.833 161.66 587.81H152.55C152.379 587.833 152.206 587.817 152.043 587.762C151.88 587.707 151.732 587.614 151.61 587.492C151.489 587.37 151.398 587.221 151.344 587.058C151.29 586.894 151.275 586.72 151.3 586.55V549.33C151.291 548.3 151.491 547.279 151.89 546.33C152.267 545.409 152.829 544.576 153.54 543.88C154.26 543.189 155.096 542.63 156.01 542.23C156.957 541.819 157.978 541.608 159.01 541.61H182.38ZM178.38 563.61V552H162.91V563.62L178.38 563.61Z" fill="white"/>
<path d="M230.07 560.62C230.989 560.994 231.821 561.556 232.51 562.27C233.198 562.981 233.757 563.807 234.16 564.71C234.584 565.653 234.795 566.677 234.78 567.71V580.12C234.787 581.153 234.576 582.175 234.16 583.12C233.762 584.035 233.203 584.872 232.51 585.59C231.821 586.304 230.989 586.866 230.07 587.24C229.12 587.639 228.1 587.844 227.07 587.84H200.73C200.559 587.864 200.386 587.847 200.223 587.792C200.06 587.737 199.912 587.644 199.79 587.522C199.669 587.4 199.578 587.251 199.524 587.088C199.47 586.924 199.455 586.75 199.48 586.58V578.58C199.479 578.415 199.51 578.251 199.572 578.099C199.635 577.946 199.726 577.807 199.843 577.69C199.959 577.573 200.097 577.48 200.249 577.416C200.402 577.353 200.565 577.32 200.73 577.32H223.17C223.498 577.329 223.817 577.211 224.06 576.99C224.178 576.883 224.271 576.751 224.334 576.605C224.396 576.458 224.425 576.299 224.42 576.14V570.66C224.421 570.495 224.39 570.331 224.328 570.179C224.266 570.026 224.174 569.887 224.057 569.77C223.941 569.653 223.803 569.56 223.651 569.496C223.498 569.433 223.335 569.4 223.17 569.4H207.17C206.141 569.407 205.12 569.206 204.17 568.81C203.248 568.424 202.409 567.864 201.7 567.16C200.995 566.463 200.434 565.634 200.05 564.72C199.648 563.772 199.447 562.75 199.46 561.72V549.33C199.451 548.3 199.651 547.28 200.05 546.33C200.424 545.408 200.986 544.573 201.7 543.88C202.42 543.189 203.256 542.63 204.17 542.23C205.117 541.819 206.138 541.608 207.17 541.61H232.05C232.22 541.587 232.392 541.603 232.554 541.658C232.717 541.713 232.864 541.804 232.985 541.925C233.106 542.046 233.198 542.193 233.252 542.356C233.307 542.518 233.323 542.69 233.3 542.86V551C233.305 551.161 233.276 551.321 233.214 551.469C233.152 551.618 233.058 551.751 232.94 551.86C232.697 552.081 232.378 552.199 232.05 552.19H211C210.839 552.183 210.679 552.212 210.53 552.274C210.381 552.337 210.248 552.431 210.14 552.55C209.919 552.793 209.801 553.112 209.81 553.44V558.79C209.801 559.118 209.919 559.437 210.14 559.68C210.248 559.799 210.381 559.893 210.53 559.956C210.679 560.018 210.839 560.047 211 560.04H227C228.052 560.021 229.097 560.218 230.07 560.62Z" fill="white"/>
<path d="M274.91 541.61C275.942 541.608 276.963 541.819 277.91 542.23C279.753 543.016 281.219 544.486 282 546.33C282.421 547.274 282.636 548.297 282.63 549.33V580.09C282.634 581.123 282.419 582.145 282 583.09C281.602 584.005 281.043 584.842 280.35 585.56C279.661 586.274 278.829 586.836 277.91 587.21C276.96 587.609 275.94 587.813 274.91 587.81H251.55C250.52 587.816 249.499 587.612 248.55 587.21C247.621 586.832 246.778 586.271 246.07 585.56C245.364 584.852 244.803 584.013 244.42 583.09C244.028 582.138 243.828 581.119 243.83 580.09V549.33C243.826 548.301 244.026 547.281 244.42 546.33C244.801 545.411 245.362 544.578 246.07 543.88C246.794 543.189 247.633 542.63 248.55 542.23C249.496 541.817 250.518 541.606 251.55 541.61H274.91ZM270.91 552.83H255.44V576.59H271L270.91 552.83Z" fill="white"/>
<path d="M330.58 542C330.7 542.114 330.795 542.253 330.859 542.406C330.923 542.559 330.954 542.724 330.95 542.89V586.58C330.955 586.746 330.925 586.911 330.861 587.065C330.797 587.218 330.701 587.356 330.58 587.47C330.466 587.59 330.327 587.686 330.174 587.749C330.021 587.813 329.856 587.844 329.69 587.84H320.19C319.817 587.833 319.451 587.73 319.13 587.54C318.803 587.362 318.53 587.1 318.34 586.78L303.76 559.85V586.58C303.785 586.751 303.77 586.926 303.716 587.091C303.661 587.255 303.569 587.404 303.447 587.527C303.324 587.649 303.175 587.741 303.011 587.796C302.846 587.85 302.671 587.865 302.5 587.84H293.39C293.219 587.864 293.046 587.847 292.883 587.792C292.72 587.737 292.572 587.644 292.45 587.522C292.329 587.4 292.238 587.251 292.184 587.088C292.13 586.924 292.115 586.75 292.14 586.58V542.86C292.117 542.69 292.133 542.518 292.188 542.356C292.242 542.193 292.334 542.046 292.455 541.925C292.576 541.804 292.723 541.713 292.886 541.658C293.048 541.603 293.22 541.587 293.39 541.61H302.77C303.139 541.617 303.5 541.717 303.82 541.9C304.147 542.078 304.42 542.34 304.61 542.66L319.27 569.66V542.86C319.267 542.695 319.298 542.531 319.36 542.379C319.422 542.226 319.513 542.087 319.63 541.97C319.747 541.854 319.886 541.762 320.038 541.7C320.191 541.638 320.355 541.607 320.52 541.61H329.69C329.857 541.61 330.023 541.645 330.176 541.712C330.329 541.779 330.467 541.877 330.58 542Z" fill="white"/>
</g>
<defs>
<clipPath id="clip0">
<rect width="392.79" height="688" fill="white"/>
</clipPath>
</defs>
</svg>
