<svg width="39" height="35" viewBox="0 0 39 35" fill="none" xmlns="http://www.w3.org/2000/svg">
<mask id="path-1-inside-1" fill="white">
<path fill-rule="evenodd" clip-rule="evenodd" d="M38.9792 2H3.97925V30H23.4899L29.9792 35L33.9154 30H38.9792V2Z"/>
</mask>
<path d="M3.97925 2V-1H0.979248V2H3.97925ZM38.9792 2H41.9792V-1H38.9792V2ZM3.97925 30H0.979248V33H3.97925V30ZM23.4899 30L25.3209 27.6236L24.5116 27H23.4899V30ZM29.9792 35L28.1482 37.3764L30.4999 39.1884L32.3364 36.8557L29.9792 35ZM33.9154 30V27H32.4591L31.5583 28.1443L33.9154 30ZM38.9792 30V33H41.9792V30H38.9792ZM3.97925 5H38.9792V-1H3.97925V5ZM6.97925 30V2H0.979248V30H6.97925ZM23.4899 27H3.97925V33H23.4899V27ZM31.8102 32.6236L25.3209 27.6236L21.6589 32.3764L28.1482 37.3764L31.8102 32.6236ZM31.5583 28.1443L27.622 33.1443L32.3364 36.8557L36.2726 31.8557L31.5583 28.1443ZM38.9792 27H33.9154V33H38.9792V27ZM35.9792 2V30H41.9792V2H35.9792Z" fill="white" mask="url(#path-1-inside-1)"/>
<path fill-rule="evenodd" clip-rule="evenodd" d="M9.07324 18.5C14.0437 18.5 18.0732 14.4706 18.0732 9.5C18.0732 4.52943 14.0437 0.5 9.07324 0.5C4.10278 0.5 0.0732422 4.52943 0.0732422 9.5C0.0732422 14.4706 4.10278 18.5 9.07324 18.5ZM7.14966 5.4218V7.32979H8.33765V14.1818H10.4736V5.4218H7.14966Z" fill="white"/>
</svg>
