<svg width="39" height="35" viewBox="0 0 39 35" fill="none" xmlns="http://www.w3.org/2000/svg">
<mask id="path-1-inside-1" fill="white">
<path fill-rule="evenodd" clip-rule="evenodd" d="M38.906 2H3.90601V30H23.4167L29.906 35L33.8422 30H38.906V2Z"/>
</mask>
<path d="M3.90601 2V-1H0.906006V2H3.90601ZM38.906 2H41.906V-1H38.906V2ZM3.90601 30H0.906006V33H3.90601V30ZM23.4167 30L25.2477 27.6236L24.4384 27H23.4167V30ZM29.906 35L28.0749 37.3764L30.4267 39.1884L32.2632 36.8557L29.906 35ZM33.8422 30V27H32.3859L31.485 28.1443L33.8422 30ZM38.906 30V33H41.906V30H38.906ZM3.90601 5H38.906V-1H3.90601V5ZM6.90601 30V2H0.906006V30H6.90601ZM23.4167 27H3.90601V33H23.4167V27ZM31.737 32.6236L25.2477 27.6236L21.5856 32.3764L28.0749 37.3764L31.737 32.6236ZM31.485 28.1443L27.5488 33.1443L32.2632 36.8557L36.1994 31.8557L31.485 28.1443ZM38.906 27H33.8422V33H38.906V27ZM35.906 2V30H41.906V2H35.906Z" fill="white" mask="url(#path-1-inside-1)"/>
<circle cx="9" cy="9.5" r="9" fill="#E20000"/>
</svg>
