<svg width="36" height="34" viewBox="0 0 36 34" fill="none" xmlns="http://www.w3.org/2000/svg">
<mask id="path-1-inside-1" fill="white">
<path fill-rule="evenodd" clip-rule="evenodd" d="M35.2949 0.808594H0.294922V28.8086H19.8056L26.2949 33.8086L30.2311 28.8086H35.2949V0.808594Z"/>
</mask>
<path d="M0.294922 0.808594V-2.19141H-2.70508V0.808594H0.294922ZM35.2949 0.808594H38.2949V-2.19141H35.2949V0.808594ZM0.294922 28.8086H-2.70508V31.8086H0.294922V28.8086ZM19.8056 28.8086L21.6366 26.4322L20.8273 25.8086H19.8056V28.8086ZM26.2949 33.8086L24.4638 36.185L26.8156 37.997L28.6521 35.6643L26.2949 33.8086ZM30.2311 28.8086V25.8086H28.7748L27.8739 26.9529L30.2311 28.8086ZM35.2949 28.8086V31.8086H38.2949V28.8086H35.2949ZM0.294922 3.80859H35.2949V-2.19141H0.294922V3.80859ZM3.29492 28.8086V0.808594H-2.70508V28.8086H3.29492ZM19.8056 25.8086H0.294922V31.8086H19.8056V25.8086ZM28.1259 31.4322L21.6366 26.4322L17.9746 31.185L24.4638 36.185L28.1259 31.4322ZM27.8739 26.9529L23.9377 31.9529L28.6521 35.6643L32.5883 30.6643L27.8739 26.9529ZM35.2949 25.8086H30.2311V31.8086H35.2949V25.8086ZM32.2949 0.808594V28.8086H38.2949V0.808594H32.2949Z" fill="white" mask="url(#path-1-inside-1)"/>
</svg>
