<svg width="307" height="289" viewBox="0 0 307 289" fill="none" xmlns="http://www.w3.org/2000/svg">
<path fill-rule="evenodd" clip-rule="evenodd" d="M8.01213 131.026C8.01213 145.758 9.72946 159.687 13.2558 172.671C9.75831 183.697 8.01213 195.1 8.01213 206.584C8.01213 232.827 26.9463 253.631 52.4065 267.257C78.194 281.058 113.035 289 150.875 289C188.715 289 223.556 281.058 249.344 267.257C274.804 253.631 293.738 232.827 293.738 206.584C293.738 195.743 291.725 184.749 288.247 174.058C291.787 160.788 293.738 146.405 293.738 131.026C293.738 124.649 293.319 118.432 292.502 112.388C300.943 104.178 306.206 92.6789 306.206 79.9503C306.206 54.9621 285.949 34.7051 260.961 34.7051C257.747 34.7051 254.604 35.0419 251.567 35.684C225.457 12.7483 189.732 0.15625 150.875 0.15625C112.372 0.15625 76.9493 12.5184 50.9028 35.0566C49.0462 34.8244 47.1577 34.7051 45.2451 34.7051C20.2569 34.7051 0 54.9621 0 79.9503C0 90.6251 3.7065 100.446 9.88552 108.18C8.64939 115.533 8.01213 123.158 8.01213 131.026ZM18.9481 206.584C18.9481 195.152 20.8633 183.818 24.7011 172.926C20.8633 160.131 18.9481 146.13 18.9481 131.026C18.9481 121.884 19.8782 113.148 21.6492 104.858C17.8929 101.298 14.9413 96.8976 13.0957 91.9575C11.6994 88.2204 10.9359 84.1745 10.9359 79.9503C10.9359 61.0018 26.2967 45.6411 45.2451 45.6411C48.3421 45.6411 51.3433 46.0514 54.1972 46.8207C78.2788 24.0294 112.667 11.0922 150.875 11.0922C189.684 11.0922 224.553 24.4397 248.682 47.9038C252.495 46.4421 256.634 45.6411 260.961 45.6411C275.173 45.6411 287.366 54.2815 292.574 66.5956C292.791 67.1087 292.996 67.6281 293.189 68.1536C294.536 71.8324 295.271 75.8063 295.271 79.9518C295.271 91.5404 289.526 101.787 280.728 107.999C282.091 115.346 282.803 123.032 282.803 131.027C282.803 146.71 280.644 161.2 276.806 174.381C277.285 175.729 277.739 177.08 278.165 178.431C279.017 181.134 279.761 183.84 280.389 186.541C281.959 193.297 282.803 200.022 282.803 206.586C282.803 247.361 223.795 278.066 150.876 278.066C87.3548 278.066 34.391 254.766 21.793 221.806C21.6747 221.497 21.56 221.187 21.4488 220.875C19.8081 216.283 18.9481 211.507 18.9481 206.584Z" fill="white"/>
<path fill-rule="evenodd" clip-rule="evenodd" d="M209.02 150.965C209.02 157.135 214.022 162.136 220.191 162.136C226.36 162.136 231.361 157.135 231.361 150.965C231.361 144.796 226.36 139.795 220.191 139.795C214.022 139.795 209.02 144.796 209.02 150.965ZM84.5486 162.136C78.3794 162.136 73.3782 157.135 73.3782 150.965C73.3782 144.796 78.3794 139.795 84.5486 139.795C90.7179 139.795 95.7191 144.796 95.7191 150.965C95.7191 157.135 90.7179 162.136 84.5486 162.136ZM46.6538 210.346C45.9939 212.809 48.9804 215.749 53.3244 216.913C57.6683 218.077 61.7247 217.024 62.3846 214.561C63.0445 212.099 60.058 209.158 55.7141 207.994C51.3702 206.831 47.3138 207.883 46.6538 210.346ZM85.9731 220.885C85.3132 223.348 88.2997 226.288 92.6436 227.452C96.9876 228.616 101.044 227.563 101.704 225.1C102.364 222.637 99.3773 219.697 95.0334 218.533C90.6895 217.369 86.633 218.422 85.9731 220.885ZM69.0819 236.751C64.738 235.587 61.7515 232.647 62.4114 230.184C63.0713 227.721 67.1277 226.668 71.4716 227.832C75.8156 228.996 78.8021 231.936 78.1422 234.399C77.4822 236.862 73.4258 237.915 69.0819 236.751ZM251.768 216.913C256.112 215.749 259.099 212.809 258.439 210.346C257.779 207.883 253.723 206.831 249.379 207.994C245.035 209.158 242.048 212.099 242.708 214.561C243.368 217.024 247.424 218.077 251.768 216.913ZM212.455 227.452C216.799 226.288 219.785 223.348 219.125 220.885C218.465 218.422 214.409 217.369 210.065 218.533C205.721 219.697 202.735 222.637 203.395 225.1C204.054 227.563 208.111 228.616 212.455 227.452ZM242.687 230.184C243.347 232.647 240.36 235.587 236.017 236.751C231.673 237.915 227.616 236.862 226.956 234.399C226.296 231.936 229.283 228.996 233.627 227.832C237.971 226.668 242.027 227.721 242.687 230.184ZM123.688 198.51C123.688 205.486 139.842 216.203 153.688 216.203C167.535 216.203 183.688 205.486 183.688 198.51C183.688 191.535 167.535 187.731 153.688 187.731C139.842 187.731 123.688 191.535 123.688 198.51Z" fill="white"/>
</svg>
