<svg width="100" height="100" viewBox="0 0 100 100" fill="none" xmlns="http://www.w3.org/2000/svg">
<path d="M79.4751 15.5C81.5457 15.5 83.1637 17.2879 82.9577 19.3483L80.0688 48.2372C79.8899 50.0264 78.3843 51.3889 76.5862 51.3889H23.4138C21.6157 51.3889 20.1101 50.0264 19.9312 48.2372L17.0423 19.3483C16.8363 17.2879 18.4543 15.5 20.5249 15.5H79.4751Z" fill="white" stroke="#5960F2" stroke-width="3"/>
<path d="M84.4751 20.5C86.5457 20.5 88.1637 22.2879 87.9577 24.3483L84.1981 61.9444H15.8019L12.0423 24.3483C11.8363 22.2879 13.4543 20.5 15.5249 20.5H84.4751Z" fill="white" stroke="#5960F2" stroke-width="3"/>
<path d="M33.5645 34.685L33.8872 35.75H35H65H66.1128L66.4355 34.685L68.6128 27.5H89.5248C91.5829 27.5 93.1968 29.2672 93.0105 31.3169L88.9195 76.3169C88.7557 78.1197 87.2441 79.5 85.4339 79.5H14.5661C12.7559 79.5 11.2443 78.1197 11.0804 76.3169L6.98954 31.3169C6.80321 29.2672 8.41705 27.5 10.4752 27.5H31.3872L33.5645 34.685Z" fill="white" stroke="#5960F2" stroke-width="3"/>
<path d="M76.982 53C67.046 53 59 61.064 59 71C59 80.936 67.046 89 76.982 89C86.936 89 95 80.936 95 71C95 61.064 86.936 53 76.982 53Z" fill="white"/>
<path d="M76.982 53C67.046 53 59 61.064 59 71C59 80.936 67.046 89 76.982 89C86.936 89 95 80.936 95 71C95 61.064 86.936 53 76.982 53ZM77 85.4C69.044 85.4 62.6 78.956 62.6 71C62.6 63.044 69.044 56.6 77 56.6C84.956 56.6 91.4 63.044 91.4 71C91.4 78.956 84.956 85.4 77 85.4Z" fill="#5960F2"/>
<path d="M78.5 61.4H75.8V72.4164L85.25 78.2L86.6 75.9416L78.5 71.0393V61.4Z" fill="#5960F2"/>
</svg>
