<svg width="127" height="149" viewBox="0 0 127 149" fill="none" xmlns="http://www.w3.org/2000/svg">
<path fill-rule="evenodd" clip-rule="evenodd" d="M55.6544 5.84092C48.9593 1.50085 41.8353 12.1003 49.367 18.0512L55.6544 5.84092Z" fill="#F5B523"/>
<path fill-rule="evenodd" clip-rule="evenodd" d="M58.3805 50.076C57.6528 58.269 53.4905 68.333 49.0078 75.4556C43.7682 83.7093 36.7826 87.0673 40.7414 91.6924C44.9621 96.5762 53.3454 89.5462 56.8967 85.8395C61.6123 80.9132 62.8637 70.5054 65.2506 61.3853L58.3805 50.076Z" fill="#DC9C0A"/>
<path fill-rule="evenodd" clip-rule="evenodd" d="M102.52 105.53C98.1336 120.667 81.9964 131.506 71.5827 134.516C55.5633 139.141 37.3631 129.683 20.945 129.474C14.1901 129.388 4.17488 131.432 0 133.751C18.787 102.071 50.9195 128.796 52.0688 98.1954L102.52 105.53Z" fill="url(#paint0_linear)"/>
<path d="M101.324 145.429C107.489 147.368 113.182 146.727 114.039 144C114.897 141.272 110.595 137.489 104.43 135.551C98.2652 133.613 92.5725 134.253 91.7149 136.981C90.8574 139.709 95.1597 143.491 101.324 145.429Z" fill="#DC9C0A"/>
<path d="M54.0352 144.317C47.8704 146.255 42.1777 145.615 41.3201 142.888C40.4626 140.16 44.7649 136.377 50.9297 134.439C57.0944 132.501 62.7871 133.141 63.6447 135.869C64.5022 138.597 60.1999 142.379 54.0352 144.317Z" fill="#DC9C0A"/>
<path fill-rule="evenodd" clip-rule="evenodd" d="M57.8297 49.2463C57.7124 72.9105 36.744 122.746 55.1791 136.852C60.1749 140.674 67.3991 139.504 71.316 136.589C73.4503 134.988 76.4752 133.656 79.1255 134.045C83.6991 134.718 85.4119 136.858 88.6017 138.338C95.896 141.742 103.87 139.666 107.131 132.296C111.212 123.137 107.037 81.2923 105.887 63.6221C83.5119 25.1224 67.9854 22.9829 57.8297 49.2463Z" fill="#F5B523"/>
<path fill-rule="evenodd" clip-rule="evenodd" d="M57.8285 49.2461C57.7816 57.7852 55.0367 69.7318 52.3863 82.1777C47.7189 104.224 88.2723 55.8539 87.1465 38.1838C64.7475 -0.315937 67.9842 22.9826 57.8285 49.2461Z" fill="url(#paint1_linear)"/>
<path fill-rule="evenodd" clip-rule="evenodd" d="M107.131 132.296C110.11 125.643 87.312 124.993 69.088 123.271C62.2158 122.622 47.9548 106.524 47.6968 112.154C47.1574 122.932 48.8466 132.003 55.1793 136.852C60.1751 140.674 67.3992 139.503 71.3161 136.588C73.4505 134.987 76.4754 133.655 79.1257 134.045C83.6993 134.717 85.412 136.858 88.6018 138.337C95.8962 141.741 103.871 139.666 107.131 132.296Z" fill="url(#paint2_linear)"/>
<path fill-rule="evenodd" clip-rule="evenodd" d="M79.1257 134.045C83.6993 134.717 87.312 124.993 69.088 123.271C62.2158 122.622 47.9548 106.524 47.6968 112.154C47.1574 122.932 48.8466 132.003 55.1793 136.852C60.1751 140.674 67.3992 139.503 71.3161 136.588C73.4505 134.987 76.4754 133.655 79.1257 134.045Z" fill="url(#paint3_linear)"/>
<path fill-rule="evenodd" clip-rule="evenodd" d="M87.1494 38.1835C80.3476 60.1207 58.6518 57.4612 53.9843 55.5977C48.3318 53.3426 37.4959 44.8961 44.0162 33.8155C46.69 29.2494 44.6728 22.9103 46.7602 17.7311C54.6174 -1.99019 69.8397 -0.754371 78.4475 0.763373C81.5904 1.31878 91.8399 3.93302 95.1001 10.8488C101.058 23.4275 105.866 48.1106 105.889 63.6215L87.1494 38.1835Z" fill="#F5B523"/>
<path fill-rule="evenodd" clip-rule="evenodd" d="M87.1488 38.1837C85.507 43.4863 88.415 14.3853 85.6004 11.426C83.6068 9.33224 91.8393 3.93324 95.0995 10.849C98.6411 18.3177 101.761 30.0536 103.731 41.6031C105.068 49.5054 105.888 57.3205 105.888 63.6218L87.1488 38.1837Z" fill="url(#paint4_linear)"/>
<path d="M80.0515 40.4666C79.4855 40.7496 78.8766 40.6786 78.6914 40.3081C78.5062 39.9377 78.8148 39.408 79.3808 39.125C79.9469 38.8421 80.5561 38.9129 80.7413 39.2834C80.9265 39.6538 80.6176 40.1837 80.0515 40.4666Z" fill="#16164F"/>
<path d="M42.9412 39.6548C43.3398 39.9655 43.8276 40.0058 44.031 39.7449C44.2343 39.4841 44.0761 39.0208 43.6776 38.7101C43.279 38.3994 42.7909 38.3589 42.5876 38.6198C42.3842 38.8807 42.5426 39.3441 42.9412 39.6548Z" fill="#16164F"/>
<path d="M78.1597 45.7017C77.5937 45.9847 76.9848 45.9137 76.7996 45.5432C76.6144 45.1728 76.923 44.6431 77.489 44.3601C78.0551 44.0772 78.6643 44.148 78.8495 44.5185C79.0347 44.8889 78.7258 45.4188 78.1597 45.7017Z" fill="#16164F"/>
<path d="M43.5985 44.0586C43.9971 44.3693 44.4849 44.4096 44.6883 44.1487C44.8916 43.8879 44.7334 43.4246 44.3349 43.1139C43.9363 42.8032 43.4482 42.7627 43.2448 43.0236C43.0415 43.2845 43.1999 43.7479 43.5985 44.0586Z" fill="#16164F"/>
<path d="M72.8069 44.5637C72.2409 44.8467 71.632 44.7757 71.4468 44.4052C71.2616 44.0347 71.5702 43.5051 72.1362 43.2221C72.7023 42.9391 73.3115 43.0099 73.4967 43.3804C73.6819 43.7509 73.373 44.2807 72.8069 44.5637Z" fill="#16164F"/>
<path d="M47.9739 44.0132C48.3724 44.3239 48.8603 44.3642 49.0636 44.1033C49.267 43.8425 49.1088 43.3792 48.7102 43.0685C48.3117 42.7578 47.8236 42.7173 47.6202 42.9782C47.4169 43.2391 47.5753 43.7025 47.9739 44.0132Z" fill="#16164F"/>
<path fill-rule="evenodd" clip-rule="evenodd" d="M56.9916 38.5611C59.1247 38.6825 61.6074 39.6615 61.5195 41.2062C61.4752 41.9845 60.5321 42.9167 59.669 43.7726C58.8256 44.6156 58.0617 45.3889 57.0046 45.3287C54.8714 45.2074 52.2384 42.5549 52.3263 41.01C52.4141 39.4654 54.8584 38.4398 56.9916 38.5611Z" fill="#16164F"/>
<path d="M46.2592 29.263C46.2592 30.3641 47.1517 31.257 48.2528 31.257C49.3538 31.257 50.2464 30.3641 50.2464 29.263C50.2464 28.162 49.3538 27.2697 48.2528 27.2697C47.1517 27.2697 46.2592 28.162 46.2592 29.263Z" fill="#16164F"/>
<path d="M70.5226 29.7741C70.5226 30.8752 71.4152 31.7681 72.5162 31.7681C73.6173 31.7681 74.5099 30.8752 74.5099 29.7741C74.5099 28.6731 73.6173 27.7808 72.5162 27.7808C71.4152 27.7808 70.5226 28.6731 70.5226 29.7741Z" fill="#16164F"/>
<path d="M83.753 17.6146C85.9774 21.2795 90.7774 22.4313 94.4742 20.1875C98.1709 17.9437 99.3645 13.1539 97.1401 9.48906C94.9156 5.8242 90.1157 4.67236 86.4189 6.91618C82.7222 9.15999 81.5285 13.9498 83.753 17.6146Z" fill="#F5B523"/>
<path fill-rule="evenodd" clip-rule="evenodd" d="M102.581 38C104.059 44.3578 103.436 47.419 105.492 48.1307C108.82 49.2777 118.964 38.3288 122.822 38.5416C127.675 38.8085 127.305 45.781 125.595 48.4761C120.858 55.9849 106.371 67.3065 106.787 81.4137C105.747 78.9741 104.822 76.4929 104.036 73.9384C100.894 63.7788 99.8309 52.4637 102.581 38Z" fill="#F5B523"/>
<defs>
<linearGradient id="paint0_linear" x1="28.0281" y1="126.48" x2="88.6962" y2="120.856" gradientUnits="userSpaceOnUse">
<stop stop-color="#DC9C0A"/>
<stop offset="1" stop-color="#9E7A27"/>
</linearGradient>
<linearGradient id="paint1_linear" x1="47.6015" y1="42.2782" x2="67.6609" y2="63.6221" gradientUnits="userSpaceOnUse">
<stop stop-color="#D79704"/>
<stop offset="1" stop-color="#BB8813" stop-opacity="0"/>
</linearGradient>
<linearGradient id="paint2_linear" x1="97.9131" y1="131.171" x2="115.035" y2="162.6" gradientUnits="userSpaceOnUse">
<stop stop-color="#F5B523"/>
<stop offset="0.21" stop-color="#E2A210"/>
<stop offset="1" stop-color="#444BEF"/>
</linearGradient>
<linearGradient id="paint3_linear" x1="63.5756" y1="123.665" x2="24.9586" y2="162.834" gradientUnits="userSpaceOnUse">
<stop stop-color="#F5B523"/>
<stop offset="0.28" stop-color="#DC9C0A"/>
<stop offset="1" stop-color="#0008D7"/>
</linearGradient>
<linearGradient id="paint4_linear" x1="89.2359" y1="23.0454" x2="97.445" y2="1.93636" gradientUnits="userSpaceOnUse">
<stop stop-color="#F5B523"/>
<stop offset="1" stop-color="#BC8A28"/>
</linearGradient>
</defs>
</svg>
