<svg width="74" height="87" viewBox="0 0 74 87" fill="none" xmlns="http://www.w3.org/2000/svg">
<path fill-rule="evenodd" clip-rule="evenodd" d="M31.8947 3.49023C35.8507 0.925793 40.0601 7.18876 35.6098 10.705L31.8947 3.49023Z" fill="#F5B523"/>
<path fill-rule="evenodd" clip-rule="evenodd" d="M31.7898 29.5228C31.3616 34.364 32.7368 40.6504 34.6041 45.2592C36.794 50.6046 40.5084 53.2838 37.725 55.5627C34.7624 57.9648 30.6167 53.0045 28.9363 50.4793C26.7053 47.1238 27.059 40.9399 26.6184 35.387L31.7898 29.5228Z" fill="#FDA71A"/>
<path fill-rule="evenodd" clip-rule="evenodd" d="M2.07323 68.8185C6.39614 77.062 20.992 74.7652 27.3771 75.2705C37.1988 76.0449 44.8177 72.7032 54.2959 70.6321C58.1956 69.7802 70.7446 71.2993 73.4365 72.1455C64.3013 59.8239 36.3427 72.9766 34.3585 51.93C25.3651 61.1217 15.3124 65.7018 2.07323 68.8185Z" fill="url(#paint0_linear)"/>
<path fill-rule="evenodd" clip-rule="evenodd" d="M30.5762 29.136C30.604 36.9285 34.4984 47.445 35.7457 56.4335C36.4386 61.4833 45.3774 63.4701 40.9703 73.1192C39.432 76.4992 33.5145 75.9446 30.521 76.0239C28.9411 76.0657 24.7143 76.6542 23.1483 76.8842C21.0972 77.1859 20.2655 77.3669 18.3946 78.2413C14.0707 80.2524 4.39717 76.3432 1.9996 70.9314C-0.411819 65.5194 1.5008 48.0712 2.17987 37.6303C15.4011 14.8818 24.5754 13.6176 30.5762 29.136Z" fill="#F5B523"/>
<path fill-rule="evenodd" clip-rule="evenodd" d="M1.99957 70.9313C-0.41185 65.5194 34.4984 47.445 35.7457 56.4335C36.4386 61.4833 45.3774 63.4701 40.9703 73.1192C39.432 76.4992 33.958 77.2706 30.2438 77.2706C28.6639 77.2706 24.7143 76.6542 23.1483 76.8842C21.0972 77.1859 20.8199 76.5354 18.9489 77.4097C14.625 79.4209 4.39714 76.3432 1.99957 70.9313Z" fill="url(#paint1_linear)"/>
<path fill-rule="evenodd" clip-rule="evenodd" d="M4.24048 34.2066C6.63805 34.8538 10.02 53.4797 11.198 55.5014C13.3461 59.1884 15.3554 57.3977 19.0142 60.1527C24.627 64.3821 25.2785 71.3426 22.978 76.9103C22.1742 78.86 20.6356 78.6217 18.5291 78.7775C13.7755 79.1298 4.39303 76.3428 1.99547 70.931C-0.415961 65.5192 1.51052 48.071 2.17574 37.6301C2.88254 36.429 3.5614 35.2877 4.24048 34.2066Z" fill="#F5B523"/>
<path fill-rule="evenodd" clip-rule="evenodd" d="M30.5755 29.136C30.6033 34.1815 32.2252 41.2404 33.7912 48.5944C36.5491 61.6207 12.5869 33.0404 13.2521 22.5995C26.4872 -0.148969 24.5747 13.6176 30.5755 29.136Z" fill="url(#paint2_linear)"/>
<path fill-rule="evenodd" clip-rule="evenodd" d="M13.2526 22.5997C17.2716 35.5618 30.0913 33.9904 32.8492 32.8893C36.1891 31.5568 42.5919 26.566 38.7391 20.0188C37.1593 17.3207 38.3512 13.5751 37.1178 10.5149C32.4751 -1.13793 23.4806 -0.407714 18.3944 0.489082C16.5373 0.817256 10.4811 2.36195 8.55469 6.44832C5.03456 13.8807 2.19352 28.4653 2.17966 37.6304L13.2526 22.5997Z" fill="#F5B523"/>
<path fill-rule="evenodd" clip-rule="evenodd" d="M13.2522 22.5995C14.2224 25.7326 12.5041 8.53759 14.1671 6.78904C15.3451 5.55187 10.4807 2.36174 8.55434 6.44812C6.46167 10.8611 4.61834 17.7956 3.45421 24.6199C2.66426 29.2892 2.17931 33.9069 2.17931 37.6302L13.2522 22.5995Z" fill="url(#paint3_linear)"/>
<path d="M17.4681 23.9478C17.8025 24.115 18.1623 24.0731 18.2717 23.8542C18.3812 23.6353 18.1988 23.3223 17.8644 23.1551C17.5299 22.9879 17.17 23.0297 17.0605 23.2486C16.9511 23.4675 17.1336 23.7806 17.4681 23.9478Z" fill="#16164F"/>
<path d="M39.4009 23.4749C39.1654 23.6584 38.8772 23.6823 38.757 23.5281C38.6369 23.374 38.7303 23.1002 38.9658 22.9167C39.2013 22.7331 39.4897 22.7091 39.6099 22.8633C39.73 23.0174 39.6364 23.2913 39.4009 23.4749Z" fill="#16164F"/>
<path d="M18.5903 27.0407C18.9247 27.2079 19.2845 27.166 19.3939 26.9471C19.5034 26.7282 19.321 26.4152 18.9866 26.248C18.6521 26.0808 18.2921 26.1226 18.1827 26.3415C18.0733 26.5604 18.2558 26.8735 18.5903 27.0407Z" fill="#16164F"/>
<path d="M38.9996 26.0732C38.7641 26.2567 38.4758 26.2806 38.3556 26.1264C38.2355 25.9723 38.3289 25.6985 38.5644 25.515C38.8 25.3314 39.0884 25.3075 39.2085 25.4616C39.3287 25.6157 39.2351 25.8896 38.9996 26.0732Z" fill="#16164F"/>
<path d="M21.7502 26.3685C22.0846 26.5357 22.4444 26.4938 22.5539 26.2749C22.6633 26.056 22.481 25.743 22.1465 25.5758C21.812 25.4086 21.4521 25.4505 21.3426 25.6694C21.2332 25.8883 21.4157 26.2013 21.7502 26.3685Z" fill="#16164F"/>
<path d="M36.4217 26.0447C36.1862 26.2283 35.8979 26.2521 35.7778 26.0979C35.6576 25.9438 35.7511 25.6701 35.9866 25.4865C36.2221 25.3029 36.5105 25.279 36.6306 25.4331C36.7508 25.5873 36.6572 25.8611 36.4217 26.0447Z" fill="#16164F"/>
<path fill-rule="evenodd" clip-rule="evenodd" d="M31.0794 22.8229C29.819 22.8946 28.3521 23.4731 28.404 24.3858C28.4302 24.8457 28.9874 25.3965 29.4974 25.9023C29.9957 26.4004 30.4471 26.8573 31.0718 26.8217C32.3322 26.75 33.888 25.1827 33.8361 24.2699C33.7841 23.3572 32.3399 22.7512 31.0794 22.8229Z" fill="#16164F"/>
<path d="M37.4254 17.3203C37.4254 17.9709 36.898 18.4985 36.2475 18.4985C35.5969 18.4985 35.0695 17.9709 35.0695 17.3203C35.0695 16.6697 35.5969 16.1425 36.2475 16.1425C36.898 16.1425 37.4254 16.6697 37.4254 17.3203Z" fill="#16164F"/>
<path d="M23.0956 17.6342C23.0956 18.2848 22.5682 18.8124 21.9176 18.8124C21.267 18.8124 20.7396 18.2848 20.7396 17.6342C20.7396 16.9836 21.267 16.4564 21.9176 16.4564C22.5682 16.4564 23.0956 16.9836 23.0956 17.6342Z" fill="#16164F"/>
<path d="M15.2792 10.438C13.9649 12.6035 11.1286 13.2841 8.94431 11.9583C6.75997 10.6324 6.05468 7.80228 7.36906 5.63681C8.68344 3.47134 11.5197 2.79074 13.704 4.11656C15.8883 5.44238 16.5936 8.27254 15.2792 10.438Z" fill="#F5B523"/>
<path d="M26.9986 73.6246C25.4119 77.0977 22.8799 79.3441 21.3431 78.6421C19.8064 77.94 19.8468 74.5554 21.4334 71.0823C23.02 67.6091 25.5521 65.3627 27.0889 66.0647C28.6256 66.7668 28.5852 70.1515 26.9986 73.6246Z" fill="#F5B523"/>
<path d="M44.8382 72.6194C46.7474 69.3126 47.109 65.947 45.6458 65.1023C44.1826 64.2575 41.4488 66.2534 39.5396 69.5602C37.6304 72.867 37.2688 76.2325 38.732 77.0773C40.1952 77.9221 42.929 75.9262 44.8382 72.6194Z" fill="#F39C0F"/>
<path fill-rule="evenodd" clip-rule="evenodd" d="M8.63192 54.3168C9.66547 52.8848 11.7332 48.7889 13.8202 44.7186C16.396 39.7277 21.0645 54.5136 21.9415 56.68C23.102 59.578 10.3466 64.8635 8.63192 54.3168Z" fill="url(#paint4_linear)"/>
<path fill-rule="evenodd" clip-rule="evenodd" d="M23.0801 57.4009C18.5809 58.8253 12.14 45.0483 14.3214 40.803C16.8233 35.935 18.7592 34.8174 19.4745 34.8654C21.6216 35.0062 23.4056 49.9969 24.092 52.248C25.1479 55.6714 23.6971 57.2067 23.0801 57.4009Z" fill="url(#paint5_linear)"/>
<path fill-rule="evenodd" clip-rule="evenodd" d="M8.63199 54.3169C10.9266 51.1238 11.2887 49.2771 12.5971 49.3575C14.7131 49.4902 17.8186 57.9277 20.0138 58.7029C22.774 59.6782 24.1829 55.7152 23.8562 53.8205C22.9608 48.5481 17.526 38.8974 21.024 31.1488C19.8809 32.2647 18.792 33.4303 17.7636 34.6689C13.6635 39.5909 10.4522 45.637 8.63199 54.3169Z" fill="#F5B523"/>
<defs>
<linearGradient id="paint0_linear" x1="65.7806" y1="68.6191" x2="35.2915" y2="67.3719" gradientUnits="userSpaceOnUse">
<stop stop-color="#F5B523"/>
<stop offset="1" stop-color="#D38300"/>
</linearGradient>
<linearGradient id="paint1_linear" x1="19.0042" y1="60.1475" x2="29.3409" y2="84.6973" gradientUnits="userSpaceOnUse">
<stop stop-color="#F5B523"/>
<stop offset="0.16" stop-color="#FDA71A"/>
<stop offset="0.95" stop-color="#E79002"/>
<stop offset="1" stop-color="#444BEF"/>
</linearGradient>
<linearGradient id="paint2_linear" x1="35.9116" y1="26.4907" x2="24.7722" y2="37.6305" gradientUnits="userSpaceOnUse">
<stop stop-color="#F5B523"/>
<stop offset="1" stop-color="#F5B523" stop-opacity="0"/>
</linearGradient>
<linearGradient id="paint3_linear" x1="12.019" y1="13.6546" x2="7.1685" y2="1.1818" gradientUnits="userSpaceOnUse">
<stop stop-color="#F5B523"/>
<stop offset="1" stop-color="#CD7F00"/>
</linearGradient>
<linearGradient id="paint4_linear" x1="11.3425" y1="50.8128" x2="10.7954" y2="55.8088" gradientUnits="userSpaceOnUse">
<stop stop-color="#E79002"/>
<stop offset="1" stop-color="#E79002" stop-opacity="0"/>
</linearGradient>
<linearGradient id="paint5_linear" x1="19.7954" y1="50.8088" x2="24.7954" y2="49.3088" gradientUnits="userSpaceOnUse">
<stop stop-color="#E79002"/>
<stop offset="1" stop-color="#E79002" stop-opacity="0"/>
</linearGradient>
</defs>
</svg>
