<svg width="125" height="72" viewBox="0 0 125 72" fill="none" xmlns="http://www.w3.org/2000/svg">
<path fill-rule="evenodd" clip-rule="evenodd" d="M95.6913 15.0908L99.2628 17.1445L118.482 45.8803C118.955 41.0087 119.031 41.0599 121.393 37.6771C126.288 30.635 126.061 22.0983 118.161 14.5777C110.621 7.41485 95.0674 1.92885 77.9077 2.72749C93.9146 3.50138 102.419 12.5786 95.6913 15.0908Z" fill="url(#paint0_linear)"/>
<path fill-rule="evenodd" clip-rule="evenodd" d="M74.0794 23.7636C70.5454 35.9601 63.7038 38.6281 56.8059 43.9883C43.766 54.11 11.8281 49.6842 10.6187 30.2874C11.4691 39.2295 24.2631 44.3744 26.2474 23.6055L74.0794 23.7636Z" fill="#F5B523"/>
<path fill-rule="evenodd" clip-rule="evenodd" d="M26.546 44.6414C24.1459 39.2805 42.5149 38.7568 57.1989 37.3695C62.7361 36.847 74.2269 23.8761 74.4347 28.4117C74.8694 37.0964 73.5083 44.4052 68.4057 48.3122C64.3804 51.3915 58.5596 50.4487 55.4035 48.1C53.6838 46.8098 51.2465 45.7368 49.111 46.0507C45.4258 46.5923 44.0458 48.3168 41.4756 49.5092C35.5983 52.2518 29.1728 50.5796 26.546 44.6414Z" fill="url(#paint1_linear)"/>
<path fill-rule="evenodd" clip-rule="evenodd" d="M49.111 46.0507C45.4258 46.5923 42.5149 38.7568 57.1989 37.3695C62.7361 36.847 74.2269 23.8761 74.4347 28.4117C74.8694 37.0964 73.5083 44.4052 68.4057 48.3122C64.3804 51.3915 58.5596 50.4487 55.4035 48.1C53.6838 46.8098 51.2465 45.7368 49.111 46.0507Z" fill="url(#paint2_linear)"/>
<path fill-rule="evenodd" clip-rule="evenodd" d="M14.7835 41.9232C19.9834 43.1327 22.487 42.6227 23.0691 44.3047C24.0072 47.026 11.5982 56.2673 11.7721 59.4233C11.9903 63.392 17.6929 63.0896 19.8974 61.6911C26.0386 57.817 38.7525 45.0231 50.2903 45.3633C48.295 44.5129 46.2657 43.7565 44.1765 43.1139C35.8673 40.5438 26.6129 39.6743 14.7835 41.9232Z" fill="#4E54EF"/>
<path fill-rule="evenodd" clip-rule="evenodd" d="M21.9685 44.6821C32.7217 53.444 47.8589 55.4259 63.3367 53.9408C83.4445 52.0087 96.6166 58.6456 104.819 55.5302C117.877 50.5556 120.92 29.5304 109.468 20.0982C98.9792 11.4692 73.7313 14.4108 48.0674 19.0934C38.5237 20.8343 30.0003 27.6251 23.2914 26.3508L21.9685 44.6821Z" fill="url(#paint3_linear)"/>
<path fill-rule="evenodd" clip-rule="evenodd" d="M35.4579 48.7256C40.6578 49.9351 43.1614 49.4251 43.7435 51.1071C44.6816 53.8284 39.5065 65.3375 39.6805 68.4935C39.8988 72.4622 45.6014 72.1601 47.8057 70.7805C53.9469 66.8875 57.7239 49.7843 69.2617 50.1245C67.2663 49.2741 65.237 48.5177 63.1479 47.8752C54.8387 45.305 47.2873 46.4767 35.4579 48.7256Z" fill="#5A60F3"/>
<path fill-rule="evenodd" clip-rule="evenodd" d="M11.8522 4.92628C6.45773 1.42929 0.717609 9.96979 6.78618 14.7647L11.8522 4.92628Z" fill="#5A60F3"/>
<path fill-rule="evenodd" clip-rule="evenodd" d="M37.27 31.0026C31.7895 48.6784 14.3081 46.5355 10.5473 45.0341C5.99284 43.217 -2.73819 36.4113 2.51554 27.4832C4.66995 23.8041 3.04455 18.6964 4.7265 14.5233C11.0574 -1.36701 23.3228 -0.371257 30.2584 0.851654C32.7908 1.29917 41.0494 3.40558 43.6762 8.97794C48.4764 19.1131 50.6689 30.8751 50.6878 43.3729L37.27 31.0026Z" fill="#5A60F3"/>
<path fill-rule="evenodd" clip-rule="evenodd" d="M37.2694 31.0028C35.9465 35.2753 38.2896 11.8275 36.0218 9.44306C34.4155 7.75601 41.0488 3.40581 43.6756 8.97817C46.5293 14.996 49.0429 24.4521 50.6304 33.758C51.7076 40.1252 37.2694 31.0028 37.2694 31.0028Z" fill="url(#paint4_linear)"/>
<path d="M31.5244 32.8392C31.0683 33.0672 30.5777 33.01 30.4285 32.7115C30.2793 32.413 30.5279 31.9863 30.984 31.7583C31.44 31.5303 31.9309 31.5873 32.0801 31.8858C32.2294 32.1843 31.9805 32.6112 31.5244 32.8392Z" fill="#16164F"/>
<path d="M1.61438 32.191C1.93552 32.4413 2.32859 32.4738 2.49243 32.2636C2.65627 32.0534 2.52883 31.6801 2.20769 31.4298C1.88655 31.1795 1.49328 31.1468 1.32944 31.357C1.1656 31.5672 1.29324 31.9406 1.61438 32.191Z" fill="#16164F"/>
<path d="M29.9934 37.0579C29.5373 37.2859 29.0467 37.2286 28.8975 36.9301C28.7482 36.6316 28.9969 36.2049 29.453 35.9769C29.909 35.7489 30.3999 35.8059 30.5491 36.1045C30.6984 36.403 30.4495 36.8299 29.9934 37.0579Z" fill="#16164F"/>
<path d="M2.1433 35.7328C2.46445 35.9832 2.85754 36.0157 3.02138 35.8055C3.18522 35.5953 3.05778 35.222 2.73664 34.9717C2.41549 34.7213 2.02221 34.6887 1.85836 34.8989C1.69452 35.1091 1.82216 35.4825 2.1433 35.7328Z" fill="#16164F"/>
<path d="M25.6839 36.1414C25.2278 36.3694 24.7372 36.3122 24.588 36.0137C24.4387 35.7152 24.6874 35.2884 25.1435 35.0604C25.5996 34.8324 26.0905 34.8895 26.2397 35.188C26.3889 35.4865 26.14 35.9134 25.6839 36.1414Z" fill="#16164F"/>
<path d="M5.67749 35.6946C5.99863 35.945 6.3917 35.9775 6.55554 35.7673C6.71938 35.5571 6.59194 35.1838 6.2708 34.9335C5.94966 34.6831 5.55639 34.6505 5.39255 34.8607C5.22871 35.0709 5.35635 35.4443 5.67749 35.6946Z" fill="#16164F"/>
<path fill-rule="evenodd" clip-rule="evenodd" d="M12.9636 31.3069C14.6824 31.4047 16.6828 32.1935 16.612 33.4381C16.5763 34.0653 15.8164 34.8163 15.121 35.506C14.4414 36.1852 13.8259 36.8082 12.9741 36.7598C11.2553 36.662 9.13376 34.5248 9.20458 33.2801C9.27539 32.0355 11.2449 31.2091 12.9636 31.3069Z" fill="#16164F"/>
<path d="M4.29021 23.8011C4.29021 24.6883 5.0094 25.4078 5.89657 25.4078C6.78374 25.4078 7.50293 24.6883 7.50293 23.8011C7.50293 22.9139 6.78374 22.1949 5.89657 22.1949C5.0094 22.1949 4.29021 22.9139 4.29021 23.8011Z" fill="#16164F"/>
<path d="M23.8505 24.2169C23.8505 25.104 24.5697 25.8235 25.4569 25.8235C26.344 25.8235 27.0632 25.104 27.0632 24.2169C27.0632 23.3297 26.344 22.6107 25.4569 22.6107C24.5697 22.6107 23.8505 23.3297 23.8505 24.2169Z" fill="#16164F"/>
<path d="M34.509 14.4325C36.3014 17.3854 40.1689 18.3135 43.1476 16.5056C46.1262 14.6976 47.088 10.8383 45.2956 7.88534C43.5033 4.93241 39.6358 4.00432 36.6571 5.81226C33.6785 7.6202 32.7167 11.4795 34.509 14.4325Z" fill="#5A60F3"/>
<path fill-rule="evenodd" clip-rule="evenodd" d="M96.9346 31.1574C103.377 27.4377 112.087 30.4528 116.377 37.8838C120.668 45.3146 117.889 54.9624 112.481 58.0848C106.039 61.8044 97.3286 58.7894 93.0385 51.3586C88.7482 43.9276 90.492 34.877 96.9346 31.1574Z" fill="#5A60F3"/>
<path d="M108.32 68.4932C111.285 68.5585 113.762 65.2767 113.853 61.163C113.943 57.0494 111.613 53.6618 108.648 53.5965C105.683 53.5312 103.206 56.813 103.116 60.9266C103.025 65.0403 105.355 68.4279 108.32 68.4932Z" fill="#5A60F3"/>
<defs>
<linearGradient id="paint0_linear" x1="99.433" y1="11.2317" x2="94.8974" y2="4.61731" gradientUnits="userSpaceOnUse">
<stop stop-color="#5A60F3"/>
<stop offset="1" stop-color="#3941FD"/>
</linearGradient>
<linearGradient id="paint1_linear" x1="33.9731" y1="43.7347" x2="20.1773" y2="69.0585" gradientUnits="userSpaceOnUse">
<stop stop-color="#FDA81E"/>
<stop offset="0.21" stop-color="#E79002"/>
<stop offset="1" stop-color="#E79002"/>
</linearGradient>
<linearGradient id="paint2_linear" x1="61.6405" y1="37.6872" x2="92.7558" y2="69.2476" gradientUnits="userSpaceOnUse">
<stop stop-color="#FDA81E"/>
<stop offset="0.27" stop-color="#E79002"/>
<stop offset="1" stop-color="#E79002"/>
</linearGradient>
<linearGradient id="paint3_linear" x1="35.3674" y1="42.6033" x2="-12.4453" y2="22.1932" gradientUnits="userSpaceOnUse">
<stop stop-color="#5A60F3"/>
<stop offset="1" stop-color="#0008D7"/>
</linearGradient>
<linearGradient id="paint4_linear" x1="38.9511" y1="18.8053" x2="45.5655" y2="1.79677" gradientUnits="userSpaceOnUse">
<stop stop-color="#5A60F3"/>
<stop offset="1" stop-color="#0008D7"/>
</linearGradient>
</defs>
</svg>
