<svg width="126" height="147" viewBox="0 0 126 147" fill="none" xmlns="http://www.w3.org/2000/svg">
<path fill-rule="evenodd" clip-rule="evenodd" d="M54.8301 5.75426C48.2343 1.47854 41.2159 11.9208 48.6359 17.7835L54.8301 5.75426Z" fill="#5A60F3"/>
<path fill-rule="evenodd" clip-rule="evenodd" d="M57.5163 49.333C56.7994 57.4044 52.6988 67.3192 48.2825 74.3362C43.1207 82.4676 36.2386 85.7758 40.1387 90.3323C44.2969 95.1437 52.5559 88.2179 56.0545 84.5662C60.7001 79.7129 61.933 69.4594 64.2845 60.4746L57.5163 49.333Z" fill="#444BEF"/>
<path fill-rule="evenodd" clip-rule="evenodd" d="M100.999 103.965C96.6785 118.877 80.7806 129.556 70.5213 132.521C54.7394 137.077 36.809 127.759 20.6344 127.553C13.9797 127.469 4.11298 129.483 0 131.767C18.5084 100.557 50.1645 126.886 51.2967 96.7389L100.999 103.965Z" fill="url(#paint0_linear)"/>
<path d="M99.8212 143.273C105.895 145.182 111.503 144.552 112.348 141.864C113.193 139.177 108.954 135.451 102.881 133.541C96.8073 131.632 91.199 132.263 90.3542 134.95C89.5093 137.637 93.7479 141.364 99.8212 143.273Z" fill="#444BEF"/>
<path d="M53.236 142.177C47.1627 144.087 41.5544 143.456 40.7095 140.769C39.8647 138.081 44.1032 134.355 50.1766 132.446C56.2499 130.536 61.8582 131.167 62.7031 133.854C63.5479 136.542 59.3094 140.268 53.236 142.177Z" fill="#444BEF"/>
<path fill-rule="evenodd" clip-rule="evenodd" d="M56.9704 48.5156C56.8549 71.8289 36.1974 120.926 54.3592 134.823C59.2809 138.588 66.3979 137.435 70.2567 134.563C72.3594 132.986 75.3395 131.674 77.9505 132.057C82.4563 132.72 84.1436 134.828 87.2861 136.286C94.4723 139.639 102.329 137.595 105.54 130.334C109.561 121.311 105.448 80.0864 104.316 62.6782C82.2718 24.7494 66.9756 22.6416 56.9704 48.5156Z" fill="#5A60F3"/>
<path fill-rule="evenodd" clip-rule="evenodd" d="M56.9731 48.5157C56.9269 56.9282 54.2227 68.6976 51.6117 80.959C47.0135 102.678 86.9655 55.0256 85.8564 37.6174C63.7896 -0.311426 66.9783 22.6417 56.9731 48.5157Z" fill="url(#paint1_linear)"/>
<path fill-rule="evenodd" clip-rule="evenodd" d="M105.541 130.335C108.476 123.78 86.0163 123.14 68.0625 121.443C61.2922 120.805 47.2427 104.945 46.9885 110.491C46.4571 121.11 48.1213 130.046 54.3601 134.823C59.2818 138.588 66.3988 137.435 70.2576 134.563C72.3603 132.986 75.3404 131.674 77.9514 132.058C82.4572 132.72 84.1445 134.829 87.287 136.287C94.4732 139.64 102.329 137.595 105.541 130.335Z" fill="url(#paint2_linear)"/>
<path fill-rule="evenodd" clip-rule="evenodd" d="M77.9514 132.058C82.4572 132.72 86.0163 123.14 68.0625 121.443C61.2922 120.805 47.2427 104.945 46.9885 110.491C46.4571 121.11 48.1213 130.046 54.3601 134.823C59.2818 138.588 66.3988 137.435 70.2576 134.563C72.3603 132.986 75.3404 131.674 77.9514 132.058Z" fill="url(#paint3_linear)"/>
<path fill-rule="evenodd" clip-rule="evenodd" d="M85.8574 37.6173C79.1565 59.2293 57.7823 56.6092 53.1841 54.7734C47.6154 52.5517 36.9401 44.2304 43.3638 33.3141C45.9979 28.8157 44.0106 22.5706 46.0671 17.4682C53.8078 -1.96068 68.8044 -0.743185 77.2845 0.752054C80.3808 1.29922 90.4784 3.8747 93.6902 10.688C99.5593 23.0801 104.296 47.3972 104.319 62.6782L85.8574 37.6173Z" fill="#5A60F3"/>
<path fill-rule="evenodd" clip-rule="evenodd" d="M85.8576 37.6172C84.2401 42.8412 87.105 14.1717 84.3322 11.2563C82.3681 9.19357 90.4785 3.87462 93.6904 10.6879C97.1795 18.0458 100.253 29.6077 102.194 40.9859C103.511 48.7711 104.319 56.4703 104.319 62.6781L85.8576 37.6172Z" fill="url(#paint4_linear)"/>
<path d="M78.8651 39.8665C78.3074 40.1453 77.7076 40.0754 77.5251 39.7104C77.3427 39.3454 77.6467 38.8236 78.2043 38.5448C78.762 38.266 79.3622 38.3358 79.5446 38.7008C79.7271 39.0658 79.4227 39.5877 78.8651 39.8665Z" fill="#16164F"/>
<path d="M42.3059 39.0673C42.6986 39.3734 43.1792 39.4131 43.3796 39.1561C43.5799 38.8991 43.4241 38.4427 43.0314 38.1366C42.6387 37.8305 42.1579 37.7906 41.9576 38.0476C41.7572 38.3046 41.9133 38.7612 42.3059 39.0673Z" fill="#16164F"/>
<path d="M77.0013 45.0243C76.4436 45.3031 75.8438 45.2332 75.6613 44.8682C75.4788 44.5032 75.7829 43.9814 76.3405 43.7026C76.8981 43.4239 77.4983 43.4936 77.6808 43.8586C77.8633 44.2236 77.5589 44.7456 77.0013 45.0243Z" fill="#16164F"/>
<path d="M42.9529 43.4054C43.3456 43.7115 43.8262 43.7512 44.0265 43.4942C44.2269 43.2372 44.071 42.7808 43.6784 42.4747C43.2857 42.1686 42.8049 42.1288 42.6045 42.3858C42.4042 42.6428 42.5603 43.0993 42.9529 43.4054Z" fill="#16164F"/>
<path d="M71.7291 43.9025C71.1715 44.1813 70.5716 44.1114 70.3892 43.7464C70.2067 43.3814 70.5107 42.8596 71.0684 42.5808C71.626 42.302 72.2262 42.3718 72.4086 42.7368C72.5911 43.1018 72.2868 43.6237 71.7291 43.9025Z" fill="#16164F"/>
<path d="M47.2642 43.3606C47.6569 43.6667 48.1375 43.7064 48.3378 43.4494C48.5382 43.1924 48.3824 42.736 47.9897 42.4299C47.597 42.1238 47.1162 42.084 46.9158 42.341C46.7155 42.598 46.8716 43.0545 47.2642 43.3606Z" fill="#16164F"/>
<path fill-rule="evenodd" clip-rule="evenodd" d="M56.1473 37.9893C58.2488 38.1089 60.6946 39.0734 60.608 40.5952C60.5644 41.362 59.6352 42.2803 58.785 43.1236C57.9541 43.954 57.2015 44.7158 56.16 44.6566C54.0585 44.537 51.4645 41.9239 51.5511 40.4019C51.6377 38.8802 54.0457 37.8698 56.1473 37.9893Z" fill="#16164F"/>
<path fill-rule="evenodd" clip-rule="evenodd" d="M101.404 36.7191C102.883 43.0769 102.26 46.1381 104.316 46.8498C107.643 47.9968 117.787 37.0479 121.646 37.2607C126.498 37.5276 126.129 44.5001 124.419 47.1953C119.682 54.704 105.195 66.0257 105.61 80.1328C104.571 77.6932 103.646 75.212 102.86 72.6575C99.7177 62.4979 98.6546 51.1828 101.404 36.7191Z" fill="#5A60F3"/>
<path d="M45.5721 28.829C45.5721 29.9138 46.4515 30.7935 47.5362 30.7935C48.6209 30.7935 49.5003 29.9138 49.5003 28.829C49.5003 27.7443 48.6209 26.8652 47.5362 26.8652C46.4515 26.8652 45.5721 27.7443 45.5721 28.829Z" fill="#16164F"/>
<path d="M69.4771 29.3328C69.4771 30.4176 70.3564 31.2973 71.4412 31.2973C72.5259 31.2973 73.4052 30.4176 73.4052 29.3328C73.4052 28.2481 72.5259 27.369 71.4412 27.369C70.3564 27.369 69.4771 28.2481 69.4771 29.3328Z" fill="#16164F"/>
<path d="M82.509 17.3533C84.7005 20.9638 89.4293 22.0986 93.0712 19.888C96.7132 17.6775 97.8891 12.9587 95.6976 9.34819C93.5062 5.73767 88.7773 4.60291 85.1354 6.81346C81.4935 9.024 80.3175 13.7428 82.509 17.3533Z" fill="#5A60F3"/>
<defs>
<linearGradient id="paint0_linear" x1="27.6125" y1="124.604" x2="87.3811" y2="119.064" gradientUnits="userSpaceOnUse">
<stop stop-color="#484FF2"/>
<stop offset="1" stop-color="#0008C8"/>
</linearGradient>
<linearGradient id="paint1_linear" x1="46.8978" y1="41.6512" x2="66.6598" y2="62.6786" gradientUnits="userSpaceOnUse">
<stop stop-color="#1119E4"/>
<stop offset="1" stop-color="#1119E4" stop-opacity="0"/>
</linearGradient>
<linearGradient id="paint2_linear" x1="96.4603" y1="129.226" x2="113.328" y2="160.189" gradientUnits="userSpaceOnUse">
<stop stop-color="#5A60F3"/>
<stop offset="0.21" stop-color="#444BEF"/>
<stop offset="1" stop-color="#444BEF"/>
</linearGradient>
<linearGradient id="paint3_linear" x1="62.6318" y1="121.832" x2="24.5875" y2="160.42" gradientUnits="userSpaceOnUse">
<stop stop-color="#5A60F3"/>
<stop offset="0.28" stop-color="#444BEF"/>
<stop offset="1" stop-color="#0008D7"/>
</linearGradient>
<linearGradient id="paint4_linear" x1="87.9137" y1="22.7034" x2="96.0011" y2="1.90734" gradientUnits="userSpaceOnUse">
<stop stop-color="#5A60F3"/>
<stop offset="1" stop-color="#0008D7"/>
</linearGradient>
</defs>
</svg>
