<svg width="45" height="87" viewBox="0 0 45 87" fill="none" xmlns="http://www.w3.org/2000/svg">
<path d="M0 0H44.509V78.4207L22.2545 86.9999L0 78.4207V0Z" fill="#D7E3EC"/>
<path d="M22.2549 86.9996L0.000396729 64.7451V78.5217L22.2549 86.9996Z" fill="#3155D9"/>
<path d="M44.5094 65.0101V78.5218L22.2549 86.9997L0.000385284 78.4205L44.5094 65.0101Z" fill="#7CA5E1"/>
<path d="M22.1004 47.099C29.3309 47.099 35.1924 41.0856 35.1924 33.6676C35.1924 26.2497 29.3309 20.2362 22.1004 20.2362C14.8699 20.2362 9.00842 26.2497 9.00842 33.6676C9.00842 41.0856 14.8699 47.099 22.1004 47.099Z" fill="#1C307A"/>
<path d="M19.3546 43.268L23.6967 37.1478L20.8796 31.505L26.4509 28.7609L22.9712 22.8344L34.8175 36.8585C35.4645 34.1446 35.2704 31.2913 34.2624 28.696C33.2543 26.1006 31.4825 23.8923 29.1936 22.3786C26.9047 20.8649 24.2127 20.1211 21.4924 20.2508C18.7721 20.3806 16.1589 21.3773 14.0168 23.1024C11.8746 24.8274 10.3101 27.1948 9.54113 29.8749C8.77213 32.555 8.83691 35.4145 9.72644 38.0551C10.616 40.6956 12.286 42.9859 14.5039 44.607C16.7219 46.2281 19.3774 47.0992 22.1006 47.0991H22.3333L19.3546 43.268Z" fill="#568CDB"/>
<path d="M26.4474 28.7609L22.9047 22.5648L18.3272 34.6087L26.4474 28.7609Z" fill="#FFCA61"/>
<path d="M21.9796 31.9572L26.4531 37.6842L18.3137 34.6283L21.9796 31.9572Z" fill="url(#paint0_linear)"/>
<path d="M26.4538 37.6842L19.3548 43.268L21.5149 35.8304L26.4538 37.6842Z" fill="#FFCA61"/>
<path d="M5.87728 54.3189C5.48165 54.3189 5.13547 54.257 4.83874 54.1334C4.54201 54.0048 4.31205 53.8243 4.14885 53.5919C3.99059 53.3545 3.91147 53.08 3.91147 52.7685V52.6053C3.91147 52.5805 3.91889 52.5608 3.93372 52.5459C3.9535 52.5261 3.97576 52.5163 4.00049 52.5163H4.84616C4.87088 52.5163 4.89067 52.5261 4.9055 52.5459C4.92528 52.5608 4.93517 52.5805 4.93517 52.6053V52.7165C4.93517 52.9144 5.02667 53.0825 5.20965 53.221C5.39263 53.3545 5.6399 53.4213 5.95146 53.4213C6.21357 53.4213 6.40892 53.3669 6.5375 53.2581C6.66608 53.1443 6.73037 53.0059 6.73037 52.8427C6.73037 52.724 6.69081 52.6251 6.61168 52.5459C6.53255 52.4619 6.42375 52.3901 6.28528 52.3308C6.15176 52.2665 5.93663 52.18 5.6399 52.0712C5.30856 51.9574 5.02667 51.8412 4.79423 51.7225C4.56674 51.6038 4.37387 51.4431 4.21561 51.2403C4.0623 51.0326 3.98565 50.7779 3.98565 50.4763C3.98565 50.1795 4.0623 49.9199 4.21561 49.6973C4.36892 49.4748 4.58158 49.3042 4.85357 49.1855C5.12557 49.0668 5.43961 49.0075 5.79568 49.0075C6.17154 49.0075 6.50535 49.0742 6.79714 49.2077C7.09386 49.3413 7.32383 49.5292 7.48703 49.7715C7.65517 50.0089 7.73924 50.2859 7.73924 50.6024V50.7136C7.73924 50.7384 7.72935 50.7606 7.70957 50.7804C7.69473 50.7952 7.67495 50.8027 7.65023 50.8027H6.79714C6.77241 50.8027 6.75015 50.7952 6.73037 50.7804C6.71554 50.7606 6.70812 50.7384 6.70812 50.7136V50.6543C6.70812 50.4466 6.62157 50.271 6.44848 50.1276C6.28034 49.9792 6.0479 49.9051 5.75117 49.9051C5.51874 49.9051 5.33576 49.9545 5.20223 50.0534C5.07365 50.1523 5.00936 50.2883 5.00936 50.4614C5.00936 50.5851 5.04645 50.6889 5.12063 50.773C5.19976 50.8571 5.3135 50.9337 5.46187 51.0029C5.61517 51.0672 5.85008 51.1563 6.16659 51.27C6.51772 51.3986 6.79219 51.5123 6.99001 51.6112C7.19277 51.7101 7.37328 51.8585 7.53154 52.0563C7.69473 52.2492 7.77633 52.5014 7.77633 52.813C7.77633 53.2779 7.60572 53.6463 7.26448 53.9183C6.92324 54.1853 6.46085 54.3189 5.87728 54.3189ZM12.1065 49.8754C12.1065 49.9001 12.0966 49.9224 12.0768 49.9421C12.062 49.957 12.0422 49.9644 12.0175 49.9644H9.59176C9.56703 49.9644 9.55467 49.9768 9.55467 50.0015V51.1513C9.55467 51.176 9.56703 51.1884 9.59176 51.1884H11.1867C11.2114 51.1884 11.2312 51.1983 11.246 51.2181C11.2658 51.2329 11.2757 51.2527 11.2757 51.2774V51.997C11.2757 52.0217 11.2658 52.044 11.246 52.0637C11.2312 52.0786 11.2114 52.086 11.1867 52.086H9.59176C9.56703 52.086 9.55467 52.0984 9.55467 52.1231V54.1705C9.55467 54.1952 9.54478 54.2175 9.52499 54.2373C9.51016 54.2521 9.49038 54.2595 9.46565 54.2595H8.59772C8.573 54.2595 8.55074 54.2521 8.53096 54.2373C8.51612 54.2175 8.50871 54.1952 8.50871 54.1705V49.1558C8.50871 49.1311 8.51612 49.1113 8.53096 49.0965C8.55074 49.0767 8.573 49.0668 8.59772 49.0668H12.0175C12.0422 49.0668 12.062 49.0767 12.0768 49.0965C12.0966 49.1113 12.1065 49.1311 12.1065 49.1558V49.8754ZM14.5439 54.3189C14.1631 54.3189 13.8268 54.2447 13.535 54.0963C13.2482 53.948 13.0232 53.7402 12.86 53.4732C12.7017 53.2012 12.6226 52.8896 12.6226 52.5385V49.1558C12.6226 49.1311 12.63 49.1113 12.6449 49.0965C12.6646 49.0767 12.6869 49.0668 12.7116 49.0668H13.5795C13.6043 49.0668 13.6241 49.0767 13.6389 49.0965C13.6587 49.1113 13.6686 49.1311 13.6686 49.1558V52.5459C13.6686 52.808 13.7477 53.0207 13.9059 53.1839C14.0691 53.3421 14.2818 53.4213 14.5439 53.4213C14.806 53.4213 15.0162 53.3421 15.1745 53.1839C15.3377 53.0207 15.4193 52.808 15.4193 52.5459V49.1558C15.4193 49.1311 15.4267 49.1113 15.4415 49.0965C15.4613 49.0767 15.4835 49.0668 15.5083 49.0668H16.3762C16.4009 49.0668 16.4207 49.0767 16.4355 49.0965C16.4553 49.1113 16.4652 49.1311 16.4652 49.1558V52.5385C16.4652 52.8896 16.3836 53.2012 16.2204 53.4732C16.0622 53.7402 15.8371 53.948 15.5454 54.0963C15.2585 54.2447 14.9247 54.3189 14.5439 54.3189Z" fill="#568CDB"/>
<path d="M20.5905 54.3189C20.1948 54.3189 19.8487 54.257 19.5519 54.1334C19.2552 54.0048 19.0252 53.8243 18.862 53.5919C18.7038 53.3545 18.6247 53.08 18.6247 52.7685V52.6053C18.6247 52.5805 18.6321 52.5608 18.6469 52.5459C18.6667 52.5261 18.6889 52.5163 18.7137 52.5163H19.5593C19.5841 52.5163 19.6039 52.5261 19.6187 52.5459C19.6385 52.5608 19.6484 52.5805 19.6484 52.6053V52.7165C19.6484 52.9144 19.7399 53.0825 19.9228 53.221C20.1058 53.3545 20.3531 53.4213 20.6647 53.4213C20.9268 53.4213 21.1221 53.3669 21.2507 53.2581C21.3793 53.1443 21.4436 53.0059 21.4436 52.8427C21.4436 52.724 21.404 52.6251 21.3249 52.5459C21.2457 52.4619 21.1369 52.3901 20.9985 52.3308C20.8649 52.2665 20.6498 52.18 20.3531 52.0712C20.0217 51.9574 19.7399 51.8412 19.5074 51.7225C19.2799 51.6038 19.0871 51.4431 18.9288 51.2403C18.7755 51.0326 18.6988 50.7779 18.6988 50.4763C18.6988 50.1795 18.7755 49.9199 18.9288 49.6973C19.0821 49.4748 19.2948 49.3042 19.5668 49.1855C19.8388 49.0668 20.1528 49.0075 20.5089 49.0075C20.8847 49.0075 21.2185 49.0742 21.5103 49.2077C21.8071 49.3413 22.037 49.5292 22.2002 49.7715C22.3684 50.0089 22.4524 50.2859 22.4524 50.6024V50.7136C22.4524 50.7384 22.4425 50.7606 22.4228 50.7804C22.4079 50.7952 22.3881 50.8027 22.3634 50.8027H21.5103C21.4856 50.8027 21.4633 50.7952 21.4436 50.7804C21.4287 50.7606 21.4213 50.7384 21.4213 50.7136V50.6543C21.4213 50.4466 21.3348 50.271 21.1617 50.1276C20.9935 49.9792 20.7611 49.9051 20.4644 49.9051C20.2319 49.9051 20.0489 49.9545 19.9154 50.0534C19.7868 50.1523 19.7225 50.2883 19.7225 50.4614C19.7225 50.5851 19.7596 50.6889 19.8338 50.773C19.9129 50.8571 20.0267 50.9337 20.1751 51.0029C20.3284 51.0672 20.5633 51.1563 20.8798 51.27C21.2309 51.3986 21.5054 51.5123 21.7032 51.6112C21.906 51.7101 22.0865 51.8585 22.2447 52.0563C22.4079 52.2492 22.4895 52.5014 22.4895 52.813C22.4895 53.2779 22.3189 53.6463 21.9777 53.9183C21.6364 54.1853 21.174 54.3189 20.5905 54.3189ZM25.1061 54.3189C24.7253 54.3189 24.389 54.2447 24.0972 54.0963C23.8104 53.948 23.5854 53.7402 23.4222 53.4732C23.2639 53.2012 23.1848 52.8896 23.1848 52.5385V49.1558C23.1848 49.1311 23.1922 49.1113 23.2071 49.0965C23.2268 49.0767 23.2491 49.0668 23.2738 49.0668H24.1417C24.1665 49.0668 24.1863 49.0767 24.2011 49.0965C24.2209 49.1113 24.2308 49.1311 24.2308 49.1558V52.5459C24.2308 52.808 24.3099 53.0207 24.4681 53.1839C24.6313 53.3421 24.844 53.4213 25.1061 53.4213C25.3682 53.4213 25.5784 53.3421 25.7367 53.1839C25.8999 53.0207 25.9815 52.808 25.9815 52.5459V49.1558C25.9815 49.1311 25.9889 49.1113 26.0037 49.0965C26.0235 49.0767 26.0457 49.0668 26.0705 49.0668H26.9384C26.9631 49.0668 26.9829 49.0767 26.9977 49.0965C27.0175 49.1113 27.0274 49.1311 27.0274 49.1558V52.5385C27.0274 52.8896 26.9458 53.2012 26.7826 53.4732C26.6244 53.7402 26.3993 53.948 26.1076 54.0963C25.8207 54.2447 25.4869 54.3189 25.1061 54.3189ZM30.7358 54.2595C30.6864 54.2595 30.6517 54.2373 30.632 54.1928L29.7047 52.1379C29.6948 52.1181 29.68 52.1083 29.6602 52.1083H28.9703C28.9456 52.1083 28.9332 52.1206 28.9332 52.1453V54.1705C28.9332 54.1952 28.9233 54.2175 28.9035 54.2373C28.8887 54.2521 28.8689 54.2595 28.8442 54.2595H27.9762C27.9515 54.2595 27.9293 54.2521 27.9095 54.2373C27.8946 54.2175 27.8872 54.1952 27.8872 54.1705V49.1558C27.8872 49.1311 27.8946 49.1113 27.9095 49.0965C27.9293 49.0767 27.9515 49.0668 27.9762 49.0668H30.0978C30.4144 49.0668 30.6913 49.1311 30.9287 49.2597C31.171 49.3883 31.3565 49.5712 31.485 49.8086C31.6186 50.046 31.6853 50.3205 31.6853 50.632C31.6853 50.9683 31.6013 51.2576 31.4331 51.5C31.265 51.7373 31.0301 51.9055 30.7284 52.0044C30.7037 52.0143 30.6962 52.0316 30.7061 52.0563L31.715 54.1557C31.7249 54.1754 31.7298 54.1903 31.7298 54.2002C31.7298 54.2397 31.7026 54.2595 31.6482 54.2595H30.7358ZM28.9703 49.9644C28.9456 49.9644 28.9332 49.9768 28.9332 50.0015V51.27C28.9332 51.2947 28.9456 51.3071 28.9703 51.3071H29.9421C30.1498 51.3071 30.3179 51.2453 30.4465 51.1216C30.58 50.998 30.6468 50.8373 30.6468 50.6395C30.6468 50.4416 30.58 50.2809 30.4465 50.1573C30.3179 50.0287 30.1498 49.9644 29.9421 49.9644H28.9703ZM34.2688 54.3189C33.888 54.3189 33.5517 54.2422 33.2599 54.0889C32.9681 53.9356 32.7406 53.7229 32.5774 53.4509C32.4192 53.174 32.34 52.855 32.34 52.494V50.8323C32.34 50.4713 32.4192 50.1523 32.5774 49.8754C32.7406 49.5984 32.9681 49.3858 33.2599 49.2374C33.5517 49.0841 33.888 49.0075 34.2688 49.0075C34.6446 49.0075 34.976 49.0816 35.2628 49.23C35.5546 49.3784 35.7796 49.5811 35.9379 49.8383C36.1011 50.0905 36.1827 50.3724 36.1827 50.684V50.7359C36.1827 50.7606 36.1728 50.7829 36.153 50.8027C36.1381 50.8175 36.1184 50.8249 36.0936 50.8249H35.2257C35.201 50.8249 35.1787 50.8175 35.1589 50.8027C35.1441 50.7829 35.1367 50.7606 35.1367 50.7359V50.7136C35.1367 50.4861 35.0576 50.2957 34.8993 50.1424C34.7411 49.9842 34.5309 49.9051 34.2688 49.9051C34.0017 49.9051 33.7866 49.9891 33.6234 50.1573C33.4651 50.3205 33.386 50.5356 33.386 50.8027V52.5237C33.386 52.7907 33.4726 53.0083 33.6456 53.1765C33.8187 53.3397 34.0388 53.4213 34.3059 53.4213C34.563 53.4213 34.7683 53.3545 34.9216 53.221C35.0749 53.0825 35.1515 52.8921 35.1515 52.6498V52.316C35.1515 52.2912 35.1392 52.2789 35.1144 52.2789H34.2836C34.2589 52.2789 34.2366 52.2715 34.2168 52.2566C34.202 52.2368 34.1946 52.2146 34.1946 52.1899V51.5074C34.1946 51.4827 34.202 51.4629 34.2168 51.448C34.2366 51.4283 34.2589 51.4184 34.2836 51.4184H36.0936C36.1184 51.4184 36.1381 51.4283 36.153 51.448C36.1728 51.4629 36.1827 51.4827 36.1827 51.5074V52.4866C36.1827 52.8624 36.1035 53.1888 35.9453 53.4658C35.787 53.7427 35.562 53.9554 35.2702 54.1037C34.9834 54.2472 34.6496 54.3189 34.2688 54.3189ZM40.5913 49.8754C40.5913 49.9001 40.5814 49.9224 40.5616 49.9421C40.5468 49.957 40.527 49.9644 40.5023 49.9644H38.0691C38.0444 49.9644 38.032 49.9768 38.032 50.0015V51.1513C38.032 51.176 38.0444 51.1884 38.0691 51.1884H39.664C39.6888 51.1884 39.7086 51.1983 39.7234 51.2181C39.7432 51.2329 39.7531 51.2527 39.7531 51.2774V51.997C39.7531 52.0217 39.7432 52.044 39.7234 52.0637C39.7086 52.0786 39.6888 52.086 39.664 52.086H38.0691C38.0444 52.086 38.032 52.0984 38.032 52.1231V53.3248C38.032 53.3496 38.0444 53.3619 38.0691 53.3619H40.5023C40.527 53.3619 40.5468 53.3718 40.5616 53.3916C40.5814 53.4064 40.5913 53.4262 40.5913 53.4509V54.1705C40.5913 54.1952 40.5814 54.2175 40.5616 54.2373C40.5468 54.2521 40.527 54.2595 40.5023 54.2595H37.0751C37.0504 54.2595 37.0281 54.2521 37.0083 54.2373C36.9935 54.2175 36.9861 54.1952 36.9861 54.1705V49.1558C36.9861 49.1311 36.9935 49.1113 37.0083 49.0965C37.0281 49.0767 37.0504 49.0668 37.0751 49.0668H40.5023C40.527 49.0668 40.5468 49.0767 40.5616 49.0965C40.5814 49.1113 40.5913 49.1311 40.5913 49.1558V49.8754Z" fill="#1C307A"/>
<path d="M6.84872 7.82623C6.84872 7.8015 6.85613 7.78172 6.87097 7.76688C6.89075 7.7471 6.91301 7.73721 6.93773 7.73721H7.80566C7.83039 7.73721 7.85017 7.7471 7.86501 7.76688C7.88479 7.78172 7.89468 7.8015 7.89468 7.82623V12.8409C7.89468 12.8656 7.88479 12.8879 7.86501 12.9077C7.85017 12.9225 7.83039 12.9299 7.80566 12.9299H6.93773C6.91301 12.9299 6.89075 12.9225 6.87097 12.9077C6.85613 12.8879 6.84872 12.8656 6.84872 12.8409V10.7935C6.84872 10.7688 6.83635 10.7564 6.81163 10.7564H5.17221C5.14748 10.7564 5.13512 10.7688 5.13512 10.7935V12.8409C5.13512 12.8656 5.12523 12.8879 5.10545 12.9077C5.09061 12.9225 5.07083 12.9299 5.0461 12.9299H4.17817C4.15345 12.9299 4.13119 12.9225 4.11141 12.9077C4.09657 12.8879 4.08916 12.8656 4.08916 12.8409V7.82623C4.08916 7.8015 4.09657 7.78172 4.11141 7.76688C4.13119 7.7471 4.15345 7.73721 4.17817 7.73721H5.0461C5.07083 7.73721 5.09061 7.7471 5.10545 7.76688C5.12523 7.78172 5.13512 7.8015 5.13512 7.82623V9.82172C5.13512 9.84644 5.14748 9.85881 5.17221 9.85881H6.81163C6.83635 9.85881 6.84872 9.84644 6.84872 9.82172V7.82623ZM10.5944 13.0115C10.2086 13.0115 9.86739 12.9324 9.57066 12.7742C9.27888 12.6159 9.05139 12.3958 8.88819 12.1139C8.72499 11.8271 8.64339 11.4982 8.64339 11.1273V9.53983C8.64339 9.17386 8.72499 8.84994 8.88819 8.56805C9.05139 8.28616 9.27888 8.06856 9.57066 7.91525C9.86739 7.75699 10.2086 7.67787 10.5944 7.67787C10.9851 7.67787 11.3263 7.75699 11.6181 7.91525C11.9148 8.06856 12.1448 8.28616 12.308 8.56805C12.4712 8.84994 12.5528 9.17386 12.5528 9.53983V11.1273C12.5528 11.4982 12.4712 11.8271 12.308 12.1139C12.1448 12.4008 11.9148 12.6233 11.6181 12.7816C11.3263 12.9349 10.9851 13.0115 10.5944 13.0115ZM10.5944 12.1139C10.8664 12.1139 11.0864 12.0274 11.2546 11.8543C11.4227 11.6812 11.5068 11.4512 11.5068 11.1644V9.53241C11.5068 9.24557 11.4227 9.01561 11.2546 8.84252C11.0914 8.66448 10.8713 8.57546 10.5944 8.57546C10.3224 8.57546 10.1023 8.66448 9.93415 8.84252C9.77095 9.01561 9.68935 9.24557 9.68935 9.53241V11.1644C9.68935 11.4512 9.77095 11.6812 9.93415 11.8543C10.1023 12.0274 10.3224 12.1139 10.5944 12.1139ZM15.135 12.9893C14.7394 12.9893 14.3932 12.9275 14.0964 12.8038C13.7997 12.6752 13.5698 12.4947 13.4066 12.2623C13.2483 12.0249 13.1692 11.7504 13.1692 11.4389V11.2757C13.1692 11.251 13.1766 11.2312 13.1914 11.2163C13.2112 11.1966 13.2335 11.1867 13.2582 11.1867H14.1039C14.1286 11.1867 14.1484 11.1966 14.1632 11.2163C14.183 11.2312 14.1929 11.251 14.1929 11.2757V11.387C14.1929 11.5848 14.2844 11.7529 14.4674 11.8914C14.6503 12.0249 14.8976 12.0917 15.2092 12.0917C15.4713 12.0917 15.6666 12.0373 15.7952 11.9285C15.9238 11.8147 15.9881 11.6763 15.9881 11.5131C15.9881 11.3944 15.9485 11.2955 15.8694 11.2163C15.7903 11.1323 15.6815 11.0606 15.543 11.0012C15.4095 10.9369 15.1943 10.8504 14.8976 10.7416C14.5663 10.6278 14.2844 10.5116 14.0519 10.3929C13.8244 10.2742 13.6316 10.1135 13.4733 9.91074C13.32 9.70303 13.2434 9.44834 13.2434 9.14666C13.2434 8.84994 13.32 8.5903 13.4733 8.36776C13.6266 8.14521 13.8393 7.97459 14.1113 7.8559C14.3833 7.73721 14.6973 7.67787 15.0534 7.67787C15.4292 7.67787 15.7631 7.74463 16.0548 7.87816C16.3516 8.01168 16.5815 8.19961 16.7447 8.44194C16.9129 8.67932 16.9969 8.95626 16.9969 9.27277V9.38405C16.9969 9.40877 16.9871 9.43103 16.9673 9.45081C16.9524 9.46565 16.9327 9.47306 16.9079 9.47306H16.0548C16.0301 9.47306 16.0079 9.46565 15.9881 9.45081C15.9732 9.43103 15.9658 9.40877 15.9658 9.38405V9.3247C15.9658 9.11699 15.8793 8.94143 15.7062 8.79801C15.538 8.64965 15.3056 8.57546 15.0089 8.57546C14.7764 8.57546 14.5935 8.62492 14.4599 8.72383C14.3314 8.82274 14.2671 8.95874 14.2671 9.13183C14.2671 9.25546 14.3042 9.35932 14.3783 9.44339C14.4575 9.52746 14.5712 9.60412 14.7196 9.67335C14.8729 9.73765 15.1078 9.82666 15.4243 9.94041C15.7754 10.069 16.0499 10.1827 16.2477 10.2816C16.4505 10.3806 16.631 10.5289 16.7892 10.7267C16.9524 10.9196 17.034 11.1718 17.034 11.4834C17.034 11.9483 16.8634 12.3167 16.5222 12.5887C16.181 12.8557 15.7186 12.9893 15.135 12.9893ZM21.2914 7.73721C21.3162 7.73721 21.3359 7.7471 21.3508 7.76688C21.3706 7.78172 21.3805 7.8015 21.3805 7.82623V8.55321C21.3805 8.57794 21.3706 8.60019 21.3508 8.61997C21.3359 8.63481 21.3162 8.64223 21.2914 8.64223H19.9636C19.9389 8.64223 19.9265 8.65459 19.9265 8.67932V12.8409C19.9265 12.8656 19.9166 12.8879 19.8968 12.9077C19.882 12.9225 19.8622 12.9299 19.8375 12.9299H18.9695C18.9448 12.9299 18.9226 12.9225 18.9028 12.9077C18.8879 12.8879 18.8805 12.8656 18.8805 12.8409V8.67932C18.8805 8.65459 18.8682 8.64223 18.8434 8.64223H17.5527C17.5279 8.64223 17.5057 8.63481 17.4859 8.61997C17.4711 8.60019 17.4637 8.57794 17.4637 8.55321V7.82623C17.4637 7.8015 17.4711 7.78172 17.4859 7.76688C17.5057 7.7471 17.5279 7.73721 17.5527 7.73721H21.2914ZM25.653 8.54579C25.653 8.57052 25.6431 8.59277 25.6234 8.61256C25.6085 8.62739 25.5887 8.63481 25.564 8.63481H23.1308C23.1061 8.63481 23.0938 8.64717 23.0938 8.6719V9.82172C23.0938 9.84644 23.1061 9.85881 23.1308 9.85881H24.7258C24.7505 9.85881 24.7703 9.8687 24.7851 9.88848C24.8049 9.90332 24.8148 9.9231 24.8148 9.94783V10.6674C24.8148 10.6921 24.8049 10.7144 24.7851 10.7342C24.7703 10.749 24.7505 10.7564 24.7258 10.7564H23.1308C23.1061 10.7564 23.0938 10.7688 23.0938 10.7935V11.9952C23.0938 12.02 23.1061 12.0323 23.1308 12.0323H25.564C25.5887 12.0323 25.6085 12.0422 25.6234 12.062C25.6431 12.0768 25.653 12.0966 25.653 12.1214V12.8409C25.653 12.8656 25.6431 12.8879 25.6234 12.9077C25.6085 12.9225 25.5887 12.9299 25.564 12.9299H22.1368C22.1121 12.9299 22.0898 12.9225 22.0701 12.9077C22.0552 12.8879 22.0478 12.8656 22.0478 12.8409V7.82623C22.0478 7.8015 22.0552 7.78172 22.0701 7.76688C22.0898 7.7471 22.1121 7.73721 22.1368 7.73721H25.564C25.5887 7.73721 25.6085 7.7471 25.6234 7.76688C25.6431 7.78172 25.653 7.8015 25.653 7.82623V8.54579ZM26.4689 12.9299C26.4442 12.9299 26.4219 12.9225 26.4021 12.9077C26.3873 12.8879 26.3799 12.8656 26.3799 12.8409V7.82623C26.3799 7.8015 26.3873 7.78172 26.4021 7.76688C26.4219 7.7471 26.4442 7.73721 26.4689 7.73721H28.3235C28.6944 7.73721 29.0183 7.80397 29.2952 7.9375C29.5771 8.06608 29.7947 8.24907 29.948 8.48645C30.1013 8.72383 30.178 8.9983 30.178 9.30986V11.3573C30.178 11.6688 30.1013 11.9433 29.948 12.1807C29.7947 12.4181 29.5771 12.6035 29.2952 12.7371C29.0183 12.8656 28.6944 12.9299 28.3235 12.9299H26.4689ZM27.4259 11.9952C27.4259 12.02 27.4382 12.0323 27.4629 12.0323H28.3605C28.588 12.0323 28.771 11.9557 28.9095 11.8024C29.0529 11.6491 29.1271 11.4438 29.132 11.1867V9.48048C29.132 9.22332 29.0603 9.01808 28.9169 8.86477C28.7784 8.71146 28.5905 8.63481 28.3531 8.63481H27.4629C27.4382 8.63481 27.4259 8.64717 27.4259 8.6719V11.9952ZM35.5292 10.2223C35.4995 10.2371 35.4995 10.252 35.5292 10.2668C35.999 10.5091 36.2339 10.9122 36.2339 11.476C36.2339 11.9557 36.0707 12.3192 35.7443 12.5664C35.4179 12.8088 34.9901 12.9299 34.4609 12.9299H32.5396C32.5149 12.9299 32.4927 12.9225 32.4729 12.9077C32.458 12.8879 32.4506 12.8656 32.4506 12.8409V7.82623C32.4506 7.8015 32.458 7.78172 32.4729 7.76688C32.4927 7.7471 32.5149 7.73721 32.5396 7.73721H34.4016C35.5737 7.73721 36.1597 8.21197 36.1597 9.1615C36.1597 9.65605 35.9495 10.0096 35.5292 10.2223ZM33.5337 8.63481C33.5089 8.63481 33.4966 8.64717 33.4966 8.6719V9.82914C33.4966 9.85386 33.5089 9.86623 33.5337 9.86623H34.4016C34.634 9.86623 34.8145 9.81183 34.9431 9.70303C35.0717 9.59423 35.136 9.44586 35.136 9.25794C35.136 9.06506 35.0717 8.91423 34.9431 8.80543C34.8145 8.69168 34.634 8.63481 34.4016 8.63481H33.5337ZM34.4609 12.0249C34.6884 12.0249 34.8665 11.968 34.9951 11.8543C35.1236 11.7356 35.1879 11.5749 35.1879 11.3721C35.1879 11.1694 35.1236 11.0111 34.9951 10.8974C34.8665 10.7787 34.686 10.7193 34.4535 10.7193H33.5337C33.5089 10.7193 33.4966 10.7317 33.4966 10.7564V11.9878C33.4966 12.0126 33.5089 12.0249 33.5337 12.0249H34.4609ZM38.1485 12.9225C38.1238 12.9225 38.1016 12.9151 38.0818 12.9003C38.0669 12.8805 38.0595 12.8582 38.0595 12.8335V10.9567C38.0595 10.9369 38.057 10.9221 38.0521 10.9122L36.524 7.84107C36.5141 7.82128 36.5091 7.80645 36.5091 7.79656C36.5091 7.75699 36.5363 7.73721 36.5907 7.73721H37.5254C37.5749 7.73721 37.6095 7.75947 37.6293 7.80397L38.5565 9.77721C38.5714 9.80688 38.5862 9.80688 38.601 9.77721L39.5283 7.80397C39.5481 7.75947 39.5827 7.73721 39.6322 7.73721H40.5817C40.6163 7.73721 40.6386 7.7471 40.6485 7.76688C40.6633 7.78172 40.6633 7.80645 40.6485 7.84107L39.1055 10.9122C39.1005 10.9221 39.0981 10.9369 39.0981 10.9567V12.8335C39.0981 12.8582 39.0882 12.8805 39.0684 12.9003C39.0536 12.9151 39.0338 12.9225 39.009 12.9225H38.1485Z" fill="#568CDB"/>
<path d="M9.89372 60.8174C9.88207 60.8368 9.88595 60.8465 9.90538 60.8465H11.7355C11.7744 60.8465 11.7938 60.8659 11.7938 60.9048V61.1496C11.7938 61.1885 11.7744 61.2079 11.7355 61.2079H9.40995C9.3711 61.2079 9.35167 61.1885 9.35167 61.1496V60.9048C9.35167 60.8776 9.36138 60.8543 9.38081 60.8349C9.51292 60.6794 9.81018 60.3142 10.2726 59.7391L10.7039 59.2029C11.0692 58.7405 11.2518 58.381 11.2518 58.1246C11.2518 57.9186 11.1818 57.7535 11.042 57.6291C10.9021 57.5048 10.7194 57.4426 10.4941 57.4426C10.2726 57.4426 10.0938 57.5067 9.95784 57.635C9.82184 57.7593 9.75578 57.9245 9.75967 58.1304V58.3111C9.75967 58.3499 9.74024 58.3694 9.70138 58.3694H9.3983C9.35944 58.3694 9.34001 58.3499 9.34001 58.3111V58.0779C9.34778 57.7787 9.45852 57.5378 9.67224 57.3552C9.88984 57.1726 10.1638 57.0813 10.4941 57.0813C10.7272 57.0813 10.9332 57.1259 11.1119 57.2153C11.2906 57.3047 11.4286 57.429 11.5257 57.5883C11.6229 57.7438 11.6714 57.9206 11.6714 58.1187C11.6714 58.449 11.4888 58.8473 11.1236 59.3136C10.9332 59.5584 10.566 60.0091 10.022 60.6658L9.89372 60.8174ZM13.7705 61.2662C13.3975 61.2662 13.1002 61.1593 12.8787 60.9456C12.6572 60.7319 12.5465 60.4463 12.5465 60.0888V58.247C12.5465 57.8895 12.6572 57.6058 12.8787 57.396C13.1002 57.1823 13.3975 57.0754 13.7705 57.0754C14.1474 57.0754 14.4485 57.1823 14.6739 57.396C14.8993 57.6097 15.012 57.8934 15.012 58.247V60.0888C15.012 60.4463 14.8993 60.7319 14.6739 60.9456C14.4485 61.1593 14.1474 61.2662 13.7705 61.2662ZM13.7705 60.9048C14.0192 60.9048 14.2193 60.8329 14.3708 60.6891C14.5224 60.5454 14.5981 60.353 14.5981 60.1121V58.2295C14.5981 57.9925 14.5224 57.8021 14.3708 57.6583C14.2232 57.5145 14.0231 57.4426 13.7705 57.4426C13.5257 57.4426 13.3295 57.5145 13.1818 57.6583C13.0342 57.8021 12.9603 57.9925 12.9603 58.2295V60.1121C12.9603 60.353 13.0342 60.5454 13.1818 60.6891C13.3295 60.8329 13.5257 60.9048 13.7705 60.9048ZM16.3143 60.8174C16.3026 60.8368 16.3065 60.8465 16.3259 60.8465H18.1561C18.1949 60.8465 18.2144 60.8659 18.2144 60.9048V61.1496C18.2144 61.1885 18.1949 61.2079 18.1561 61.2079H15.8305C15.7916 61.2079 15.7722 61.1885 15.7722 61.1496V60.9048C15.7722 60.8776 15.7819 60.8543 15.8013 60.8349C15.9335 60.6794 16.2307 60.3142 16.6931 59.7391L17.1244 59.2029C17.4897 58.7405 17.6723 58.381 17.6723 58.1246C17.6723 57.9186 17.6024 57.7535 17.4625 57.6291C17.3226 57.5048 17.14 57.4426 16.9146 57.4426C16.6931 57.4426 16.5144 57.5067 16.3784 57.635C16.2424 57.7593 16.1763 57.9245 16.1802 58.1304V58.3111C16.1802 58.3499 16.1608 58.3694 16.1219 58.3694H15.8188C15.78 58.3694 15.7605 58.3499 15.7605 58.3111V58.0779C15.7683 57.7787 15.8791 57.5378 16.0928 57.3552C16.3104 57.1726 16.5843 57.0813 16.9146 57.0813C17.1477 57.0813 17.3537 57.1259 17.5324 57.2153C17.7112 57.3047 17.8491 57.429 17.9462 57.5883C18.0434 57.7438 18.092 57.9206 18.092 58.1187C18.092 58.449 17.9093 58.8473 17.5441 59.3136C17.3537 59.5584 16.9865 60.0091 16.4425 60.6658L16.3143 60.8174ZM20.191 61.2662C19.818 61.2662 19.5207 61.1593 19.2992 60.9456C19.0778 60.7319 18.967 60.4463 18.967 60.0888V58.247C18.967 57.8895 19.0778 57.6058 19.2992 57.396C19.5207 57.1823 19.818 57.0754 20.191 57.0754C20.5679 57.0754 20.8691 57.1823 21.0944 57.396C21.3198 57.6097 21.4325 57.8934 21.4325 58.247V60.0888C21.4325 60.4463 21.3198 60.7319 21.0944 60.9456C20.8691 61.1593 20.5679 61.2662 20.191 61.2662ZM20.191 60.9048C20.4397 60.9048 20.6398 60.8329 20.7914 60.6891C20.9429 60.5454 21.0187 60.353 21.0187 60.1121V58.2295C21.0187 57.9925 20.9429 57.8021 20.7914 57.6583C20.6437 57.5145 20.4436 57.4426 20.191 57.4426C19.9462 57.4426 19.75 57.5145 19.6023 57.6583C19.4547 57.8021 19.3808 57.9925 19.3808 58.2295V60.1121C19.3808 60.353 19.4547 60.5454 19.6023 60.6891C19.75 60.8329 19.9462 60.9048 20.191 60.9048ZM22.0878 61.2079C22.0451 61.2079 22.0295 61.1865 22.0412 61.1438L23.3293 57.1745C23.3409 57.1434 23.3643 57.1279 23.3992 57.1279H23.6907C23.7334 57.1279 23.7489 57.1493 23.7373 57.192L22.4492 61.1613C22.4375 61.1923 22.4142 61.2079 22.3792 61.2079H22.0878ZM25.0685 60.8174C25.0568 60.8368 25.0607 60.8465 25.0801 60.8465H26.9103C26.9492 60.8465 26.9686 60.8659 26.9686 60.9048V61.1496C26.9686 61.1885 26.9492 61.2079 26.9103 61.2079H24.5847C24.5459 61.2079 24.5264 61.1885 24.5264 61.1496V60.9048C24.5264 60.8776 24.5361 60.8543 24.5556 60.8349C24.6877 60.6794 24.9849 60.3142 25.4473 59.7391L25.8786 59.2029C26.2439 58.7405 26.4265 58.381 26.4265 58.1246C26.4265 57.9186 26.3566 57.7535 26.2167 57.6291C26.0768 57.5048 25.8942 57.4426 25.6688 57.4426C25.4473 57.4426 25.2686 57.5067 25.1326 57.635C24.9966 57.7593 24.9305 57.9245 24.9344 58.1304V58.3111C24.9344 58.3499 24.915 58.3694 24.8761 58.3694H24.5731C24.5342 58.3694 24.5148 58.3499 24.5148 58.3111V58.0779C24.5225 57.7787 24.6333 57.5378 24.847 57.3552C25.0646 57.1726 25.3385 57.0813 25.6688 57.0813C25.902 57.0813 26.1079 57.1259 26.2866 57.2153C26.4654 57.3047 26.6033 57.429 26.7005 57.5883C26.7976 57.7438 26.8462 57.9206 26.8462 58.1187C26.8462 58.449 26.6636 58.8473 26.2983 59.3136C26.1079 59.5584 25.7407 60.0091 25.1967 60.6658L25.0685 60.8174ZM28.9452 61.2662C28.5722 61.2662 28.275 61.1593 28.0535 60.9456C27.832 60.7319 27.7212 60.4463 27.7212 60.0888V58.247C27.7212 57.8895 27.832 57.6058 28.0535 57.396C28.275 57.1823 28.5722 57.0754 28.9452 57.0754C29.3222 57.0754 29.6233 57.1823 29.8487 57.396C30.074 57.6097 30.1867 57.8934 30.1867 58.247V60.0888C30.1867 60.4463 30.074 60.7319 29.8487 60.9456C29.6233 61.1593 29.3222 61.2662 28.9452 61.2662ZM28.9452 60.9048C29.1939 60.9048 29.394 60.8329 29.5456 60.6891C29.6971 60.5454 29.7729 60.353 29.7729 60.1121V58.2295C29.7729 57.9925 29.6971 57.8021 29.5456 57.6583C29.3979 57.5145 29.1978 57.4426 28.9452 57.4426C28.7004 57.4426 28.5042 57.5145 28.3566 57.6583C28.2089 57.8021 28.1351 57.9925 28.1351 58.2295V60.1121C28.1351 60.353 28.2089 60.5454 28.3566 60.6891C28.5042 60.8329 28.7004 60.9048 28.9452 60.9048ZM31.489 60.8174C31.4773 60.8368 31.4812 60.8465 31.5007 60.8465H33.3308C33.3697 60.8465 33.3891 60.8659 33.3891 60.9048V61.1496C33.3891 61.1885 33.3697 61.2079 33.3308 61.2079H31.0052C30.9664 61.2079 30.9469 61.1885 30.9469 61.1496V60.9048C30.9469 60.8776 30.9567 60.8543 30.9761 60.8349C31.1082 60.6794 31.4055 60.3142 31.8679 59.7391L32.2992 59.2029C32.6644 58.7405 32.8471 58.381 32.8471 58.1246C32.8471 57.9186 32.7771 57.7535 32.6372 57.6291C32.4973 57.5048 32.3147 57.4426 32.0893 57.4426C31.8679 57.4426 31.6891 57.5067 31.5531 57.635C31.4171 57.7593 31.3511 57.9245 31.3549 58.1304V58.3111C31.3549 58.3499 31.3355 58.3694 31.2967 58.3694H30.9936C30.9547 58.3694 30.9353 58.3499 30.9353 58.3111V58.0779C30.9431 57.7787 31.0538 57.5378 31.2675 57.3552C31.4851 57.1726 31.7591 57.0813 32.0893 57.0813C32.3225 57.0813 32.5284 57.1259 32.7072 57.2153C32.8859 57.3047 33.0239 57.429 33.121 57.5883C33.2181 57.7438 33.2667 57.9206 33.2667 58.1187C33.2667 58.449 33.0841 58.8473 32.7188 59.3136C32.5284 59.5584 32.1612 60.0091 31.6172 60.6658L31.489 60.8174ZM34.6974 57.1454C34.7207 57.1337 34.746 57.1279 34.7732 57.1279H35.0879C35.1268 57.1279 35.1462 57.1473 35.1462 57.1862V61.1496C35.1462 61.1885 35.1268 61.2079 35.0879 61.2079H34.7907C34.7518 61.2079 34.7324 61.1885 34.7324 61.1496V57.6C34.7324 57.5922 34.7285 57.5864 34.7207 57.5825C34.7168 57.5786 34.711 57.5786 34.7032 57.5825L34.0854 57.8331L34.0621 57.839C34.0388 57.839 34.0232 57.8234 34.0155 57.7923L33.9863 57.5709V57.5592C33.9863 57.5398 33.9999 57.5203 34.0271 57.5009L34.6974 57.1454Z" fill="#1C307A"/>
<defs>
<linearGradient id="paint0_linear" x1="24.0491" y1="39.1102" x2="20.3747" y2="32.9081" gradientUnits="userSpaceOnUse">
<stop stop-color="#FAAF40"/>
<stop offset="0.28" stop-color="#FAAB3D"/>
<stop offset="0.57" stop-color="#FC9E34"/>
<stop offset="0.87" stop-color="#FE8A26"/>
<stop offset="1" stop-color="#FF7E1E"/>
</linearGradient>
</defs>
</svg>
