<svg width="100" height="100" viewBox="0 0 100 100" fill="none" xmlns="http://www.w3.org/2000/svg">
<path d="M5 18.5C5 16.0147 7.01472 14 9.5 14H90.5C92.9853 14 95 16.0147 95 18.5V81.5C95 83.9853 92.9853 86 90.5 86H9.5C7.01472 86 5 83.9853 5 81.5V18.5Z" fill="#5A60F3"/>
<rect x="11.3008" y="20.2998" width="77.4" height="59.4" fill="#222222"/>
<path d="M15.0981 29.9132C15.0605 29.9321 15.0322 29.9415 15.0134 29.9415C14.9381 29.9415 14.9004 29.8897 14.9004 29.7861V28.2326C14.9004 28.1384 14.9428 28.0725 15.0275 28.0349L18.7984 26.5096C18.8549 26.4813 18.8549 26.4531 18.7984 26.4248L15.0275 24.8854C14.9428 24.8384 14.9004 24.7724 14.9004 24.6877V23.1483C14.9004 23.0824 14.9192 23.04 14.9569 23.0212C14.9945 22.9929 15.0416 22.9929 15.0981 23.0212L20.818 25.5492C20.9027 25.5869 20.9451 25.6528 20.9451 25.7469V27.1875C20.9451 27.2722 20.9027 27.3381 20.818 27.3852L15.0981 29.9132Z" fill="white"/>
<path d="M23.1699 31.8481C23.1228 31.8481 23.0804 31.834 23.0428 31.8057C23.0145 31.7681 23.0004 31.7257 23.0004 31.6786V30.5064C23.0004 30.4593 23.0145 30.4217 23.0428 30.3934C23.0804 30.3558 23.1228 30.3369 23.1699 30.3369H29.6806C29.7277 30.3369 29.7653 30.3558 29.7936 30.3934C29.8313 30.4217 29.8501 30.4593 29.8501 30.5064V31.6786C29.8501 31.7257 29.8313 31.7681 29.7936 31.8057C29.7653 31.834 29.7277 31.8481 29.6806 31.8481H23.1699Z" fill="white"/>
</svg>
