<svg width="375" height="585" viewBox="0 0 375 585" fill="none" xmlns="http://www.w3.org/2000/svg">
<path fill-rule="evenodd" clip-rule="evenodd" d="M148.885 32.164C133.314 21.1356 115.798 13.2475 97.3293 8.94665L78.8092 28.0049C60.5808 25.8194 42.1131 27.6961 24.6705 33.4753L2.67706 18.4683C-14.554 26.4258 -30.1956 37.614 -43.2019 51.49L-35.9078 77.0707C-46.903 91.7769 -54.5358 108.726 -58.2605 126.706L-82.25 138.199C-84.0201 157.135 -82.0309 176.263 -76.569 194.44L-50.7547 200.962C-43.5216 217.854 -32.6867 232.927 -18.9688 245.128L-20.9648 271.627C-5.50387 282.606 12.0124 290.494 30.5908 294.845L49.1109 275.786C67.3393 277.972 85.807 276.095 103.25 270.316L125.131 285.272C142.472 277.365 158.004 266.127 171.01 252.251L163.824 226.719C174.819 212.012 182.452 195.063 186.176 177.083L210.058 165.542C211.828 146.606 209.949 127.527 204.377 109.301L178.675 102.829C171.442 85.9372 160.607 70.8646 146.889 58.6635L148.885 32.164ZM87.2954 100.072C115.827 112.921 128.613 146.609 115.733 175.211C102.853 203.813 69.1518 216.566 40.6204 203.717C11.9789 190.819 -0.80525 157.132 12.0752 128.53C24.9556 99.9281 58.6538 87.1738 87.2954 100.072Z" fill="#F0F0F0"/>
<path fill-rule="evenodd" clip-rule="evenodd" d="M333.846 251.53C322.01 252.36 310.475 255.468 299.895 260.676L298.496 277.142C288.865 283.274 280.72 291.454 274.606 301.107L258.112 302.554C252.958 313.172 249.842 324.718 249.053 336.518L262.642 345.95C263.147 357.358 266.154 368.519 271.447 378.637L264.435 393.619C271.045 403.426 279.539 411.844 289.329 418.437L304.318 411.402C314.454 416.679 325.605 419.66 337.012 420.124L346.494 433.659C358.258 432.849 369.793 429.741 380.445 424.514L381.845 408.047C391.476 401.916 399.62 393.736 405.735 384.083L422.155 382.656C427.381 372.018 430.425 360.492 431.214 348.691L417.696 339.24C417.191 327.833 414.184 316.671 408.891 306.553L415.832 291.591C409.222 281.783 400.801 273.346 390.938 266.773L376.023 273.787C365.887 268.511 354.735 265.529 343.328 265.065L333.846 251.53ZM330.976 308.468C349.765 303.407 369.191 314.575 374.264 333.41C379.338 352.246 368.151 371.661 349.362 376.722C330.501 381.803 311.076 370.634 306.002 351.799C300.929 332.964 312.114 313.549 330.976 308.468Z" fill="#F0F0F0"/>
<path fill-rule="evenodd" clip-rule="evenodd" d="M46.7972 467.892C40.7083 464.151 33.9692 461.632 26.9622 460.477L20.5074 468.052C13.6418 467.681 6.7861 468.835 0.409006 471.421L-8.17736 466.351C-14.4221 469.746 -19.9938 474.31 -24.5149 479.814L-21.163 489.195C-24.9122 494.96 -27.35 501.481 -28.302 508.292L-36.9859 513.174C-37.1841 520.294 -35.9726 527.393 -33.4867 534.053L-23.6801 535.858C-20.5636 541.994 -16.1457 547.362 -10.7206 551.586L-10.8182 561.538C-4.77163 565.262 1.9674 567.782 9.01681 568.953L15.4716 561.377C22.3373 561.748 29.1929 560.595 35.57 558.008L44.1133 563.062C50.4005 559.683 55.9297 555.103 60.4508 549.599L57.1404 540.233C60.8896 534.469 63.3273 527.948 64.2793 521.137L72.9219 516.24C73.12 509.12 71.951 502.036 69.4227 495.361L59.6591 493.571C56.5427 487.436 52.1247 482.068 46.6997 477.844L46.7972 467.892ZM25.4421 494.777C36.419 498.88 42.0218 511.157 37.9081 522.161C33.7944 533.165 21.5121 538.756 10.5352 534.652C-0.484029 530.533 -6.08586 518.256 -1.97215 507.252C2.14157 496.248 14.4229 490.657 25.4421 494.777Z" fill="#F0F0F0"/>
</svg>
