<svg width="98" height="101" viewBox="0 0 98 101" fill="none" xmlns="http://www.w3.org/2000/svg">
<circle r="7.5" transform="matrix(1 0 0 -1 18 45)" stroke="#5A60F3" stroke-width="5"/>
<circle r="2.5" transform="matrix(1 0 0 -1 91 58)" stroke="#5A60F3" stroke-width="5"/>
<circle r="2.5" transform="matrix(1 0 0 -1 5 80)" stroke="#5A60F3" stroke-width="5"/>
<circle r="12.5" transform="matrix(1 0 0 -1 54 86)" stroke="#5A60F3" stroke-width="5"/>
<circle r="22.5" transform="matrix(1 0 0 -1 64 25)" stroke="#5A60F3" stroke-width="5"/>
<circle r="2.5" transform="matrix(1 0 0 -1 10 14)" stroke="#5A60F3" stroke-width="5"/>
<circle r="2.5" transform="matrix(1 0 0 -1 93 94)" stroke="#5A60F3" stroke-width="5"/>
<path d="M16 52.5L5 79" stroke="#5A60F3" stroke-width="3"/>
<path d="M90.5 58.4999L65 82.7297" stroke="#5A60F3" stroke-width="3"/>
<path d="M68.5013 46.9999L59.0003 74" stroke="#5A60F3" stroke-width="3"/>
<path d="M22.5 51.5L46 76.5" stroke="#5A60F3" stroke-width="3"/>
<path d="M23.9991 40.4998L42.4986 31" stroke="#5A60F3" stroke-width="3"/>
</svg>
