<svg width="740" height="380" viewBox="0 0 740 380" fill="none" xmlns="http://www.w3.org/2000/svg">
<path fill-rule="evenodd" clip-rule="evenodd" d="M185.791 139.364C201.417 111.548 180.512 102.5 158.268 105.893C158.268 105.893 156.341 93.5766 156.09 92.9902C174.732 87.5023 191.488 85.9523 203.427 90.0158C236.522 105.223 234.427 157.797 141.218 220.593C105.464 244.681 84.0773 254.609 56.6381 244.681C34.8543 252.305 16.0867 250.797 0.921875 238.523C64.053 233.663 149.094 186.996 185.791 139.364ZM42.772 161.358L48.5535 165.337C27.1886 184.901 13.3639 205.428 17.218 220.635C10.9342 203.585 22.4545 182.094 42.772 161.358Z" fill="#5A60F3"/>
<path d="M211.394 224.614C191.834 265.663 148.541 291.936 99.7393 306.398C140.714 307.749 197.42 295.685 223.331 249.451C217.581 253.42 213.941 254.647 208.781 254.364C212.621 245.967 213.327 231.603 211.394 224.614Z" fill="#5A60F3"/>
<path fill-rule="evenodd" clip-rule="evenodd" d="M169.763 299.007C172.664 305.132 175.567 310.935 177.501 315.126C177.824 316.094 177.82 317.061 176.853 317.383C176.208 318.028 175.244 318.028 174.277 317.383L154.286 303.843C159.766 302.553 164.927 300.941 169.763 299.007ZM132.688 289.336L102.383 268.703L117.211 240.978C124.948 237.109 132.363 232.273 139.778 226.793L171.053 241.3L102.704 268.703L149.45 256.13C149.45 256.13 153.321 264.512 158.479 275.151C150.419 280.309 142.037 285.145 132.688 289.336ZM171.053 241.3L144.614 222.924C150.095 218.733 157.837 212.93 165.896 206.482L171.053 241.3ZM159.449 162.316C148.488 171.665 134.62 181.336 123.659 188.429C118.501 191.653 113.346 194.877 108.188 197.778L35.3303 147.486L150.098 95.9042L159.449 162.316Z" fill="#F5B523"/>
<path d="M328.638 167.659C328.638 172.736 327.323 177.406 324.694 181.667C322.155 185.928 318.347 189.328 313.27 191.867C308.283 194.406 302.209 195.675 295.046 195.675C284.257 195.675 275.371 193.046 268.39 187.787C261.409 182.528 257.601 175.184 256.966 165.755H281.718C282.081 169.382 283.35 172.238 285.526 174.323C287.793 176.408 290.649 177.451 294.094 177.451C297.086 177.451 299.443 176.635 301.166 175.003C302.889 173.371 303.75 171.195 303.75 168.475C303.75 166.027 302.934 163.987 301.302 162.355C299.761 160.723 297.811 159.408 295.454 158.411C293.097 157.323 289.833 156.054 285.662 154.603C279.587 152.518 274.601 150.523 270.702 148.619C266.894 146.624 263.585 143.723 260.774 139.915C258.054 136.016 256.694 130.984 256.694 124.819C256.694 119.107 258.145 114.166 261.046 109.995C263.947 105.824 267.937 102.651 273.014 100.475C278.182 98.2084 284.075 97.075 290.694 97.075C301.393 97.075 309.87 99.6137 316.126 104.691C322.473 109.768 326.054 116.75 326.87 125.635H301.71C301.257 122.462 300.078 119.968 298.174 118.155C296.361 116.251 293.867 115.299 290.694 115.299C287.974 115.299 285.753 116.024 284.03 117.475C282.398 118.926 281.582 121.056 281.582 123.867C281.582 126.134 282.307 128.083 283.758 129.715C285.299 131.256 287.203 132.526 289.47 133.523C291.737 134.52 295.001 135.79 299.262 137.331C305.427 139.416 310.459 141.502 314.358 143.587C318.257 145.582 321.611 148.528 324.422 152.427C327.233 156.326 328.638 161.403 328.638 167.659ZM410.583 98.571V117.067H384.471V194.723H361.079V117.067H335.239V98.571H410.583ZM466.082 97.075C475.148 97.075 483.354 99.2057 490.698 103.467C498.132 107.638 503.98 113.486 508.242 121.011C512.503 128.446 514.634 136.878 514.634 146.307C514.634 155.736 512.458 164.214 508.106 171.739C503.844 179.264 497.996 185.158 490.562 189.419C483.218 193.59 475.058 195.675 466.082 195.675C457.106 195.675 448.9 193.59 441.466 189.419C434.122 185.158 428.274 179.264 423.922 171.739C419.66 164.214 417.53 155.736 417.53 146.307C417.53 136.878 419.66 128.446 423.922 121.011C428.274 113.486 434.122 107.638 441.466 103.467C448.9 99.2057 457.106 97.075 466.082 97.075ZM466.082 118.699C458.466 118.699 452.391 121.192 447.858 126.179C443.415 131.075 441.194 137.784 441.194 146.307C441.194 154.739 443.415 161.448 447.858 166.435C452.391 171.422 458.466 173.915 466.082 173.915C473.607 173.915 479.636 171.422 484.17 166.435C488.703 161.448 490.97 154.739 490.97 146.307C490.97 137.875 488.703 131.166 484.17 126.179C479.727 121.192 473.698 118.699 466.082 118.699ZM577.066 194.723L556.258 158.411H550.954V194.723H527.698V98.571H567.41C575.026 98.571 581.464 99.8857 586.722 102.515C591.981 105.144 595.925 108.771 598.554 113.395C601.184 117.928 602.498 123.142 602.498 129.035C602.498 136.016 600.549 141.955 596.65 146.851C592.842 151.747 587.266 155.102 579.922 156.915L602.77 194.723H577.066ZM550.954 142.499H565.37C569.994 142.499 573.394 141.502 575.57 139.507C577.746 137.422 578.834 134.384 578.834 130.395C578.834 126.587 577.701 123.595 575.434 121.419C573.258 119.243 569.904 118.155 565.37 118.155H550.954V142.499ZM722.279 99.251V194.723H699.023V135.019L678.351 194.723H658.223L637.415 134.883V194.723H614.159V99.251H642.583L668.559 165.755L693.991 99.251H722.279ZM342.646 216.571V312.723H319.254V272.603H282.806V312.723H259.55V216.571H282.806V253.835H319.254V216.571H342.646ZM418.196 295.179H382.156L376.172 312.723H351.692L386.916 217.251H413.708L448.932 312.723H424.18L418.196 295.179ZM412.212 277.499L400.244 242.139L388.14 277.499H412.212ZM501.9 215.619C514.14 215.619 524.249 218.838 532.228 225.275C540.297 231.712 545.51 240.416 547.868 251.387H523.252C521.438 246.944 518.628 243.454 514.82 240.915C511.102 238.376 506.66 237.107 501.492 237.107C494.692 237.107 489.206 239.6 485.036 244.587C480.865 249.574 478.78 256.238 478.78 264.579C478.78 272.92 480.865 279.584 485.036 284.571C489.206 289.467 494.692 291.915 501.492 291.915C506.66 291.915 511.102 290.646 514.82 288.107C518.628 285.568 521.438 282.123 523.252 277.771H547.868C545.51 288.651 540.297 297.355 532.228 303.883C524.249 310.32 514.14 313.539 501.9 313.539C492.561 313.539 484.356 311.499 477.284 307.419C470.212 303.248 464.726 297.446 460.828 290.011C457.02 282.576 455.116 274.099 455.116 264.579C455.116 255.059 457.02 246.582 460.828 239.147C464.726 231.712 470.212 225.955 477.284 221.875C484.356 217.704 492.561 215.619 501.9 215.619ZM606.189 263.627L644.949 312.723H616.797L584.157 269.611V312.723H560.901V216.571H584.157V258.867L617.069 216.571H644.949L606.189 263.627ZM723.888 285.659C723.888 290.736 722.573 295.406 719.944 299.667C717.405 303.928 713.597 307.328 708.52 309.867C703.533 312.406 697.459 313.675 690.296 313.675C679.507 313.675 670.621 311.046 663.64 305.787C656.659 300.528 652.851 293.184 652.216 283.755H676.968C677.331 287.382 678.6 290.238 680.776 292.323C683.043 294.408 685.899 295.451 689.344 295.451C692.336 295.451 694.693 294.635 696.416 293.003C698.139 291.371 699 289.195 699 286.475C699 284.027 698.184 281.987 696.552 280.355C695.011 278.723 693.061 277.408 690.704 276.411C688.347 275.323 685.083 274.054 680.912 272.603C674.837 270.518 669.851 268.523 665.952 266.619C662.144 264.624 658.835 261.723 656.024 257.915C653.304 254.016 651.944 248.984 651.944 242.819C651.944 237.107 653.395 232.166 656.296 227.995C659.197 223.824 663.187 220.651 668.264 218.475C673.432 216.208 679.325 215.075 685.944 215.075C696.643 215.075 705.12 217.614 711.376 222.691C717.723 227.768 721.304 234.75 722.12 243.635H696.96C696.507 240.462 695.328 237.968 693.424 236.155C691.611 234.251 689.117 233.299 685.944 233.299C683.224 233.299 681.003 234.024 679.28 235.475C677.648 236.926 676.832 239.056 676.832 241.867C676.832 244.134 677.557 246.083 679.008 247.715C680.549 249.256 682.453 250.526 684.72 251.523C686.987 252.52 690.251 253.79 694.512 255.331C700.677 257.416 705.709 259.502 709.608 261.587C713.507 263.582 716.861 266.528 719.672 270.427C722.483 274.326 723.888 279.403 723.888 285.659Z" fill="#5A60F3"/>
<path d="M275.894 342.372V346.44H265.418V352.884H273.446V356.88H265.418V367.5H260.378V342.372H275.894ZM284.508 346.44V352.74H292.968V356.736H284.508V363.396H294.048V367.5H279.468V342.336H294.048V346.44H284.508ZM312.884 354.612C314.3 354.876 315.464 355.584 316.376 356.736C317.288 357.888 317.744 359.208 317.744 360.696C317.744 362.04 317.408 363.228 316.736 364.26C316.088 365.268 315.14 366.06 313.892 366.636C312.644 367.212 311.168 367.5 309.464 367.5H298.628V342.372H308.996C310.7 342.372 312.164 342.648 313.388 343.2C314.636 343.752 315.572 344.52 316.196 345.504C316.844 346.488 317.168 347.604 317.168 348.852C317.168 350.316 316.772 351.54 315.98 352.524C315.212 353.508 314.18 354.204 312.884 354.612ZM303.668 352.74H308.276C309.476 352.74 310.4 352.476 311.048 351.948C311.696 351.396 312.02 350.616 312.02 349.608C312.02 348.6 311.696 347.82 311.048 347.268C310.4 346.716 309.476 346.44 308.276 346.44H303.668V352.74ZM308.744 363.396C309.968 363.396 310.916 363.108 311.588 362.532C312.284 361.956 312.632 361.14 312.632 360.084C312.632 359.004 312.272 358.164 311.552 357.564C310.832 356.94 309.86 356.628 308.636 356.628H303.668V363.396H308.744ZM334.721 367.5L329.177 357.708H326.801V367.5H321.761V342.372H331.193C333.137 342.372 334.793 342.72 336.161 343.416C337.529 344.088 338.549 345.012 339.221 346.188C339.917 347.34 340.265 348.636 340.265 350.076C340.265 351.732 339.785 353.232 338.825 354.576C337.865 355.896 336.437 356.808 334.541 357.312L340.553 367.5H334.721ZM326.801 353.928H331.013C332.381 353.928 333.401 353.604 334.073 352.956C334.745 352.284 335.081 351.36 335.081 350.184C335.081 349.032 334.745 348.144 334.073 347.52C333.401 346.872 332.381 346.548 331.013 346.548H326.801V353.928ZM349.791 342.372V357.924C349.791 359.628 350.235 360.936 351.123 361.848C352.011 362.736 353.259 363.18 354.867 363.18C356.499 363.18 357.759 362.736 358.647 361.848C359.535 360.936 359.979 359.628 359.979 357.924V342.372H365.055V357.888C365.055 360.024 364.587 361.836 363.651 363.324C362.739 364.788 361.503 365.892 359.943 366.636C358.407 367.38 356.691 367.752 354.795 367.752C352.923 367.752 351.219 367.38 349.683 366.636C348.171 365.892 346.971 364.788 346.083 363.324C345.195 361.836 344.751 360.024 344.751 357.888V342.372H349.791ZM385.333 362.712H375.325L373.669 367.5H368.377L377.413 342.336H383.281L392.317 367.5H386.989L385.333 362.712ZM383.965 358.68L380.329 348.168L376.693 358.68H383.965ZM408.654 367.5L403.11 357.708H400.734V367.5H395.694V342.372H405.126C407.07 342.372 408.726 342.72 410.094 343.416C411.462 344.088 412.482 345.012 413.154 346.188C413.85 347.34 414.198 348.636 414.198 350.076C414.198 351.732 413.718 353.232 412.758 354.576C411.798 355.896 410.37 356.808 408.474 357.312L414.486 367.5H408.654ZM400.734 353.928H404.946C406.314 353.928 407.334 353.604 408.006 352.956C408.678 352.284 409.014 351.36 409.014 350.184C409.014 349.032 408.678 348.144 408.006 347.52C407.334 346.872 406.314 346.548 404.946 346.548H400.734V353.928ZM438.737 342.372L430.241 358.752V367.5H425.201V358.752L416.669 342.372H422.357L427.757 353.856L433.121 342.372H438.737ZM451.23 361.812C453.534 359.892 455.37 358.296 456.738 357.024C458.106 355.728 459.246 354.384 460.158 352.992C461.07 351.6 461.526 350.232 461.526 348.888C461.526 347.664 461.238 346.704 460.662 346.008C460.086 345.312 459.198 344.964 457.998 344.964C456.798 344.964 455.874 345.372 455.226 346.188C454.578 346.98 454.242 348.072 454.218 349.464H449.322C449.418 346.584 450.27 344.4 451.878 342.912C453.51 341.424 455.574 340.68 458.07 340.68C460.806 340.68 462.906 341.412 464.37 342.876C465.834 344.316 466.566 346.224 466.566 348.6C466.566 350.472 466.062 352.26 465.054 353.964C464.046 355.668 462.894 357.156 461.598 358.428C460.302 359.676 458.61 361.188 456.522 362.964H467.142V367.14H449.358V363.396L451.23 361.812ZM470.318 354.036C470.318 349.884 471.062 346.632 472.55 344.28C474.062 341.928 476.558 340.752 480.038 340.752C483.518 340.752 486.002 341.928 487.49 344.28C489.002 346.632 489.758 349.884 489.758 354.036C489.758 358.212 489.002 361.488 487.49 363.864C486.002 366.24 483.518 367.428 480.038 367.428C476.558 367.428 474.062 366.24 472.55 363.864C471.062 361.488 470.318 358.212 470.318 354.036ZM484.79 354.036C484.79 352.26 484.67 350.772 484.43 349.572C484.214 348.348 483.758 347.352 483.062 346.584C482.39 345.816 481.382 345.432 480.038 345.432C478.694 345.432 477.674 345.816 476.978 346.584C476.306 347.352 475.85 348.348 475.61 349.572C475.394 350.772 475.286 352.26 475.286 354.036C475.286 355.86 475.394 357.396 475.61 358.644C475.826 359.868 476.282 360.864 476.978 361.632C477.674 362.376 478.694 362.748 480.038 362.748C481.382 362.748 482.402 362.376 483.098 361.632C483.794 360.864 484.25 359.868 484.466 358.644C484.682 357.396 484.79 355.86 484.79 354.036ZM509.503 352.524V356.772H494.239V352.524H509.503ZM524.742 361.812C527.046 359.892 528.882 358.296 530.25 357.024C531.618 355.728 532.758 354.384 533.67 352.992C534.582 351.6 535.038 350.232 535.038 348.888C535.038 347.664 534.75 346.704 534.174 346.008C533.598 345.312 532.71 344.964 531.51 344.964C530.31 344.964 529.386 345.372 528.738 346.188C528.09 346.98 527.754 348.072 527.73 349.464H522.834C522.93 346.584 523.782 344.4 525.39 342.912C527.022 341.424 529.086 340.68 531.582 340.68C534.318 340.68 536.418 341.412 537.882 342.876C539.346 344.316 540.078 346.224 540.078 348.6C540.078 350.472 539.574 352.26 538.566 353.964C537.558 355.668 536.406 357.156 535.11 358.428C533.814 359.676 532.122 361.188 530.034 362.964H540.654V367.14H522.87V363.396L524.742 361.812ZM543.217 345.9V341.256H551.893V367.5H546.709V345.9H543.217ZM562.956 362.208L558.744 372.324H555.504L557.844 362.208H562.956ZM576.175 361.812C578.479 359.892 580.315 358.296 581.683 357.024C583.051 355.728 584.191 354.384 585.103 352.992C586.015 351.6 586.471 350.232 586.471 348.888C586.471 347.664 586.183 346.704 585.607 346.008C585.031 345.312 584.143 344.964 582.943 344.964C581.743 344.964 580.819 345.372 580.171 346.188C579.523 346.98 579.187 348.072 579.163 349.464H574.267C574.363 346.584 575.215 344.4 576.823 342.912C578.455 341.424 580.519 340.68 583.015 340.68C585.751 340.68 587.851 341.412 589.315 342.876C590.779 344.316 591.511 346.224 591.511 348.6C591.511 350.472 591.007 352.26 589.999 353.964C588.991 355.668 587.839 357.156 586.543 358.428C585.247 359.676 583.555 361.188 581.467 362.964H592.087V367.14H574.303V363.396L576.175 361.812ZM595.263 354.036C595.263 349.884 596.007 346.632 597.495 344.28C599.007 341.928 601.503 340.752 604.983 340.752C608.463 340.752 610.947 341.928 612.435 344.28C613.947 346.632 614.703 349.884 614.703 354.036C614.703 358.212 613.947 361.488 612.435 363.864C610.947 366.24 608.463 367.428 604.983 367.428C601.503 367.428 599.007 366.24 597.495 363.864C596.007 361.488 595.263 358.212 595.263 354.036ZM609.735 354.036C609.735 352.26 609.615 350.772 609.375 349.572C609.159 348.348 608.703 347.352 608.007 346.584C607.335 345.816 606.327 345.432 604.983 345.432C603.639 345.432 602.619 345.816 601.923 346.584C601.251 347.352 600.795 348.348 600.555 349.572C600.339 350.772 600.231 352.26 600.231 354.036C600.231 355.86 600.339 357.396 600.555 358.644C600.771 359.868 601.227 360.864 601.923 361.632C602.619 362.376 603.639 362.748 604.983 362.748C606.327 362.748 607.347 362.376 608.043 361.632C608.739 360.864 609.195 359.868 609.411 358.644C609.627 357.396 609.735 355.86 609.735 354.036ZM620.12 361.812C622.424 359.892 624.26 358.296 625.628 357.024C626.996 355.728 628.136 354.384 629.048 352.992C629.96 351.6 630.416 350.232 630.416 348.888C630.416 347.664 630.128 346.704 629.552 346.008C628.976 345.312 628.088 344.964 626.888 344.964C625.688 344.964 624.764 345.372 624.116 346.188C623.468 346.98 623.132 348.072 623.108 349.464H618.212C618.308 346.584 619.16 344.4 620.768 342.912C622.4 341.424 624.464 340.68 626.96 340.68C629.696 340.68 631.796 341.412 633.26 342.876C634.724 344.316 635.456 346.224 635.456 348.6C635.456 350.472 634.952 352.26 633.944 353.964C632.936 355.668 631.784 357.156 630.488 358.428C629.192 359.676 627.5 361.188 625.412 362.964H636.032V367.14H618.248V363.396L620.12 361.812ZM638.596 345.9V341.256H647.272V367.5H642.088V345.9H638.596Z" fill="#A1ABFF"/>
<path fill-rule="evenodd" clip-rule="evenodd" d="M544.194 4.89122C539.515 1.85788 534.536 9.26601 539.8 13.4252L544.194 4.89122Z" fill="#5A60F3"/>
<path fill-rule="evenodd" clip-rule="evenodd" d="M546.099 35.8076C545.59 41.5337 542.681 48.5676 539.548 53.5457C535.886 59.3143 531.004 61.6613 533.77 64.8938C536.72 68.3072 542.58 63.3938 545.062 60.8032C548.357 57.3601 549.232 50.0859 550.9 43.7118L546.099 35.8076Z" fill="#444BEF"/>
<path fill-rule="evenodd" clip-rule="evenodd" d="M576.948 74.5652C573.882 85.1448 562.604 92.7203 555.326 94.8239C544.129 98.0563 531.409 91.4458 519.934 91.2997C515.213 91.2397 508.213 92.6684 505.295 94.289C518.426 72.1476 540.884 90.8262 541.687 69.4389L576.948 74.5652Z" fill="url(#paint0_linear)"/>
<path d="M576.112 102.452C580.421 103.806 584.399 103.359 584.999 101.452C585.598 99.5458 582.591 96.9022 578.282 95.5476C573.974 94.1931 569.995 94.6405 569.396 96.5469C568.796 98.4534 571.803 101.097 576.112 102.452Z" fill="#444BEF"/>
<path d="M543.062 101.674C538.753 103.029 534.775 102.581 534.175 100.675C533.576 98.7686 536.583 96.125 540.892 94.7704C545.2 93.4158 549.179 93.8632 549.778 95.7697C550.378 97.6762 547.371 100.32 543.062 101.674Z" fill="#444BEF"/>
<path fill-rule="evenodd" clip-rule="evenodd" d="M545.713 35.2277C545.631 51.7669 530.976 86.5979 543.86 96.4568C547.352 99.1278 552.401 98.31 555.139 96.2727C556.63 95.1536 558.744 94.2228 560.597 94.4951C563.793 94.9649 564.99 96.4607 567.22 97.4951C572.318 99.874 577.891 98.4236 580.17 93.2727C583.022 86.8713 580.104 57.625 579.301 45.2751C563.662 18.3671 552.811 16.8718 545.713 35.2277Z" fill="#5A60F3"/>
<path fill-rule="evenodd" clip-rule="evenodd" d="M545.713 35.2275C545.68 41.1956 543.762 49.5452 541.91 58.2439C538.648 73.6521 566.991 39.8458 566.204 27.4959C550.549 0.587874 552.811 16.8716 545.713 35.2275Z" fill="url(#paint1_linear)"/>
<path fill-rule="evenodd" clip-rule="evenodd" d="M580.17 93.2725C582.252 88.6224 566.319 88.1682 553.582 86.9648C548.779 86.5115 538.811 75.2604 538.631 79.1946C538.254 86.7279 539.435 93.0676 543.861 96.4567C547.352 99.1277 552.401 98.3099 555.139 96.2726C556.631 95.1534 558.745 94.2227 560.597 94.4949C563.794 94.9648 564.991 96.4606 567.22 97.495C572.318 99.8739 577.892 98.4235 580.17 93.2725Z" fill="url(#paint2_linear)"/>
<path fill-rule="evenodd" clip-rule="evenodd" d="M560.597 94.4949C563.794 94.9648 566.319 88.1682 553.582 86.9648C548.779 86.5115 538.811 75.2604 538.631 79.1946C538.254 86.7279 539.435 93.0676 543.861 96.4567C547.352 99.1277 552.401 98.3099 555.139 96.2726C556.631 95.1534 558.745 94.2227 560.597 94.4949Z" fill="url(#paint3_linear)"/>
<path fill-rule="evenodd" clip-rule="evenodd" d="M566.205 27.4958C561.451 42.8281 546.287 40.9693 543.025 39.6669C539.075 38.0908 531.501 32.1874 536.058 24.443C537.927 21.2517 536.517 16.8212 537.976 13.2014C543.468 -0.582138 554.107 0.281597 560.123 1.34237C562.319 1.73055 569.483 3.55768 571.762 8.39124C575.925 17.1827 579.286 34.434 579.302 45.2749L566.205 27.4958Z" fill="#5A60F3"/>
<path fill-rule="evenodd" clip-rule="evenodd" d="M566.205 27.4958C565.057 31.2018 567.09 10.8627 565.123 8.79444C563.729 7.33106 569.483 3.55762 571.762 8.39118C574.237 13.6111 576.417 21.8135 577.794 29.8857C578.729 35.4087 579.302 40.8708 579.302 45.2748L566.205 27.4958Z" fill="url(#paint4_linear)"/>
<path d="M561.244 29.0916C560.849 29.2893 560.423 29.2397 560.294 28.9808C560.164 28.7219 560.38 28.3517 560.775 28.1539C561.171 27.9561 561.597 28.0056 561.726 28.2645C561.856 28.5235 561.64 28.8938 561.244 29.0916Z" fill="#16164F"/>
<path d="M535.308 28.5243C535.587 28.7414 535.928 28.7696 536.07 28.5873C536.212 28.4049 536.102 28.0812 535.823 27.864C535.544 27.6469 535.203 27.6186 535.061 27.8009C534.919 27.9832 535.03 28.3071 535.308 28.5243Z" fill="#16164F"/>
<path d="M559.923 32.7506C559.528 32.9483 559.102 32.8987 558.973 32.6398C558.843 32.3809 559.059 32.0107 559.454 31.8129C559.85 31.6151 560.276 31.6646 560.405 31.9235C560.535 32.1825 560.319 32.5528 559.923 32.7506Z" fill="#16164F"/>
<path d="M535.768 31.6022C536.046 31.8194 536.387 31.8475 536.529 31.6652C536.671 31.4829 536.561 31.1591 536.282 30.942C536.004 30.7248 535.663 30.6965 535.52 30.8788C535.378 31.0612 535.489 31.3851 535.768 31.6022Z" fill="#16164F"/>
<path d="M556.182 31.9548C555.786 32.1526 555.361 32.103 555.231 31.8441C555.102 31.5851 555.317 31.215 555.713 31.0172C556.109 30.8194 556.535 30.8689 556.664 31.1278C556.793 31.3868 556.577 31.7571 556.182 31.9548Z" fill="#16164F"/>
<path d="M538.826 31.5705C539.104 31.7877 539.445 31.8159 539.587 31.6335C539.73 31.4512 539.619 31.1274 539.34 30.9103C539.062 30.6931 538.721 30.6648 538.579 30.8472C538.436 31.0295 538.547 31.3534 538.826 31.5705Z" fill="#16164F"/>
<path fill-rule="evenodd" clip-rule="evenodd" d="M545.128 27.7598C546.619 27.8446 548.354 28.5289 548.293 29.6085C548.262 30.1525 547.603 30.8039 547 31.4022C546.41 31.9914 545.876 32.5318 545.137 32.4898C543.647 32.4049 541.806 30.5511 541.868 29.4714C541.929 28.3918 543.638 27.675 545.128 27.7598Z" fill="#16164F"/>
<path fill-rule="evenodd" clip-rule="evenodd" d="M577.236 26.8585C578.285 31.369 577.842 33.5407 579.301 34.0456C581.662 34.8593 588.858 27.0918 591.596 27.2428C595.038 27.4321 594.776 32.3786 593.563 34.2907C590.203 39.6176 579.925 47.6496 580.22 57.6577C579.482 55.9269 578.826 54.1667 578.269 52.3545C576.039 45.1469 575.285 37.1195 577.236 26.8585Z" fill="#5A60F3"/>
<path d="M537.627 21.2612C537.627 22.0308 538.25 22.6549 539.02 22.6549C539.789 22.6549 540.413 22.0308 540.413 21.2612C540.413 20.4917 539.789 19.868 539.02 19.868C538.25 19.868 537.627 20.4917 537.627 21.2612Z" fill="#16164F"/>
<path d="M554.586 21.6183C554.586 22.3879 555.209 23.012 555.979 23.012C556.748 23.012 557.372 22.3879 557.372 21.6183C557.372 20.8488 556.748 20.2252 555.979 20.2252C555.209 20.2252 554.586 20.8488 554.586 21.6183Z" fill="#16164F"/>
<path d="M563.831 13.1199C565.386 15.6814 568.74 16.4864 571.324 14.9182C573.908 13.3499 574.742 10.0023 573.187 7.44087C571.633 4.87944 568.278 4.07441 565.694 5.64264C563.11 7.21088 562.276 10.5585 563.831 13.1199Z" fill="#5A60F3"/>
<path fill-rule="evenodd" clip-rule="evenodd" d="M697.895 296.49C701.851 293.926 706.06 300.189 701.61 303.705L697.895 296.49Z" fill="#F5B523"/>
<path fill-rule="evenodd" clip-rule="evenodd" d="M697.79 322.523C697.362 327.364 698.737 333.65 700.604 338.259C702.794 343.605 706.508 346.284 703.725 348.563C700.762 350.965 696.617 346.004 694.936 343.479C692.705 340.124 693.059 333.94 692.618 328.387L697.79 322.523Z" fill="#FDA71A"/>
<path fill-rule="evenodd" clip-rule="evenodd" d="M668.073 361.819C672.396 370.062 686.992 367.765 693.377 368.27C703.199 369.045 710.818 365.703 720.296 363.632C724.196 362.78 736.745 364.299 739.436 365.146C730.301 352.824 702.343 365.977 700.358 344.93C691.365 354.122 681.312 358.702 668.073 361.819Z" fill="url(#paint5_linear)"/>
<path fill-rule="evenodd" clip-rule="evenodd" d="M696.576 322.136C696.604 329.929 700.498 340.445 701.746 349.433C702.439 354.483 711.377 356.47 706.97 366.119C705.432 369.499 699.515 368.945 696.521 369.024C694.941 369.066 690.714 369.654 689.148 369.884C687.097 370.186 686.266 370.367 684.395 371.241C680.071 373.252 670.397 369.343 668 363.931C665.588 358.519 667.501 341.071 668.18 330.63C681.401 307.882 690.575 306.618 696.576 322.136Z" fill="#F5B523"/>
<path fill-rule="evenodd" clip-rule="evenodd" d="M668 363.931C665.588 358.519 700.498 340.445 701.746 349.433C702.439 354.483 711.377 356.47 706.97 366.119C705.432 369.499 699.958 370.271 696.244 370.271C694.664 370.271 690.714 369.654 689.148 369.884C687.097 370.186 686.82 369.535 684.949 370.41C680.625 372.421 670.397 369.343 668 363.931Z" fill="url(#paint6_linear)"/>
<path fill-rule="evenodd" clip-rule="evenodd" d="M670.24 327.207C672.638 327.854 676.02 346.48 677.198 348.501C679.346 352.188 681.355 350.398 685.014 353.153C690.627 357.382 691.279 364.343 688.978 369.91C688.174 371.86 686.636 371.622 684.529 371.778C679.776 372.13 670.393 369.343 667.995 363.931C665.584 358.519 667.511 341.071 668.176 330.63C668.883 329.429 669.561 328.288 670.24 327.207Z" fill="#F5B523"/>
<path fill-rule="evenodd" clip-rule="evenodd" d="M696.576 322.136C696.603 327.181 698.225 334.24 699.791 341.594C702.549 354.621 678.587 326.04 679.252 315.599C692.487 292.851 690.575 306.618 696.576 322.136Z" fill="url(#paint7_linear)"/>
<path fill-rule="evenodd" clip-rule="evenodd" d="M679.253 315.6C683.272 328.562 696.091 326.99 698.849 325.889C702.189 324.557 708.592 319.566 704.739 313.019C703.159 310.321 704.351 306.575 703.118 303.515C698.475 291.862 689.481 292.592 684.394 293.489C682.537 293.817 676.481 295.362 674.555 299.448C671.035 306.881 668.194 321.465 668.18 330.63L679.253 315.6Z" fill="#F5B523"/>
<path fill-rule="evenodd" clip-rule="evenodd" d="M679.252 315.599C680.222 318.733 678.504 301.538 680.167 299.789C681.345 298.552 676.481 295.362 674.554 299.448C672.462 303.861 670.618 310.796 669.454 317.62C668.664 322.289 668.179 326.907 668.179 330.63L679.252 315.599Z" fill="url(#paint8_linear)"/>
<path d="M683.468 316.948C683.803 317.115 684.162 317.073 684.272 316.854C684.381 316.635 684.199 316.322 683.864 316.155C683.53 315.988 683.17 316.03 683.061 316.249C682.951 316.468 683.134 316.781 683.468 316.948Z" fill="#16164F"/>
<path d="M705.401 316.475C705.165 316.658 704.877 316.682 704.757 316.528C704.637 316.374 704.73 316.1 704.966 315.917C705.201 315.733 705.49 315.709 705.61 315.863C705.73 316.017 705.636 316.291 705.401 316.475Z" fill="#16164F"/>
<path d="M684.59 320.041C684.925 320.208 685.284 320.166 685.394 319.947C685.503 319.728 685.321 319.415 684.987 319.248C684.652 319.081 684.292 319.123 684.183 319.342C684.073 319.56 684.256 319.874 684.59 320.041Z" fill="#16164F"/>
<path d="M705 319.073C704.764 319.257 704.476 319.281 704.356 319.126C704.235 318.972 704.329 318.699 704.564 318.515C704.8 318.331 705.088 318.307 705.209 318.462C705.329 318.616 705.235 318.89 705 319.073Z" fill="#16164F"/>
<path d="M687.75 319.369C688.085 319.536 688.444 319.494 688.554 319.275C688.663 319.056 688.481 318.743 688.146 318.576C687.812 318.409 687.452 318.45 687.343 318.669C687.233 318.888 687.416 319.201 687.75 319.369Z" fill="#16164F"/>
<path d="M702.422 319.045C702.186 319.228 701.898 319.252 701.778 319.098C701.658 318.944 701.751 318.67 701.987 318.486C702.222 318.303 702.51 318.279 702.631 318.433C702.751 318.587 702.657 318.861 702.422 319.045Z" fill="#16164F"/>
<path fill-rule="evenodd" clip-rule="evenodd" d="M697.079 315.823C695.819 315.895 694.352 316.473 694.404 317.386C694.43 317.846 694.987 318.397 695.497 318.902C695.996 319.4 696.447 319.857 697.072 319.822C698.332 319.75 699.888 318.183 699.836 317.27C699.784 316.357 698.34 315.751 697.079 315.823Z" fill="#16164F"/>
<path d="M703.425 310.32C703.425 310.971 702.898 311.499 702.247 311.499C701.597 311.499 701.069 310.971 701.069 310.32C701.069 309.67 701.597 309.142 702.247 309.142C702.898 309.142 703.425 309.67 703.425 310.32Z" fill="#16164F"/>
<path d="M689.096 310.634C689.096 311.285 688.568 311.812 687.918 311.812C687.267 311.812 686.74 311.285 686.74 310.634C686.74 309.984 687.267 309.456 687.918 309.456C688.568 309.456 689.096 309.984 689.096 310.634Z" fill="#16164F"/>
<path d="M681.279 303.438C679.965 305.604 677.129 306.284 674.944 304.958C672.76 303.632 672.055 300.802 673.369 298.637C674.683 296.471 677.52 295.791 679.704 297.117C681.888 298.442 682.594 301.273 681.279 303.438Z" fill="#F5B523"/>
<path d="M692.999 366.625C691.412 370.098 688.88 372.344 687.343 371.642C685.806 370.94 685.847 367.555 687.433 364.082C689.02 360.609 691.552 358.363 693.089 359.065C694.626 359.767 694.585 363.151 692.999 366.625Z" fill="#F5B523"/>
<path d="M710.838 365.619C712.747 362.313 713.109 358.947 711.646 358.102C710.183 357.258 707.449 359.253 705.54 362.56C703.63 365.867 703.269 369.233 704.732 370.077C706.195 370.922 708.929 368.926 710.838 365.619Z" fill="#F39C0F"/>
<path fill-rule="evenodd" clip-rule="evenodd" d="M674.632 347.317C675.665 345.885 677.733 341.789 679.82 337.719C682.396 332.728 687.064 347.514 687.942 349.68C689.102 352.578 676.347 357.863 674.632 347.317Z" fill="url(#paint9_linear)"/>
<path fill-rule="evenodd" clip-rule="evenodd" d="M689.08 350.401C684.581 351.825 678.14 338.048 680.321 333.803C682.823 328.935 684.759 327.817 685.474 327.865C687.622 328.006 689.406 342.997 690.092 345.248C691.148 348.671 689.697 350.207 689.08 350.401Z" fill="url(#paint10_linear)"/>
<path fill-rule="evenodd" clip-rule="evenodd" d="M674.632 347.317C676.927 344.124 677.289 342.277 678.597 342.358C680.713 342.49 683.819 350.928 686.014 351.703C688.774 352.678 690.183 348.715 689.856 346.82C688.961 341.548 683.526 331.897 687.024 324.149C685.881 325.265 684.792 326.43 683.764 327.669C679.664 332.591 676.452 338.637 674.632 347.317Z" fill="#F5B523"/>
<defs>
<linearGradient id="paint0_linear" x1="524.885" y1="89.2072" x2="567.286" y2="85.2768" gradientUnits="userSpaceOnUse">
<stop stop-color="#484FF2"/>
<stop offset="1" stop-color="#0008C8"/>
</linearGradient>
<linearGradient id="paint1_linear" x1="538.565" y1="30.3576" x2="552.585" y2="45.2751" gradientUnits="userSpaceOnUse">
<stop stop-color="#1119E4"/>
<stop offset="1" stop-color="#1119E4" stop-opacity="0"/>
</linearGradient>
<linearGradient id="paint2_linear" x1="573.728" y1="92.486" x2="585.695" y2="114.452" gradientUnits="userSpaceOnUse">
<stop stop-color="#5A60F3"/>
<stop offset="0.21" stop-color="#444BEF"/>
<stop offset="1" stop-color="#444BEF"/>
</linearGradient>
<linearGradient id="paint3_linear" x1="549.729" y1="87.2403" x2="522.739" y2="114.616" gradientUnits="userSpaceOnUse">
<stop stop-color="#5A60F3"/>
<stop offset="0.28" stop-color="#444BEF"/>
<stop offset="1" stop-color="#0008D7"/>
</linearGradient>
<linearGradient id="paint4_linear" x1="567.663" y1="16.9154" x2="573.401" y2="2.16197" gradientUnits="userSpaceOnUse">
<stop stop-color="#5A60F3"/>
<stop offset="1" stop-color="#0008D7"/>
</linearGradient>
<linearGradient id="paint5_linear" x1="731.781" y1="361.619" x2="701.291" y2="360.372" gradientUnits="userSpaceOnUse">
<stop stop-color="#F5B523"/>
<stop offset="1" stop-color="#D38300"/>
</linearGradient>
<linearGradient id="paint6_linear" x1="685.004" y1="353.147" x2="695.341" y2="377.697" gradientUnits="userSpaceOnUse">
<stop stop-color="#F5B523"/>
<stop offset="0.16" stop-color="#FDA71A"/>
<stop offset="0.95" stop-color="#E79002"/>
<stop offset="1" stop-color="#444BEF"/>
</linearGradient>
<linearGradient id="paint7_linear" x1="701.912" y1="319.491" x2="690.772" y2="330.63" gradientUnits="userSpaceOnUse">
<stop stop-color="#F5B523"/>
<stop offset="1" stop-color="#F5B523" stop-opacity="0"/>
</linearGradient>
<linearGradient id="paint8_linear" x1="678.019" y1="306.655" x2="673.168" y2="294.182" gradientUnits="userSpaceOnUse">
<stop stop-color="#F5B523"/>
<stop offset="1" stop-color="#CD7F00"/>
</linearGradient>
<linearGradient id="paint9_linear" x1="677.342" y1="343.813" x2="676.795" y2="348.809" gradientUnits="userSpaceOnUse">
<stop stop-color="#E79002"/>
<stop offset="1" stop-color="#E79002" stop-opacity="0"/>
</linearGradient>
<linearGradient id="paint10_linear" x1="685.795" y1="343.809" x2="690.795" y2="342.309" gradientUnits="userSpaceOnUse">
<stop stop-color="#E79002"/>
<stop offset="1" stop-color="#E79002" stop-opacity="0"/>
</linearGradient>
</defs>
</svg>
