<svg width="90" height="90" viewBox="0 0 90 90" fill="none" xmlns="http://www.w3.org/2000/svg">
<path fill-rule="evenodd" clip-rule="evenodd" d="M90 45C90 50.8567 88.8812 56.452 86.8456 61.584C85.8279 64.1498 82.7731 65.067 80.3354 63.772C77.8948 62.4754 77.0066 59.4524 77.9423 56.852C79.2742 53.1507 80 49.1601 80 45C80 25.67 64.33 10 45 10C25.67 10 10 25.67 10 45C10 59.3212 18.6013 71.6334 30.9198 77.0525C33.4491 78.1652 35.0303 80.8908 34.2908 83.5532C33.5518 86.2135 30.7815 87.7974 28.2199 86.7672C11.6781 80.1153 0 63.9214 0 45C0 20.1472 20.1472 0 45 0C69.8528 0 90 20.1472 90 45Z" fill="#5A60F3"/>
<path fill-rule="evenodd" clip-rule="evenodd" d="M60.0733 37.7551L74.3591 56.8027H67.1428L77.1429 70.1361H70.0001L80 83.4693H40L49.9999 70.1361H42.8571L52.8572 56.8027H45.7876L60.0733 37.7551Z" fill="#5A60F3"/>
<rect x="56" y="79" width="8" height="11" fill="#5A60F3"/>
<path fill-rule="evenodd" clip-rule="evenodd" d="M27 29C27.5842 29 28.1517 29.0716 28.6943 29.2064C30.2447 27.2597 32.716 26 35.5 26C40.1944 26 44 29.5817 44 34C44 34.0334 43.9998 34.0668 43.9993 34.1002C44.3227 34.0345 44.6573 34 45 34C47.7614 34 50 36.2386 50 39C50 41.7614 47.7614 44 45 44H21C18.2386 44 16 41.7614 16 39C16 36.485 17.8569 34.4036 20.2746 34.0522C21.1182 31.1339 23.8099 29 27 29Z" fill="#5A60F3"/>
</svg>
