<svg width="36" height="36" viewBox="0 0 36 36" fill="none" xmlns="http://www.w3.org/2000/svg">
<path d="M1.98617 0C0.888652 0 0 0.888652 0 1.98617V34.0138C0 35.1111 0.888511 36 1.98617 36H19.2288V22.0618H14.5362V16.6271H19.2288V12.6199C19.2288 7.9701 22.0695 5.43906 26.2175 5.43906C28.2044 5.43906 29.9106 5.58676 30.4081 5.65297V10.5115H27.5315C25.2758 10.5115 24.8381 11.5838 24.8381 13.1568V16.6271H30.2204L29.5176 22.0618H24.8381V36H34.0138C35.1109 36 36 35.1112 36 34.0138V1.98617C36 0.888652 35.111 0 34.0138 0H1.98617V0Z" fill="#5A60F3"/>
</svg>
