<svg width="37" height="37" viewBox="0 0 37 37" fill="none" xmlns="http://www.w3.org/2000/svg">
<path d="M2.60653 0.330551C1.50901 0.330551 0.620361 1.2192 0.620361 2.31672V34.3444C0.620361 35.4416 1.50887 36.3305 2.60653 36.3305H19.8492V22.3924H15.1565V16.9577H19.8492V12.9504C19.8492 8.30065 22.6899 5.76962 26.8379 5.76962C28.8248 5.76962 30.5309 5.91731 31.0285 5.98352V10.842H28.1518C25.8962 10.842 25.4585 11.9143 25.4585 13.4873V16.9577H30.8408L30.138 22.3924H25.4585V36.3305H34.6342C35.7313 36.3305 36.6204 35.4417 36.6204 34.3444V2.31672C36.6204 1.2192 35.7314 0.330551 34.6342 0.330551H2.60653V0.330551Z" fill="#A1ABFF"/>
</svg>
