<svg width="36" height="36" viewBox="0 0 37 36" fill="none" xmlns="http://www.w3.org/2000/svg">
<path fill-rule="evenodd" clip-rule="evenodd" d="M3.14797 0C1.75228 0 0.62085 1.13143 0.62085 2.52712V33.4729C0.62085 34.8686 1.75228 36 3.14797 36H34.0937C35.4894 36 36.6208 34.8686 36.6208 33.4729V2.52712C36.6208 1.13143 35.4894 0 34.0937 0H3.14797ZM5.76318 12.5874C5.76318 8.48271 9.10118 5.14286 13.2059 5.14286H24.0347C28.1394 5.14286 31.4775 8.48271 31.4775 12.5874V23.3518C31.4775 27.4565 28.1394 30.7945 24.0347 30.7945H13.2059C9.10118 30.7945 5.76318 27.4565 5.76318 23.3518V12.5874ZM24.0347 7.34806H13.2059C10.2845 7.34806 7.96836 9.66607 7.96836 12.5874V23.3518C7.96836 26.2732 10.2845 28.5893 13.2059 28.5893H24.0347C26.9561 28.5893 29.2741 26.2732 29.2741 23.3518V12.5874C29.2741 9.66607 26.9561 7.34806 24.0347 7.34806ZM23.9795 11.0952C23.9795 10.2434 24.6696 9.55324 25.5214 9.55324C26.3733 9.55324 27.0634 10.2434 27.0634 11.0952C27.0634 11.9471 26.3733 12.6372 25.5214 12.6372C24.6696 12.6372 23.9795 11.9471 23.9795 11.0952ZM12.0158 17.9687C12.0158 14.334 14.9856 11.3642 18.6203 11.3642C22.2551 11.3642 25.2267 14.334 25.2267 17.9687C25.2267 21.6034 22.2551 24.5732 18.6203 24.5732C14.9856 24.5732 12.0158 21.6034 12.0158 17.9687ZM23.0215 17.9687C23.0215 15.5255 21.0635 13.5694 18.6203 13.5694C16.1772 13.5694 14.221 15.5255 14.221 17.9687C14.221 20.4119 16.1772 22.368 18.6203 22.368C21.0635 22.368 23.0215 20.4119 23.0215 17.9687Z" fill="#A1ABFF"/>
</svg>
