<svg width="36" height="36" viewBox="0 0 36 36" fill="none" xmlns="http://www.w3.org/2000/svg">
<path fill-rule="evenodd" clip-rule="evenodd" d="M3 0C1.34315 0 0 1.34315 0 3V33C0 34.6569 1.34315 36 3 36H33C34.6569 36 36 34.6569 36 33V3C36 1.34315 34.6569 0 33 0H3ZM5.14282 12.5874C5.14282 8.48271 8.48082 5.14286 12.5855 5.14286H23.4144C27.5191 5.14286 30.8571 8.48271 30.8571 12.5874V23.3518C30.8571 27.4565 27.5191 30.7945 23.4144 30.7945H12.5855C8.48082 30.7945 5.14282 27.4565 5.14282 23.3518V12.5874ZM23.4144 7.34806H12.5855C9.66415 7.34806 7.348 9.66607 7.348 12.5874V23.3518C7.348 26.2732 9.66415 28.5893 12.5855 28.5893H23.4144C26.3357 28.5893 28.6538 26.2732 28.6538 23.3518V12.5874C28.6538 9.66607 26.3357 7.34806 23.4144 7.34806ZM23.3591 11.0952C23.3591 10.2434 24.0492 9.55324 24.9011 9.55324C25.7529 9.55324 26.4431 10.2434 26.4431 11.0952C26.4431 11.9471 25.7529 12.6372 24.9011 12.6372C24.0492 12.6372 23.3591 11.9471 23.3591 11.0952ZM11.3955 17.9687C11.3955 14.334 14.3652 11.3642 18 11.3642C21.6347 11.3642 24.6063 14.334 24.6063 17.9687C24.6063 21.6034 21.6347 24.5732 18 24.5732C14.3652 24.5732 11.3955 21.6034 11.3955 17.9687ZM22.4011 17.9687C22.4011 15.5255 20.4431 13.5694 18 13.5694C15.5568 13.5694 13.6006 15.5255 13.6006 17.9687C13.6006 20.4118 15.5568 22.368 18 22.368C20.4431 22.368 22.4011 20.4118 22.4011 17.9687Z" fill="#5A60F3"/>
</svg>
