<svg width="523" height="139" viewBox="0 0 523 139" fill="none" xmlns="http://www.w3.org/2000/svg">
<rect x="358.5" y="0.307678" width="164" height="138" fill="#A1ABFF"/>
<rect x="179.553" y="0.307678" width="164" height="138" fill="#A1ABFF"/>
<rect x="0.5" y="0.307678" width="164" height="138" fill="#A1ABFF"/>
<path d="M231.367 113.72C233.167 113.72 234.653 114.193 235.827 115.14C237.013 116.087 237.78 117.367 238.127 118.98H234.507C234.24 118.327 233.827 117.813 233.267 117.44C232.72 117.067 232.067 116.88 231.307 116.88C230.307 116.88 229.5 117.247 228.887 117.98C228.273 118.713 227.967 119.693 227.967 120.92C227.967 122.147 228.273 123.127 228.887 123.86C229.5 124.58 230.307 124.94 231.307 124.94C232.067 124.94 232.72 124.753 233.267 124.38C233.827 124.007 234.24 123.5 234.507 122.86H238.127C237.78 124.46 237.013 125.74 235.827 126.7C234.653 127.647 233.167 128.12 231.367 128.12C229.993 128.12 228.787 127.82 227.747 127.22C226.707 126.607 225.9 125.753 225.327 124.66C224.767 123.567 224.487 122.32 224.487 120.92C224.487 119.52 224.767 118.273 225.327 117.18C225.9 116.087 226.707 115.24 227.747 114.64C228.787 114.027 229.993 113.72 231.367 113.72ZM247.303 128L244.243 122.66H243.463V128H240.043V113.86H245.883C247.003 113.86 247.95 114.053 248.723 114.44C249.497 114.827 250.077 115.36 250.463 116.04C250.85 116.707 251.043 117.473 251.043 118.34C251.043 119.367 250.757 120.24 250.183 120.96C249.623 121.68 248.803 122.173 247.723 122.44L251.083 128H247.303ZM243.463 120.32H245.583C246.263 120.32 246.763 120.173 247.083 119.88C247.403 119.573 247.563 119.127 247.563 118.54C247.563 117.98 247.397 117.54 247.063 117.22C246.743 116.9 246.25 116.74 245.583 116.74H243.463V120.32ZM256.178 116.58V119.54H260.958V122.12H256.178V125.26H261.558V128H252.758V113.86H261.558V116.58H256.178ZM272.26 125.42H266.96L266.08 128H262.48L267.66 113.96H271.6L276.78 128H273.14L272.26 125.42ZM271.38 122.82L269.62 117.62L267.84 122.82H271.38ZM288.27 113.86V116.58H284.43V128H280.99V116.58H277.19V113.86H288.27ZM293.131 116.58V119.54H297.911V122.12H293.131V125.26H298.511V128H289.711V113.86H298.511V116.58H293.131Z" fill="white"/>
<path d="M56.3305 125.38H60.8905V128H52.9105V113.86H56.3305V125.38ZM65.8813 116.58V119.54H70.6613V122.12H65.8813V125.26H71.2613V128H62.4613V113.86H71.2613V116.58H65.8813ZM81.9634 125.42H76.6634L75.7834 128H72.1834L77.3634 113.96H81.3034L86.4834 128H82.8434L81.9634 125.42ZM81.0834 122.82L79.3234 117.62L77.5434 122.82H81.0834ZM95.0728 128L92.0128 122.66H91.2328V128H87.8128V113.86H93.6528C94.7728 113.86 95.7195 114.053 96.4928 114.44C97.2661 114.827 97.8461 115.36 98.2328 116.04C98.6195 116.707 98.8128 117.473 98.8128 118.34C98.8128 119.367 98.5261 120.24 97.9528 120.96C97.3928 121.68 96.5728 122.173 95.4928 122.44L98.8528 128H95.0728ZM91.2328 120.32H93.3528C94.0328 120.32 94.5328 120.173 94.8528 119.88C95.1728 119.573 95.3328 119.127 95.3328 118.54C95.3328 117.98 95.1661 117.54 94.8328 117.22C94.5128 116.9 94.0195 116.74 93.3528 116.74H91.2328V120.32ZM113.088 128H109.668L103.948 119.32V128H100.528V113.86H103.948L109.668 122.62V113.86H113.088V128Z" fill="white"/>
<path d="M409.413 113.86V128H405.993V113.86H409.413ZM424.334 128H420.914L415.194 119.32V128H411.774V113.86H415.194L420.914 122.62V113.86H424.334V128ZM436.856 124.02C436.856 124.767 436.662 125.453 436.276 126.08C435.902 126.707 435.342 127.207 434.596 127.58C433.862 127.953 432.969 128.14 431.916 128.14C430.329 128.14 429.022 127.753 427.996 126.98C426.969 126.207 426.409 125.127 426.316 123.74H429.956C430.009 124.273 430.196 124.693 430.516 125C430.849 125.307 431.269 125.46 431.776 125.46C432.216 125.46 432.562 125.34 432.816 125.1C433.069 124.86 433.196 124.54 433.196 124.14C433.196 123.78 433.076 123.48 432.836 123.24C432.609 123 432.322 122.807 431.976 122.66C431.629 122.5 431.149 122.313 430.536 122.1C429.642 121.793 428.909 121.5 428.336 121.22C427.776 120.927 427.289 120.5 426.876 119.94C426.476 119.367 426.276 118.627 426.276 117.72C426.276 116.88 426.489 116.153 426.916 115.54C427.342 114.927 427.929 114.46 428.676 114.14C429.436 113.807 430.302 113.64 431.276 113.64C432.849 113.64 434.096 114.013 435.016 114.76C435.949 115.507 436.476 116.533 436.596 117.84H432.896C432.829 117.373 432.656 117.007 432.376 116.74C432.109 116.46 431.742 116.32 431.276 116.32C430.876 116.32 430.549 116.427 430.296 116.64C430.056 116.853 429.936 117.167 429.936 117.58C429.936 117.913 430.042 118.2 430.256 118.44C430.482 118.667 430.762 118.853 431.096 119C431.429 119.147 431.909 119.333 432.536 119.56C433.442 119.867 434.182 120.173 434.756 120.48C435.329 120.773 435.822 121.207 436.236 121.78C436.649 122.353 436.856 123.1 436.856 124.02ZM442.166 123.04V128H438.746V113.86H444.286C445.966 113.86 447.246 114.28 448.126 115.12C449.006 115.947 449.446 117.067 449.446 118.48C449.446 119.36 449.246 120.147 448.846 120.84C448.46 121.52 447.88 122.06 447.106 122.46C446.333 122.847 445.393 123.04 444.286 123.04H442.166ZM443.906 120.3C445.28 120.3 445.966 119.693 445.966 118.48C445.966 117.24 445.28 116.62 443.906 116.62H442.166V120.3H443.906ZM454.549 113.86V128H451.129V113.86H454.549ZM464.17 128L461.11 122.66H460.33V128H456.91V113.86H462.75C463.87 113.86 464.817 114.053 465.59 114.44C466.364 114.827 466.944 115.36 467.33 116.04C467.717 116.707 467.91 117.473 467.91 118.34C467.91 119.367 467.624 120.24 467.05 120.96C466.49 121.68 465.67 122.173 464.59 122.44L467.95 128H464.17ZM460.33 120.32H462.45C463.13 120.32 463.63 120.173 463.95 119.88C464.27 119.573 464.43 119.127 464.43 118.54C464.43 117.98 464.264 117.54 463.93 117.22C463.61 116.9 463.117 116.74 462.45 116.74H460.33V120.32ZM473.045 116.58V119.54H477.825V122.12H473.045V125.26H478.425V128H469.625V113.86H478.425V116.58H473.045Z" fill="white"/>
<path d="M474.85 9.88977H381.1V84.8899H474.85V9.88977Z" fill="white"/>
<path d="M471.896 17.0848H423.838V81.9763H471.896V17.0848Z" fill="#A1ABFF"/>
<path d="M421.055 17.0848H384.516V81.9763H421.055V17.0848Z" fill="#A1ABFF"/>
<path d="M474.85 9.88965H381.1V14.8897H474.85V9.88965Z" fill="#5A60F3"/>
<g filter="url(#filter0_d)">
<path d="M501.433 30.7643H433.933V75.7641H501.433V30.7643Z" fill="white"/>
<path d="M499.549 37.3893H465.799V59.8892H499.549V37.3893Z" fill="#A1ABFF"/>
<path d="M463.853 37.3893H436.104V73.8157H463.853V37.3893Z" fill="#A1ABFF"/>
<path d="M499.549 61.9112H465.799V73.8157H499.549V61.9112Z" fill="#A1ABFF"/>
</g>
<path d="M501.433 30.7644H433.933V35.7644H501.433V30.7644Z" fill="#5A60F3"/>
<path fill-rule="evenodd" clip-rule="evenodd" d="M399.582 28.0138C396.014 25.7008 392.218 31.3498 396.232 34.5213L399.582 28.0138Z" fill="#5A60F3"/>
<path fill-rule="evenodd" clip-rule="evenodd" d="M401.035 51.5886C400.647 55.955 398.429 61.3186 396.04 65.1146C393.247 69.5134 389.524 71.303 391.634 73.7679C393.884 76.3708 398.352 72.6241 400.244 70.6487C402.757 68.0232 403.424 62.4764 404.696 57.6159L401.035 51.5886Z" fill="#444BEF"/>
<path fill-rule="evenodd" clip-rule="evenodd" d="M424.559 81.1429C422.221 89.2102 413.621 94.9868 408.071 96.5908C399.533 99.0557 389.834 94.0149 381.084 93.9036C377.484 93.8578 372.146 94.9472 369.921 96.1829C379.933 79.2994 397.058 93.5424 397.671 77.2339L424.559 81.1429Z" fill="url(#paint0_linear)"/>
<path d="M423.921 102.407C427.207 103.44 430.241 103.099 430.698 101.645C431.155 100.191 428.862 98.1753 425.576 97.1424C422.291 96.1095 419.257 96.4507 418.8 97.9044C418.343 99.3581 420.636 101.374 423.921 102.407Z" fill="#444BEF"/>
<path d="M398.719 101.814C395.434 102.847 392.4 102.506 391.943 101.052C391.486 99.5985 393.779 97.5827 397.064 96.5498C400.35 95.5169 403.384 95.8581 403.841 97.3118C404.298 98.7656 402.005 100.781 398.719 101.814Z" fill="#444BEF"/>
<path fill-rule="evenodd" clip-rule="evenodd" d="M400.741 51.1463C400.678 63.7581 389.503 90.3179 399.328 97.8357C401.991 99.8724 405.841 99.2488 407.928 97.6953C409.066 96.8419 410.678 96.1322 412.09 96.3398C414.528 96.698 415.441 97.8387 417.141 98.6274C421.028 100.441 425.278 99.3354 427.016 95.4077C429.19 90.5264 426.965 68.2251 426.353 58.8078C414.428 38.2895 406.153 37.1493 400.741 51.1463Z" fill="#5A60F3"/>
<path fill-rule="evenodd" clip-rule="evenodd" d="M400.741 51.1463C400.716 55.6972 399.253 62.0641 397.841 68.6971C395.353 80.4464 416.966 54.6679 416.366 45.2507C404.429 24.7324 406.154 37.1493 400.741 51.1463Z" fill="url(#paint1_linear)"/>
<path fill-rule="evenodd" clip-rule="evenodd" d="M427.016 95.4076C428.603 91.8618 416.454 91.5154 406.741 90.5978C403.079 90.2521 395.478 81.6727 395.341 84.6727C395.053 90.4171 395.954 95.2514 399.329 97.8356C401.991 99.8724 405.841 99.2488 407.929 97.6953C409.066 96.8419 410.678 96.1321 412.091 96.3398C414.528 96.698 415.441 97.8387 417.141 98.6274C421.028 100.441 425.278 99.3354 427.016 95.4076Z" fill="url(#paint2_linear)"/>
<path fill-rule="evenodd" clip-rule="evenodd" d="M412.091 96.3398C414.528 96.698 416.454 91.5154 406.741 90.5978C403.079 90.2521 395.478 81.6727 395.341 84.6727C395.053 90.4171 395.954 95.2514 399.329 97.8356C401.991 99.8724 405.841 99.2488 407.929 97.6953C409.066 96.8419 410.678 96.1321 412.091 96.3398Z" fill="url(#paint3_linear)"/>
<path fill-rule="evenodd" clip-rule="evenodd" d="M416.366 45.2506C412.741 56.942 401.179 55.5247 398.691 54.5315C395.679 53.3297 389.904 48.8282 393.379 42.9228C394.804 40.4893 393.729 37.1109 394.841 34.3506C399.029 23.8402 407.141 24.4988 411.729 25.3077C413.404 25.6037 418.866 26.997 420.604 30.6827C423.779 37.3865 426.341 50.5413 426.354 58.8078L416.366 45.2506Z" fill="#5A60F3"/>
<path fill-rule="evenodd" clip-rule="evenodd" d="M416.367 45.2507C415.492 48.0767 417.041 32.5674 415.541 30.9903C414.479 29.8744 418.866 26.997 420.604 30.6828C422.491 34.6631 424.154 40.9178 425.204 47.0731C425.916 51.2846 426.354 55.4496 426.354 58.8078L416.367 45.2507Z" fill="url(#paint4_linear)"/>
<path d="M412.584 46.4676C412.282 46.6184 411.958 46.5805 411.859 46.3831C411.76 46.1856 411.925 45.9034 412.226 45.7526C412.528 45.6017 412.853 45.6395 412.952 45.8369C413.05 46.0344 412.886 46.3167 412.584 46.4676Z" fill="#16164F"/>
<path d="M392.807 46.035C393.019 46.2005 393.279 46.222 393.388 46.083C393.496 45.944 393.412 45.6971 393.199 45.5315C392.987 45.3659 392.727 45.3443 392.618 45.4834C392.51 45.6224 392.594 45.8694 392.807 46.035Z" fill="#16164F"/>
<path d="M411.577 49.2575C411.275 49.4083 410.95 49.3705 410.852 49.173C410.753 48.9756 410.918 48.6933 411.219 48.5425C411.521 48.3917 411.846 48.4294 411.944 48.6269C412.043 48.8243 411.878 49.1067 411.577 49.2575Z" fill="#16164F"/>
<path d="M393.157 48.3818C393.37 48.5473 393.63 48.5688 393.738 48.4298C393.846 48.2908 393.762 48.0439 393.55 47.8783C393.337 47.7127 393.077 47.6911 392.969 47.8302C392.86 47.9692 392.945 48.2162 393.157 48.3818Z" fill="#16164F"/>
<path d="M408.724 48.6507C408.422 48.8015 408.098 48.7637 407.999 48.5663C407.9 48.3688 408.065 48.0865 408.366 47.9357C408.668 47.7849 408.993 47.8227 409.091 48.0201C409.19 48.2175 409.026 48.4999 408.724 48.6507Z" fill="#16164F"/>
<path d="M395.489 48.358C395.702 48.5235 395.962 48.545 396.07 48.406C396.178 48.267 396.094 48.0201 395.882 47.8545C395.669 47.6889 395.409 47.6673 395.301 47.8064C395.192 47.9454 395.277 48.1924 395.489 48.358Z" fill="#16164F"/>
<path fill-rule="evenodd" clip-rule="evenodd" d="M400.295 45.4519C401.432 45.5165 402.755 46.0383 402.708 46.8615C402.685 47.2764 402.182 47.7731 401.722 48.2293C401.273 48.6786 400.865 49.0907 400.302 49.0586C399.165 48.994 397.762 47.5803 397.809 46.757C397.856 45.9338 399.158 45.3872 400.295 45.4519Z" fill="#16164F"/>
<path fill-rule="evenodd" clip-rule="evenodd" d="M424.778 44.7648C425.578 48.2042 425.241 49.8602 426.353 50.2452C428.153 50.8657 433.641 44.9426 435.728 45.0578C438.353 45.2021 438.153 48.974 437.228 50.432C434.666 54.494 426.828 60.6187 427.053 68.2502C426.491 66.9304 425.991 65.5882 425.566 64.2063C423.866 58.7103 423.291 52.5892 424.778 44.7648Z" fill="#5A60F3"/>
<path d="M394.575 40.4965C394.575 41.0833 395.05 41.5592 395.637 41.5592C396.224 41.5592 396.7 41.0833 396.7 40.4965C396.7 39.9097 396.224 39.4341 395.637 39.4341C395.05 39.4341 394.575 39.9097 394.575 40.4965Z" fill="#16164F"/>
<path d="M407.506 40.769C407.506 41.3558 407.982 41.8317 408.569 41.8317C409.156 41.8317 409.631 41.3558 409.631 40.769C409.631 40.1822 409.156 39.7066 408.569 39.7066C407.982 39.7066 407.506 40.1822 407.506 40.769Z" fill="#16164F"/>
<path d="M414.556 34.2887C415.742 36.2419 418.3 36.8558 420.27 35.6599C422.24 34.4641 422.877 31.9114 421.691 29.9582C420.506 28.005 417.947 27.3912 415.977 28.587C414.007 29.7828 413.371 32.3355 414.556 34.2887Z" fill="#5A60F3"/>
<path d="M499.549 31.8894L496.553 34.8846" stroke="white" stroke-width="0.5"/>
<path d="M496.554 31.8894L499.549 34.8846" stroke="white" stroke-width="0.5"/>
<rect x="490.803" y="32.1394" width="2.5" height="2.5" stroke="white" stroke-width="0.5"/>
<path d="M487.553 33.392H484.053" stroke="white" stroke-width="0.5"/>
<path d="M472.849 10.8897L469.854 13.8849" stroke="white" stroke-width="0.5"/>
<path d="M469.854 10.8897L472.849 13.8849" stroke="white" stroke-width="0.5"/>
<rect x="464.104" y="11.1397" width="2.5" height="2.5" stroke="white" stroke-width="0.5"/>
<path d="M460.854 12.3923H457.354" stroke="white" stroke-width="0.5"/>
<path fill-rule="evenodd" clip-rule="evenodd" d="M17.8853 103.307L31.1226 92.0051L48.2476 81.6729L90.6978 80.4065L129.86 83.0312H140.11L144.485 92.4323L139.735 95.6823L139.598 100.423L141.11 103.307H17.8853Z" fill="white"/>
<path fill-rule="evenodd" clip-rule="evenodd" d="M48.2476 81.6728L31.1226 92.005L48.1226 84.305L48.2476 81.6728Z" fill="#E4E5FD"/>
<path fill-rule="evenodd" clip-rule="evenodd" d="M139.726 95.6822L114.251 100.688L144.476 92.4323L139.726 95.6822Z" fill="#E4E5FD"/>
<path fill-rule="evenodd" clip-rule="evenodd" d="M141.101 103.307H131.376L139.739 100.688L141.101 103.307Z" fill="#E4E5FD"/>
<path fill-rule="evenodd" clip-rule="evenodd" d="M38.376 96.5602L57.6138 99.5661L64.3135 103.307L58.6387 98.0661L38.376 96.5602Z" fill="#E4E5FD"/>
<path fill-rule="evenodd" clip-rule="evenodd" d="M74.6769 22.0619C78.245 19.7489 82.0418 25.3978 78.0278 28.5693L74.6769 22.0619Z" fill="#F5B523"/>
<path fill-rule="evenodd" clip-rule="evenodd" d="M72.512 44.1274C73.4307 48.4136 76.2881 53.4658 79.1233 56.9412C82.4325 60.9656 86.3463 62.2866 84.5537 64.991C82.6393 67.8493 77.747 64.677 75.627 62.9477C72.8117 60.6492 71.4717 55.2255 69.6149 50.5571L72.512 44.1274Z" fill="#FDA71A"/>
<path fill-rule="evenodd" clip-rule="evenodd" d="M47.7795 80.9852C51.6786 88.4205 64.8434 86.3489 70.6025 86.8046C79.4612 87.5031 86.3331 84.489 94.8821 82.621C98.3995 81.8526 109.718 83.2228 112.146 83.9861C103.907 72.8725 78.6891 84.7356 76.8994 65.7525C68.7878 74.043 59.7207 78.174 47.7795 80.9852Z" fill="url(#paint5_linear)"/>
<path fill-rule="evenodd" clip-rule="evenodd" d="M73.4878 45.1933C73.5128 52.2217 77.0254 61.7072 78.1504 69.8144C78.7754 74.3691 86.8378 76.1611 82.8628 84.8642C81.4753 87.9128 76.138 87.4126 73.438 87.4841C72.013 87.5218 68.2006 88.0526 66.7881 88.2601C64.9381 88.5322 64.188 88.6954 62.5005 89.4841C58.6005 91.2981 49.8754 87.7721 47.7129 82.8908C45.5379 78.0095 47.263 62.272 47.8755 52.8547C59.8005 32.3366 68.0753 31.1964 73.4878 45.1933Z" fill="#F5B523"/>
<path fill-rule="evenodd" clip-rule="evenodd" d="M56.9897 49.1925C57.7897 52.632 58.2024 50.6893 59.3149 51.0743C61.1149 51.6948 65.9774 44.1468 68.0649 44.2619C70.6899 44.4063 70.4899 48.1782 69.5649 49.6362C67.0024 53.6981 61.5401 64.3227 61.7651 71.9542C61.2026 70.6344 59.2023 65.0422 58.7773 63.6603C57.0773 58.1644 55.5022 57.017 56.9897 49.1925Z" fill="url(#paint6_linear)"/>
<path fill-rule="evenodd" clip-rule="evenodd" d="M47.7129 82.8909C45.5379 78.0095 77.0254 61.7072 78.1504 69.8144C78.7754 74.3692 86.8378 76.1612 82.8628 84.8643C81.4753 87.9129 76.538 88.6086 73.188 88.6086C71.763 88.6086 68.2006 88.0526 66.7881 88.2601C64.9381 88.5322 64.688 87.9455 63.0005 88.7341C59.1005 90.5481 49.8754 87.7721 47.7129 82.8909Z" fill="url(#paint7_linear)"/>
<path fill-rule="evenodd" clip-rule="evenodd" d="M49.7344 49.7669C51.8969 50.3507 54.9473 67.1504 56.0098 68.9739C57.9473 72.2994 59.7596 70.6843 63.0596 73.1692C68.1221 76.9839 68.7098 83.262 66.6348 88.2838C65.9098 90.0423 64.5221 89.8274 62.6221 89.9679C58.3346 90.2857 49.872 87.7719 47.7095 82.8907C45.5345 78.0095 47.2721 62.272 47.8721 52.8548C48.5096 51.7714 49.1219 50.742 49.7344 49.7669Z" fill="#F5B523"/>
<path fill-rule="evenodd" clip-rule="evenodd" d="M73.4876 45.1933C73.5126 49.7441 74.9755 56.111 76.388 62.7439C78.8755 74.4931 57.2626 48.7149 57.8626 39.2977C69.8001 18.7796 68.0751 31.1964 73.4876 45.1933Z" fill="url(#paint8_linear)"/>
<path fill-rule="evenodd" clip-rule="evenodd" d="M57.8626 39.2977C61.4876 50.989 73.0504 49.5717 75.5379 48.5786C78.5504 47.3767 84.3254 42.8752 80.8504 36.9699C79.4254 34.5364 80.5005 31.158 79.388 28.3978C75.2005 17.8875 67.0878 18.5461 62.5003 19.355C60.8253 19.651 55.3628 21.0442 53.6253 24.7299C50.4503 31.4336 47.8878 44.5883 47.8753 52.8548L57.8626 39.2977Z" fill="#F5B523"/>
<path fill-rule="evenodd" clip-rule="evenodd" d="M61.7598 45.7746C64.2848 43.971 66.5347 42.7079 68.3222 43.1052C71.6722 43.851 72.2846 46.6398 71.6596 49.2162C68.7221 49.2917 64.8223 48.6161 61.7598 45.7746Z" fill="#EDA80B"/>
<path fill-rule="evenodd" clip-rule="evenodd" d="M61.7598 45.7746C64.2848 43.971 66.5347 42.7079 68.3222 43.1052C71.6722 43.851 72.2846 46.6398 71.6596 49.2162C68.7221 49.2917 64.8223 48.6161 61.7598 45.7746Z" fill="url(#paint9_radial)"/>
<path fill-rule="evenodd" clip-rule="evenodd" d="M57.8626 39.2977C58.7376 42.1237 57.1877 26.6145 58.6877 25.0374C59.7502 23.9216 55.3627 21.0442 53.6252 24.7299C51.7377 28.7103 50.0752 34.9649 49.0252 41.1201C48.3127 45.3316 47.8752 49.4966 47.8752 52.8548L57.8626 39.2977Z" fill="url(#paint10_linear)"/>
<path d="M61.665 40.5139C61.9666 40.6648 62.2911 40.6269 62.3898 40.4295C62.4885 40.232 62.3241 39.9498 62.0224 39.7989C61.7207 39.6481 61.3961 39.6859 61.2973 39.8833C61.1986 40.0808 61.3633 40.3631 61.665 40.5139Z" fill="#16164F"/>
<path d="M81.4477 40.0872C81.2353 40.2527 80.9753 40.2742 80.8669 40.1352C80.7585 39.9962 80.8428 39.7493 81.0552 39.5837C81.2677 39.4181 81.5278 39.3965 81.6362 39.5356C81.7445 39.6746 81.6601 39.9216 81.4477 40.0872Z" fill="#16164F"/>
<path d="M62.6772 43.3035C62.9788 43.4544 63.3033 43.4165 63.402 43.2191C63.5007 43.0216 63.3363 42.7394 63.0346 42.5885C62.7329 42.4377 62.4083 42.4755 62.3096 42.6729C62.2108 42.8704 62.3755 43.1527 62.6772 43.3035Z" fill="#16164F"/>
<path d="M81.0854 42.4307C80.873 42.5962 80.613 42.6177 80.5046 42.4787C80.3962 42.3397 80.4805 42.0928 80.6929 41.9272C80.9054 41.7616 81.1655 41.74 81.2739 41.8791C81.3822 42.0181 81.2978 42.2651 81.0854 42.4307Z" fill="#16164F"/>
<path d="M65.5273 42.6972C65.8289 42.848 66.1534 42.8102 66.2521 42.6127C66.3508 42.4153 66.1864 42.133 65.8847 41.9822C65.583 41.8314 65.2584 41.8691 65.1596 42.0665C65.0609 42.264 65.2256 42.5464 65.5273 42.6972Z" fill="#16164F"/>
<path d="M78.7602 42.4051C78.5478 42.5707 78.2878 42.5921 78.1794 42.4531C78.0711 42.3141 78.1554 42.0672 78.3678 41.9016C78.5802 41.736 78.8403 41.7144 78.9487 41.8535C79.057 41.9925 78.9726 42.2395 78.7602 42.4051Z" fill="#16164F"/>
<path fill-rule="evenodd" clip-rule="evenodd" d="M73.9419 39.499C72.805 39.5637 71.4819 40.0855 71.5287 40.9087C71.5523 41.3235 72.055 41.8203 72.5149 42.2765C72.9644 42.7257 73.3716 43.1378 73.9349 43.1058C75.0718 43.0411 76.4751 41.6275 76.4282 40.8042C76.3814 39.981 75.0787 39.4344 73.9419 39.499Z" fill="#16164F"/>
<path fill-rule="evenodd" clip-rule="evenodd" d="M56.4898 44.3439C57.2898 47.7833 56.9525 49.4393 58.065 49.8243C59.865 50.4448 65.3525 44.5218 67.44 44.6369C70.065 44.7813 69.865 48.5532 68.94 50.0112C66.3775 54.0731 58.5402 60.1977 58.7652 67.8292C58.2027 66.5094 57.7024 65.1672 57.2774 63.7853C55.5774 58.2894 55.0023 52.1683 56.4898 44.3439Z" fill="#F5B523"/>
<path d="M79.6655 34.536C79.6655 35.1229 79.1898 35.5988 78.603 35.5988C78.0162 35.5988 77.5405 35.1229 77.5405 34.536C77.5405 33.9492 78.0162 33.4737 78.603 33.4737C79.1898 33.4737 79.6655 33.9492 79.6655 34.536Z" fill="#16164F"/>
<path d="M66.7407 34.8192C66.7407 35.4061 66.265 35.882 65.6782 35.882C65.0914 35.882 64.6157 35.4061 64.6157 34.8192C64.6157 34.2324 65.0914 33.7569 65.6782 33.7569C66.265 33.7569 66.7407 34.2324 66.7407 34.8192Z" fill="#16164F"/>
<path d="M59.6908 28.3285C58.5053 30.2817 55.9471 30.8956 53.9769 29.6997C52.0068 28.5039 51.3706 25.9512 52.5561 23.998C53.7416 22.0449 56.2998 21.431 58.27 22.6268C60.2401 23.8227 60.8763 26.3754 59.6908 28.3285Z" fill="#F5B523"/>
<path d="M70.2609 85.3199C68.8298 88.4525 66.546 90.4787 65.1599 89.8455C63.7738 89.2123 63.8102 86.1595 65.2413 83.0268C66.6724 79.8942 68.9562 77.8681 70.3423 78.5013C71.7284 79.1345 71.6919 82.1873 70.2609 85.3199Z" fill="#F5B523"/>
<path d="M86.3518 84.4135C88.0738 81.4309 88.3999 78.3954 87.0802 77.6334C85.7604 76.8715 83.2946 78.6717 81.5726 81.6543C79.8506 84.6369 79.5244 87.6724 80.8442 88.4344C82.1639 89.1963 84.6297 87.3961 86.3518 84.4135Z" fill="#F39C0F"/>
<path d="M86.0352 55.1882L84.4863 54.632L79.8693 67.4876L81.4182 68.0439L86.0352 55.1882Z" fill="#090E81"/>
<path fill-rule="evenodd" clip-rule="evenodd" d="M80.081 69.299L79.8628 67.472L81.4118 68.0282L80.081 69.299Z" fill="white"/>
<path fill-rule="evenodd" clip-rule="evenodd" d="M80.0715 69.3088L79.9406 68.2126L80.8699 68.5464L80.0715 69.3088Z" fill="#090E81"/>
<path fill-rule="evenodd" clip-rule="evenodd" d="M84.0996 61.8743C82.8907 61.8755 82.5743 62.8831 82.3414 64.5712C82.2177 65.4073 82.3899 66.2952 83.4134 65.9134L84.0996 61.8743Z" fill="#FDA71A"/>
<path fill-rule="evenodd" clip-rule="evenodd" d="M81.8127 60.6226C82.2514 61.8445 82.6949 62.0154 83.1829 60.9856C83.3921 60.1886 83.0021 59.8276 82.0112 59.8945L81.6235 60.6459" fill="#FDA71A"/>
<path fill-rule="evenodd" clip-rule="evenodd" d="M103.747 85.5573L91.4971 94.9323L111.497 96.0573L119.747 86.1823L103.747 85.5573Z" fill="#F39C0F"/>
<path fill-rule="evenodd" clip-rule="evenodd" d="M107.122 88.6822L94.8721 98.0572L115.622 99.4321L123.122 89.3072L107.122 88.6822Z" fill="#F5B523"/>
<path d="M84.189 38.3037C85.121 38.3037 85.8765 37.5482 85.8765 36.6162C85.8765 35.6842 85.121 34.9287 84.189 34.9287C83.257 34.9287 82.5015 35.6842 82.5015 36.6162C82.5015 37.5482 83.257 38.3037 84.189 38.3037Z" fill="white"/>
<path d="M23.1904 56.2938C21.1352 56.2938 19.4691 57.9599 19.4691 60.015C19.4691 62.0702 21.1352 63.7363 23.1904 63.7363C25.2456 63.7363 26.9116 62.0702 26.9116 60.015C26.9116 57.9599 25.2456 56.2938 23.1904 56.2938Z" fill="white"/>
<path d="M36.0488 75.4611C34.9256 75.4611 34.015 76.3716 34.015 77.4948C34.015 78.618 34.9256 79.5285 36.0488 79.5285C37.172 79.5285 38.0825 78.618 38.0825 77.4948C38.0825 76.3716 37.172 75.4611 36.0488 75.4611Z" fill="white"/>
<path d="M29.7175 40.2246C30.224 40.2246 30.6346 39.814 30.6346 39.3074C30.6346 38.8009 30.224 38.3903 29.7175 38.3903C29.2109 38.3903 28.8003 38.8009 28.8003 39.3074C28.8003 39.814 29.2109 40.2246 29.7175 40.2246Z" fill="white"/>
<path d="M111.53 67.6576C112.036 67.6576 112.447 67.247 112.447 66.7405C112.447 66.2339 112.036 65.8233 111.53 65.8233C111.023 65.8233 110.613 66.2339 110.613 66.7405C110.613 67.247 111.023 67.6576 111.53 67.6576Z" fill="white"/>
<path d="M101.584 19.9166C102.139 19.9166 102.589 19.4664 102.589 18.9112C102.589 18.3559 102.139 17.9058 101.584 17.9058C101.029 17.9058 100.579 18.3559 100.579 18.9112C100.579 19.4664 101.029 19.9166 101.584 19.9166Z" fill="white"/>
<path d="M153.729 15.8846C154.699 15.8846 155.485 15.0987 155.485 14.1293C155.485 13.1598 154.699 12.3739 153.729 12.3739C152.76 12.3739 151.974 13.1598 151.974 14.1293C151.974 15.0987 152.76 15.8846 153.729 15.8846Z" fill="white"/>
<path d="M142.268 67.9904C143.237 67.9904 144.023 67.2045 144.023 66.2351C144.023 65.2656 143.237 64.4797 142.268 64.4797C141.298 64.4797 140.512 65.2656 140.512 66.2351C140.512 67.2045 141.298 67.9904 142.268 67.9904Z" fill="white"/>
<path d="M102.833 47.9748C104.078 47.9748 105.088 46.9651 105.088 45.7195C105.088 44.4739 104.078 43.4641 102.833 43.4641C101.587 43.4641 100.577 44.4739 100.577 45.7195C100.577 46.9651 101.587 47.9748 102.833 47.9748Z" fill="white"/>
<path d="M145.186 58.9901C149.383 58.9901 152.786 55.5879 152.786 51.391C152.786 47.1942 149.383 43.7919 145.186 43.7919C140.99 43.7919 137.587 47.1942 137.587 51.391C137.587 55.5879 140.99 58.9901 145.186 58.9901Z" fill="white"/>
<path d="M96.3493 36.6163C99.9274 36.6163 102.828 33.7157 102.828 30.1376C102.828 26.5595 99.9274 23.6589 96.3493 23.6589C92.7712 23.6589 89.8706 26.5595 89.8706 30.1376C89.8706 33.7157 92.7712 36.6163 96.3493 36.6163Z" fill="white"/>
<path d="M130.246 57.8444C143.489 57.8444 154.225 47.1088 154.225 33.8658C154.225 20.6228 143.489 9.88721 130.246 9.88721C117.003 9.88721 106.267 20.6228 106.267 33.8658C106.267 47.1088 117.003 57.8444 130.246 57.8444Z" fill="white"/>
<path d="M133.39 18.5035L132.637 39.4052H127.663L126.91 18.5035H133.39ZM133.348 43.0839V49.229H126.994V43.0839H133.348Z" fill="#F5B523"/>
<path fill-rule="evenodd" clip-rule="evenodd" d="M310.397 12.2661C307.96 12.2509 305.548 12.7067 303.3 13.6079L302.756 16.9584C300.687 18.0635 298.891 19.6113 297.488 21.4927L294.087 21.5309C292.865 23.6249 292.046 25.9408 291.7 28.3453L294.336 30.4898C294.261 32.8341 294.702 35.1671 295.627 37.3222L293.957 40.2808C295.157 42.3929 296.765 44.25 298.667 45.7534L301.847 44.5473C303.84 45.7865 306.078 46.5717 308.407 46.8454L310.137 49.7658C312.559 49.7839 314.97 49.328 317.233 48.424L317.778 45.0735C319.846 43.9685 321.642 42.4206 323.046 40.5392L326.431 40.5039C327.668 38.4071 328.472 36.094 328.818 33.6895L326.197 31.5422C326.272 29.1979 325.831 26.8649 324.905 24.7098L326.561 21.754C325.361 19.6419 323.768 17.782 321.851 16.2814L318.687 17.4846C316.693 16.2454 314.456 15.4602 312.127 15.1866L310.397 12.2661ZM308.918 23.8826C312.845 23.1401 316.649 25.7315 317.393 29.6685C318.138 33.6056 315.543 37.4068 311.615 38.1494C307.673 38.8948 303.869 36.3034 303.125 32.3663C302.38 28.4293 304.975 24.6281 308.918 23.8826Z" fill="white"/>
<path fill-rule="evenodd" clip-rule="evenodd" d="M283.321 65.2565L285.683 66.6149L298.395 85.6218C298.708 82.3995 298.758 82.4334 300.321 80.1959C303.558 75.538 303.408 69.8915 298.183 64.9171C293.195 60.1794 282.908 56.5507 271.558 57.079C282.145 57.5909 287.771 63.5949 283.321 65.2565Z" fill="url(#paint11_linear)"/>
<path fill-rule="evenodd" clip-rule="evenodd" d="M265.05 17.3973C268.618 15.0842 272.415 20.7332 268.401 23.9047L265.05 17.3973Z" fill="#F5B523"/>
<path fill-rule="evenodd" clip-rule="evenodd" d="M263.633 40.9829C264.021 45.3493 266.239 50.7129 268.628 54.5089C271.42 58.9077 278.23 60.7587 276.105 63.2238C273.871 65.8265 266.316 62.0184 264.424 60.043C261.91 57.4175 261.243 51.8707 259.971 47.0102L263.633 40.9829Z" fill="#E79002"/>
<path fill-rule="evenodd" clip-rule="evenodd" d="M269.026 70.9925C266.688 79.0596 262.163 80.8244 257.6 84.3698C248.975 91.0646 227.851 88.1373 227.051 75.3075C227.613 81.2221 236.075 84.6251 237.388 70.8879L269.026 70.9925Z" fill="#F5B523"/>
<path d="M241.582 94.916C243.391 95.6742 245.711 94.2541 246.763 91.744C247.815 89.234 247.201 86.5846 245.392 85.8264C243.583 85.0682 241.263 86.4883 240.211 88.9984C239.159 91.5084 239.773 94.1578 241.582 94.916Z" fill="#F5B523"/>
<path d="M265.917 91.1988C269.203 92.2317 272.237 91.8905 272.694 90.4368C273.151 88.983 270.858 86.9672 267.572 85.9343C264.287 84.9014 261.253 85.2426 260.796 86.6963C260.339 88.1501 262.632 90.1659 265.917 91.1988Z" fill="#F5B523"/>
<path fill-rule="evenodd" clip-rule="evenodd" d="M263.86 40.5405C263.923 53.1523 275.098 79.712 265.273 87.2298C262.61 89.2665 258.76 88.6429 256.673 87.0894C255.535 86.236 253.923 85.5263 252.511 85.7339C250.073 86.0921 249.16 87.2328 247.46 88.0215C243.573 89.8355 239.323 88.7295 237.585 84.8018C235.41 79.9205 237.635 57.6193 238.248 48.202C250.173 27.6837 258.448 26.5435 263.86 40.5405Z" fill="#F5B523"/>
<path fill-rule="evenodd" clip-rule="evenodd" d="M263.86 40.5405C263.885 45.0914 265.348 51.4582 266.761 58.0912C267.261 60.4522 266.785 61.2978 265.71 61.0653C261.46 60.141 247.748 42.1699 248.235 34.6449C260.173 14.1266 258.448 26.5435 263.86 40.5405Z" fill="url(#paint12_linear)"/>
<path fill-rule="evenodd" clip-rule="evenodd" d="M237.585 84.8018C235.998 81.2559 248.148 80.9095 257.86 79.9919C261.523 79.6463 269.123 71.0669 269.261 74.0669C269.548 79.8113 268.648 84.6455 265.273 87.2298C262.61 89.2665 258.76 88.6429 256.673 87.0894C255.535 86.236 253.923 85.5263 252.511 85.7339C250.073 86.0922 249.16 87.2328 247.46 88.0215C243.573 89.8355 239.323 88.7295 237.585 84.8018Z" fill="url(#paint13_linear)"/>
<path fill-rule="evenodd" clip-rule="evenodd" d="M252.511 85.7339C250.073 86.0922 248.148 80.9095 257.86 79.9919C261.523 79.6463 269.123 71.0669 269.261 74.0669C269.548 79.8113 268.648 84.6455 265.273 87.2298C262.61 89.2665 258.76 88.6429 256.673 87.0894C255.535 86.236 253.923 85.5263 252.511 85.7339Z" fill="url(#paint14_linear)"/>
<path fill-rule="evenodd" clip-rule="evenodd" d="M248.235 34.6449C251.86 46.3363 263.423 44.9189 265.91 43.9258C268.923 42.7239 274.698 38.2224 271.223 32.317C269.798 29.8835 270.873 26.5051 269.76 23.7449C265.573 13.2345 257.46 13.8931 252.873 14.702C251.198 14.998 245.735 16.3913 243.998 20.077C240.823 26.7808 238.26 39.9355 238.248 48.202L248.235 34.6449Z" fill="#F5B523"/>
<path fill-rule="evenodd" clip-rule="evenodd" d="M248.235 34.6449C249.11 37.4709 247.56 21.9616 249.06 20.3845C250.123 19.2686 245.735 16.3912 243.998 20.077C242.11 24.0574 240.447 30.312 239.397 36.4672C238.685 40.6787 238.248 44.8437 238.248 48.202L248.235 34.6449Z" fill="url(#paint15_linear)"/>
<path d="M252.038 35.8597C252.34 36.0106 252.664 35.9727 252.763 35.7753C252.862 35.5778 252.697 35.2955 252.396 35.1447C252.094 34.9939 251.769 35.0316 251.671 35.2291C251.572 35.4265 251.737 35.7089 252.038 35.8597Z" fill="#16164F"/>
<path d="M271.821 35.4308C271.609 35.5964 271.349 35.6179 271.24 35.4789C271.132 35.3398 271.216 35.0929 271.429 34.9274C271.641 34.7618 271.901 34.7402 272.009 34.8792C272.118 35.0183 272.033 35.2653 271.821 35.4308Z" fill="#16164F"/>
<path d="M253.05 38.6497C253.352 38.8005 253.677 38.7627 253.775 38.5652C253.874 38.3678 253.71 38.0855 253.408 37.9347C253.106 37.7839 252.782 37.8216 252.683 38.0191C252.584 38.2165 252.749 38.4989 253.05 38.6497Z" fill="#16164F"/>
<path d="M271.471 37.7734C271.258 37.939 270.998 37.9605 270.89 37.8214C270.782 37.6824 270.866 37.4355 271.078 37.27C271.291 37.1044 271.551 37.0828 271.659 37.2218C271.768 37.3608 271.683 37.6078 271.471 37.7734Z" fill="#16164F"/>
<path d="M255.901 38.0435C256.202 38.1943 256.527 38.1565 256.625 37.959C256.724 37.7616 256.56 37.4793 256.258 37.3285C255.956 37.1777 255.632 37.2154 255.533 37.4129C255.434 37.6103 255.599 37.8927 255.901 38.0435Z" fill="#16164F"/>
<path d="M269.146 37.7483C268.934 37.9139 268.674 37.9354 268.565 37.7964C268.457 37.6573 268.541 37.4105 268.754 37.2449C268.966 37.0793 269.226 37.0577 269.335 37.1967C269.443 37.3358 269.359 37.5828 269.146 37.7483Z" fill="#16164F"/>
<path fill-rule="evenodd" clip-rule="evenodd" d="M264.315 34.8459C263.178 34.9106 261.855 35.4324 261.902 36.2556C261.925 36.6704 262.428 37.1672 262.888 37.6233C263.337 38.0726 263.744 38.4847 264.308 38.4527C265.445 38.388 266.848 36.9744 266.801 36.151C266.754 35.3278 265.452 34.7812 264.315 34.8459Z" fill="#16164F"/>
<path fill-rule="evenodd" clip-rule="evenodd" d="M247.268 65.9372C247.63 64.3932 247.931 60.2837 248.256 56.1887C248.668 51.1618 257.643 61.8083 259.118 63.3016C261.08 65.3036 252.33 74.089 247.268 65.9372Z" fill="url(#paint16_linear)"/>
<path fill-rule="evenodd" clip-rule="evenodd" d="M260.318 63.2673C257.131 65.9833 247.193 56.846 247.531 52.6017C247.918 47.7346 249.118 46.1502 249.718 45.9445C251.518 45.3241 258.068 57.0581 259.393 58.6766C261.418 61.1338 260.756 62.8958 260.318 63.2673Z" fill="url(#paint17_linear)"/>
<path fill-rule="evenodd" clip-rule="evenodd" d="M229.805 83.0038C233.245 83.8038 234.901 83.4665 235.286 84.579C235.906 86.379 227.698 92.4915 227.813 94.579C227.958 97.204 231.73 97.004 233.188 96.079C237.25 93.5165 245.659 85.0542 253.291 85.2792C251.971 84.7167 250.629 84.2164 249.247 83.7914C243.751 82.0914 237.63 81.5163 229.805 83.0038Z" fill="#4E54EF"/>
<path fill-rule="evenodd" clip-rule="evenodd" d="M234.558 84.829C241.67 90.6243 251.683 91.9352 261.92 90.953C275.22 89.675 283.933 94.0648 289.358 92.0042C297.995 88.7138 300.008 74.8071 292.433 68.5683C285.495 62.8608 268.796 64.8064 251.821 67.9037C245.508 69.0552 239.87 73.5468 235.433 72.704L234.558 84.829Z" fill="url(#paint18_linear)"/>
<path fill-rule="evenodd" clip-rule="evenodd" d="M243.48 87.5037C246.92 88.3037 248.576 87.9664 248.961 89.0789C249.581 90.8789 246.158 98.4914 246.273 100.579C246.418 103.204 250.189 103.004 251.647 102.092C255.709 99.5166 258.208 88.204 265.839 88.429C264.519 87.8665 263.177 87.3662 261.795 86.9412C256.299 85.2412 251.305 86.0162 243.48 87.5037Z" fill="#5A60F3"/>
<path fill-rule="evenodd" clip-rule="evenodd" d="M248.308 64.9266L254.97 71.6933L288.033 67.0937L287.02 65.3501L280.658 61.6827L248.308 64.9266Z" fill="white"/>
<path d="M260.486 67.2585C261.058 66.1551 260.378 64.6686 258.968 63.9382C257.558 63.2077 255.952 63.5101 255.38 64.6134C254.809 65.7168 255.488 67.2033 256.898 67.9338C258.308 68.6642 259.914 68.3619 260.486 67.2585Z" fill="#B4B4DA"/>
<path fill-rule="evenodd" clip-rule="evenodd" d="M275.52 60.6898C276.695 61.6697 276.808 62.3458 276.058 63.2238C274.695 64.7984 270.945 64.2022 269.02 62.9268L275.52 60.6898Z" fill="#E79002"/>
<path fill-rule="evenodd" clip-rule="evenodd" d="M247.268 65.9373C248.068 62.4979 247.731 60.8419 248.843 60.4569C250.643 59.8364 256.131 65.7594 258.218 65.6443C260.843 65.4999 260.643 61.728 259.718 60.27C257.156 56.208 249.318 50.0834 249.543 42.4519C248.981 43.7716 248.48 45.1139 248.055 46.4958C246.355 51.9918 245.78 58.1129 247.268 65.9373Z" fill="#F5B523"/>
<path d="M270.052 29.8816C270.052 30.4684 269.576 30.9443 268.989 30.9443C268.402 30.9443 267.927 30.4684 267.927 29.8816C267.927 29.2948 268.402 28.8192 268.989 28.8192C269.576 28.8192 270.052 29.2948 270.052 29.8816Z" fill="#16164F"/>
<path d="M257.114 30.1565C257.114 30.7433 256.638 31.2192 256.052 31.2192C255.465 31.2192 254.989 30.7433 254.989 30.1565C254.989 29.5697 255.465 29.0941 256.052 29.0941C256.638 29.0941 257.114 29.5697 257.114 30.1565Z" fill="#16164F"/>
<path d="M250.064 23.6843C248.878 25.6375 246.32 26.2513 244.35 25.0555C242.38 23.8597 241.743 21.307 242.929 19.3538C244.114 17.4006 246.673 16.7867 248.643 17.9826C250.613 19.1784 251.249 21.7311 250.064 23.6843Z" fill="#F5B523"/>
<path fill-rule="evenodd" clip-rule="evenodd" d="M227.866 58.5335C224.298 56.2205 220.501 61.8694 224.515 65.0409L227.866 58.5335Z" fill="#5A60F3"/>
<path fill-rule="evenodd" clip-rule="evenodd" d="M244.678 75.7812C241.053 87.4726 229.49 86.0552 227.003 85.0621C223.99 83.8602 218.215 79.3587 221.69 73.4533C223.115 71.0198 222.04 67.6414 223.153 64.8812C227.34 54.3708 235.453 55.0294 240.04 55.8383C241.715 56.1343 247.178 57.5275 248.915 61.2133C252.09 67.9171 253.541 75.6968 253.553 83.9633L244.678 75.7812Z" fill="#5A60F3"/>
<path fill-rule="evenodd" clip-rule="evenodd" d="M244.678 75.7811C243.803 78.6071 245.353 63.0979 243.853 61.5208C242.791 60.4049 247.178 57.5275 248.916 61.2133C250.803 65.1936 252.466 71.4483 253.516 77.6035C254.228 81.815 244.678 75.7811 244.678 75.7811Z" fill="url(#paint19_linear)"/>
<path d="M240.878 76.9961C240.576 77.1469 240.252 77.1091 240.153 76.9116C240.054 76.7142 240.219 76.4319 240.52 76.2811C240.822 76.1303 241.147 76.1681 241.245 76.3655C241.344 76.5629 241.179 76.8453 240.878 76.9961Z" fill="#16164F"/>
<path d="M221.095 76.5671C221.307 76.7327 221.567 76.7542 221.675 76.6152C221.784 76.4761 221.699 76.2292 221.487 76.0637C221.275 75.8981 221.014 75.8765 220.906 76.0155C220.798 76.1546 220.882 76.4016 221.095 76.5671Z" fill="#16164F"/>
<path d="M239.865 79.7861C239.563 79.9369 239.239 79.8991 239.14 79.7016C239.042 79.5042 239.206 79.2219 239.508 79.0711C239.809 78.9203 240.134 78.958 240.233 79.1555C240.331 79.3529 240.167 79.6353 239.865 79.7861Z" fill="#16164F"/>
<path d="M221.445 78.9097C221.657 79.0752 221.917 79.0967 222.025 78.9577C222.134 78.8187 222.05 78.5718 221.837 78.4062C221.625 78.2406 221.365 78.219 221.256 78.3581C221.148 78.4971 221.232 78.7441 221.445 78.9097Z" fill="#16164F"/>
<path d="M237.015 79.1799C236.713 79.3307 236.389 79.2928 236.29 79.0954C236.191 78.8979 236.356 78.6157 236.658 78.4648C236.959 78.314 237.284 78.3518 237.383 78.5492C237.481 78.7467 237.317 79.029 237.015 79.1799Z" fill="#16164F"/>
<path d="M223.782 78.8846C223.994 79.0502 224.254 79.0717 224.363 78.9327C224.471 78.7936 224.387 78.5467 224.174 78.3812C223.962 78.2156 223.702 78.194 223.594 78.333C223.485 78.4721 223.57 78.7191 223.782 78.8846Z" fill="#16164F"/>
<path fill-rule="evenodd" clip-rule="evenodd" d="M228.601 75.9822C229.738 76.0469 231.061 76.5687 231.014 77.3919C230.991 77.8067 230.488 78.3035 230.028 78.7596C229.579 79.2089 229.172 79.621 228.608 79.5889C227.471 79.5243 226.068 78.1107 226.115 77.2874C226.162 76.4642 227.465 75.9176 228.601 75.9822Z" fill="#16164F"/>
<path d="M222.865 71.0179C222.865 71.6047 223.34 72.0806 223.927 72.0806C224.514 72.0806 224.99 71.6047 224.99 71.0179C224.99 70.4311 224.514 69.9555 223.927 69.9555C223.34 69.9555 222.865 70.4311 222.865 71.0179Z" fill="#16164F"/>
<path d="M235.802 71.2928C235.802 71.8796 236.278 72.3555 236.865 72.3555C237.451 72.3555 237.927 71.8796 237.927 71.2928C237.927 70.706 237.451 70.2304 236.865 70.2304C236.278 70.2304 235.802 70.706 235.802 71.2928Z" fill="#16164F"/>
<path d="M242.852 64.8209C244.038 66.774 246.596 67.3879 248.566 66.1921C250.536 64.9962 251.173 62.4435 249.987 60.4904C248.802 58.5372 246.243 57.9233 244.273 59.1192C242.303 60.315 241.667 62.8677 242.852 64.8209Z" fill="#5A60F3"/>
<path fill-rule="evenodd" clip-rule="evenodd" d="M284.143 75.8834C288.404 73.4231 294.165 75.4174 297.003 80.3325C299.841 85.2475 298.003 91.6289 294.426 93.6941C290.164 96.1545 284.403 94.1602 281.566 89.2452C278.728 84.3301 279.881 78.3438 284.143 75.8834Z" fill="#5A60F3"/>
<path d="M291.674 100.579C293.635 100.622 295.273 98.4511 295.333 95.7302C295.393 93.0093 293.852 90.7686 291.891 90.7254C289.93 90.6822 288.292 92.8529 288.232 95.5738C288.172 98.2947 289.713 100.535 291.674 100.579Z" fill="#5A60F3"/>
<path fill-rule="evenodd" clip-rule="evenodd" d="M268.489 70.9906L281.101 69.1921C282.939 70.4641 283.814 71.7364 284.776 73.6563L271.564 76.0206C271.364 74.4423 270.726 72.1236 268.489 70.9906Z" fill="white"/>
<path fill-rule="evenodd" clip-rule="evenodd" d="M258.852 47.3668L289.952 42.2398L290.702 42.9907L287.877 60.0612L257.602 65.9277L256.789 65.1863L258.852 47.3668Z" fill="white"/>
<path fill-rule="evenodd" clip-rule="evenodd" d="M259.603 48.1177L290.703 42.9907L288.628 60.812L257.54 65.9372L259.603 48.1177Z" fill="#D8D8EC"/>
<path fill-rule="evenodd" clip-rule="evenodd" d="M271.053 59.1138L278.415 57.9008L280.603 70.7222L273.24 71.9333L271.053 59.1138Z" fill="#B4B4DA"/>
<path fill-rule="evenodd" clip-rule="evenodd" d="M214.629 36.5587C212.912 35.6332 211.038 35.0504 209.111 34.8433L207.469 37.0061C205.593 37.0105 203.743 37.43 202.046 38.2325L199.629 36.9832C197.98 38.0041 196.532 39.3329 195.385 40.9017L196.442 43.4059C195.509 45.034 194.945 46.8478 194.79 48.7178L192.5 50.1811C192.555 52.1238 192.994 54.0392 193.774 55.8152L196.473 56.1566C197.416 57.7802 198.702 59.1746 200.245 60.242L200.371 62.9546C202.075 63.8764 203.95 64.4593 205.888 64.6701L207.531 62.5073C209.407 62.5028 211.256 62.0834 212.954 61.2808L215.359 62.5264C217.02 61.5092 218.456 60.1767 219.603 58.6079L218.557 56.1073C219.49 54.4792 220.054 52.6654 220.209 50.7954L222.488 49.3285C222.433 47.3859 222.005 45.474 221.214 43.6944L218.527 43.3568C217.584 41.7332 216.298 40.3387 214.755 39.2713L214.629 36.5587ZM209.224 44.2107C212.277 45.16 213.992 48.4184 213.04 51.4793C212.089 54.5402 208.829 56.2518 205.775 55.3025C202.71 54.3495 200.996 51.0912 201.947 48.0303C202.899 44.9694 206.159 43.2577 209.224 44.2107Z" fill="white"/>
<path fill-rule="evenodd" clip-rule="evenodd" d="M222.637 19.0305C222.151 19.064 221.677 19.191 221.242 19.4044L221.184 20.0808C220.788 20.3321 220.453 20.6677 220.201 21.064L219.523 21.1225C219.311 21.5584 219.182 22.0325 219.149 22.5173L219.707 22.9055C219.727 23.3742 219.85 23.8329 220.067 24.2488L219.778 24.8639C220.049 25.2671 220.397 25.6134 220.799 25.8848L221.415 25.5966C221.831 25.814 222.289 25.9371 222.758 25.9568L223.147 26.5133C223.63 26.4806 224.104 26.3536 224.542 26.1394L224.6 25.4631C224.996 25.2117 225.331 24.8761 225.583 24.4799L226.258 24.4222C226.473 23.9855 226.599 23.5121 226.632 23.0274L226.077 22.6384C226.057 22.1697 225.934 21.711 225.717 21.2951L226.003 20.6808C225.732 20.2775 225.387 19.9304 224.982 19.6599L224.369 19.9472C223.953 19.7299 223.495 19.6068 223.026 19.5871L222.637 19.0305ZM222.516 21.3695C223.288 21.1626 224.086 21.6224 224.293 22.3965C224.501 23.1705 224.04 23.9675 223.268 24.1744C222.493 24.3821 221.695 23.9222 221.488 23.1482C221.28 22.3741 221.741 21.5772 222.516 21.3695Z" fill="white"/>
<path fill-rule="evenodd" clip-rule="evenodd" d="M325.741 64.2875C324.865 63.8591 323.917 63.6051 322.95 63.5397L322.173 64.6528C321.235 64.6922 320.319 64.9385 319.487 65.3731L318.255 64.7968C317.451 65.3395 316.754 66.0321 316.212 66.8386L316.79 68.0688C316.356 68.9006 316.11 69.818 316.07 70.7553L314.955 71.5318C315.021 72.5013 315.278 73.4496 315.703 74.3214L317.058 74.4384C317.562 75.2309 318.232 75.9021 319.024 76.4048L319.14 77.7576C320.01 78.1843 320.958 78.4384 321.931 78.5053L322.708 77.3922C323.646 77.3528 324.562 77.1066 325.394 76.672L326.62 77.2466C327.43 76.7055 328.121 76.0113 328.663 75.2048L328.091 73.9762C328.525 73.1443 328.77 72.2269 328.811 71.2896L329.92 70.5116C329.854 69.5421 329.603 68.5954 329.172 67.722L327.823 67.6066C327.319 66.8141 326.649 66.1429 325.857 65.6402L325.741 64.2875ZM323.192 68.2175C324.736 68.6313 325.658 70.2253 325.243 71.7734C324.828 73.3215 323.233 74.2412 321.689 73.8274C320.139 73.412 319.217 71.8181 319.632 70.27C320.047 68.7219 321.642 67.8022 323.192 68.2175Z" fill="white"/>
<defs>
<filter id="filter0_d" x="426.933" y="26.7643" width="75.4999" height="52.9999" filterUnits="userSpaceOnUse" color-interpolation-filters="sRGB">
<feFlood flood-opacity="0" result="BackgroundImageFix"/>
<feColorMatrix in="SourceAlpha" type="matrix" values="0 0 0 0 0 0 0 0 0 0 0 0 0 0 0 0 0 0 127 0"/>
<feOffset dx="-3"/>
<feGaussianBlur stdDeviation="2"/>
<feColorMatrix type="matrix" values="0 0 0 0 0.262745 0 0 0 0 0.290196 0 0 0 0 0.937255 0 0 0 0.2 0"/>
<feBlend mode="normal" in2="BackgroundImageFix" result="effect1_dropShadow"/>
<feBlend mode="normal" in="SourceGraphic" in2="effect1_dropShadow" result="shape"/>
</filter>
<linearGradient id="paint0_linear" x1="384.859" y1="92.3079" x2="417.191" y2="89.3108" gradientUnits="userSpaceOnUse">
<stop stop-color="#484FF2"/>
<stop offset="1" stop-color="#0008C8"/>
</linearGradient>
<linearGradient id="paint1_linear" x1="395.291" y1="47.4328" x2="405.981" y2="58.808" gradientUnits="userSpaceOnUse">
<stop stop-color="#1119E4"/>
<stop offset="1" stop-color="#1119E4" stop-opacity="0"/>
</linearGradient>
<linearGradient id="paint2_linear" x1="422.103" y1="94.8079" x2="431.228" y2="111.558" gradientUnits="userSpaceOnUse">
<stop stop-color="#5A60F3"/>
<stop offset="0.21" stop-color="#444BEF"/>
<stop offset="1" stop-color="#444BEF"/>
</linearGradient>
<linearGradient id="paint3_linear" x1="403.803" y1="90.8079" x2="383.223" y2="111.683" gradientUnits="userSpaceOnUse">
<stop stop-color="#5A60F3"/>
<stop offset="0.28" stop-color="#444BEF"/>
<stop offset="1" stop-color="#0008D7"/>
</linearGradient>
<linearGradient id="paint4_linear" x1="417.479" y1="37.1828" x2="421.854" y2="25.9328" gradientUnits="userSpaceOnUse">
<stop stop-color="#5A60F3"/>
<stop offset="1" stop-color="#0008D7"/>
</linearGradient>
<linearGradient id="paint5_linear" x1="105.241" y1="80.8054" x2="77.7409" y2="79.6804" gradientUnits="userSpaceOnUse">
<stop stop-color="#F5B523"/>
<stop offset="1" stop-color="#D38300"/>
</linearGradient>
<linearGradient id="paint6_linear" x1="64.5023" y1="57.3074" x2="60.3773" y2="54.3073" gradientUnits="userSpaceOnUse">
<stop stop-color="#F5B523"/>
<stop offset="1" stop-color="#8E5901"/>
</linearGradient>
<linearGradient id="paint7_linear" x1="63.0504" y1="73.1643" x2="72.3736" y2="95.3072" gradientUnits="userSpaceOnUse">
<stop stop-color="#F5B523"/>
<stop offset="0.16" stop-color="#FDA71A"/>
<stop offset="0.95" stop-color="#E79002"/>
<stop offset="1" stop-color="#444BEF"/>
</linearGradient>
<linearGradient id="paint8_linear" x1="78.3005" y1="42.8074" x2="68.2532" y2="52.855" gradientUnits="userSpaceOnUse">
<stop stop-color="#F5B523"/>
<stop offset="1" stop-color="#F5B523" stop-opacity="0"/>
</linearGradient>
<radialGradient id="paint9_radial" cx="0" cy="0" r="1" gradientUnits="userSpaceOnUse" gradientTransform="translate(67.2222 47.6825) rotate(-58.4912) scale(4.35575)">
<stop stop-color="#F5B523" stop-opacity="0"/>
<stop offset="0.65" stop-color="#F5B523" stop-opacity="0.141176"/>
<stop offset="0.84" stop-color="#F5B523" stop-opacity="0.533333"/>
<stop offset="1" stop-color="#F5B523"/>
</radialGradient>
<linearGradient id="paint10_linear" x1="56.7502" y1="31.2299" x2="52.3753" y2="19.9799" gradientUnits="userSpaceOnUse">
<stop stop-color="#F5B523"/>
<stop offset="1" stop-color="#CD7F00"/>
</linearGradient>
<linearGradient id="paint11_linear" x1="285.795" y1="62.704" x2="282.795" y2="58.329" gradientUnits="userSpaceOnUse">
<stop stop-color="#5A60F3"/>
<stop offset="1" stop-color="#0008D7"/>
</linearGradient>
<linearGradient id="paint12_linear" x1="269.311" y1="36.827" x2="258.62" y2="48.2022" gradientUnits="userSpaceOnUse">
<stop stop-color="#CD8E00"/>
<stop offset="1" stop-color="#CD8E00" stop-opacity="0"/>
</linearGradient>
<linearGradient id="paint13_linear" x1="242.498" y1="84.202" x2="233.373" y2="100.952" gradientUnits="userSpaceOnUse">
<stop stop-color="#FDA81E"/>
<stop offset="0.21" stop-color="#E79002"/>
<stop offset="1" stop-color="#E79002"/>
</linearGradient>
<linearGradient id="paint14_linear" x1="260.798" y1="80.202" x2="281.379" y2="101.077" gradientUnits="userSpaceOnUse">
<stop stop-color="#FDA81E"/>
<stop offset="0.27" stop-color="#E79002"/>
<stop offset="1" stop-color="#E79002"/>
</linearGradient>
<linearGradient id="paint15_linear" x1="247.123" y1="26.577" x2="242.748" y2="15.327" gradientUnits="userSpaceOnUse">
<stop stop-color="#F5B523"/>
<stop offset="1" stop-color="#E79002"/>
</linearGradient>
<linearGradient id="paint16_linear" x1="248.305" y1="62.0965" x2="249.359" y2="68.2831" gradientUnits="userSpaceOnUse">
<stop stop-color="#E79002"/>
<stop offset="1" stop-color="#E79002" stop-opacity="0"/>
</linearGradient>
<linearGradient id="paint17_linear" x1="256.931" y1="59.204" x2="260.344" y2="54.8504" gradientUnits="userSpaceOnUse">
<stop stop-color="#E79002"/>
<stop offset="1" stop-color="#E79002" stop-opacity="0"/>
</linearGradient>
<linearGradient id="paint18_linear" x1="243.42" y1="83.454" x2="211.795" y2="69.954" gradientUnits="userSpaceOnUse">
<stop stop-color="#5A60F3"/>
<stop offset="1" stop-color="#0008D7"/>
</linearGradient>
<linearGradient id="paint19_linear" x1="245.791" y1="67.7133" x2="250.166" y2="56.4633" gradientUnits="userSpaceOnUse">
<stop stop-color="#5A60F3"/>
<stop offset="1" stop-color="#0008D7"/>
</linearGradient>
</defs>
</svg>
