<svg width="34" height="34" viewBox="0 0 34 34" fill="none" xmlns="http://www.w3.org/2000/svg">
<circle cx="17" cy="17" r="17" fill="#5A60F3"/>
<path d="M11.76 10.29L9.96 8.5L8.55 9.91L10.34 11.7L11.76 10.29ZM9 15.95H6V17.95H9V15.95ZM18 6H16V8.95H18V6ZM25.45 9.91L24.04 8.5L22.25 10.29L23.66 11.7L25.45 9.91ZM22.24 23.61L24.03 25.41L25.44 24L23.64 22.21L22.24 23.61ZM25 15.95V17.95H28V15.95H25ZM17 10.95C13.69 10.95 11 13.64 11 16.95C11 20.26 13.69 22.95 17 22.95C20.31 22.95 23 20.26 23 16.95C23 13.64 20.31 10.95 17 10.95ZM16 27.9H18V24.95H16V27.9ZM8.55 23.99L9.96 25.4L11.75 23.6L10.34 22.19L8.55 23.99Z" fill="#F8F8F8"/>
</svg>
