<svg width="34" height="34" viewBox="0 0 34 34" fill="none" xmlns="http://www.w3.org/2000/svg">
<path fill-rule="evenodd" clip-rule="evenodd" d="M17 34C7.61116 34 0 26.3888 0 17C0 7.61116 7.61116 0 17 0C26.3888 0 34 7.61116 34 17C34 26.3888 26.3888 34 17 34ZM24.04 8.5L22.24 10.29L23.66 11.7L25.45 9.91L24.04 8.5ZM28 15.95H25V17.95H28V15.95ZM18 8.95V6H16V8.95H18ZM9.96 8.5L8.55 9.91L10.34 11.7L11.75 10.29L9.96 8.5ZM9.97 25.41L11.76 23.61L10.36 22.21L8.56 24L9.97 25.41ZM6 17.95H9V15.95H6V17.95ZM23 16.95C23 13.64 20.31 10.95 17 10.95C13.69 10.95 11 13.64 11 16.95C11 20.26 13.69 22.95 17 22.95C20.31 22.95 23 20.26 23 16.95ZM16 24.95V27.9H18V24.95H16ZM24.04 25.4L25.45 23.99L23.66 22.19L22.25 23.6L24.04 25.4Z" fill="#F8F8F8"/>
</svg>
