<svg width="36" height="36" viewBox="0 0 36 36" fill="none" xmlns="http://www.w3.org/2000/svg">
<path d="M2.66219 0C1.19288 0 0 1.15162 0 2.57574V33.4243C0 34.8489 1.19288 36 2.66219 36H33.3378C34.8071 36 36 34.8489 36 33.4243V2.57574C36 1.15162 34.8071 0 33.3378 0H2.66219ZM8.22857 6.04344C10.0887 6.04344 11.2285 7.25426 11.2638 8.84966C11.2638 10.4099 10.0844 11.6559 8.18825 11.6559H8.15806C6.3333 11.6559 5.15302 10.4099 5.15302 8.84966C5.15302 7.25426 6.36857 6.04344 8.22857 6.04344ZM24.2622 13.5C27.8396 13.5 30.5143 15.8222 30.5143 20.8163V30.137H25.079V21.4376C25.079 19.2519 24.2936 17.7595 22.326 17.7595C20.8239 17.7595 19.9259 18.773 19.5328 19.7439C19.3892 20.0912 19.3613 20.5709 19.3613 21.0568V30.137H13.916C13.916 30.137 13.9873 15.4065 13.916 13.8808H19.3613V16.1759C20.0841 15.0681 21.379 13.5 24.2622 13.5ZM19.3613 16.1759C19.3486 16.1952 19.3333 16.2171 19.321 16.2361H19.3613V16.1759ZM5.47562 13.8808H10.9109V30.137H5.47562V13.8808Z" fill="#5A60F3"/>
</svg>
