<svg width="37" height="37" viewBox="0 0 37 37" fill="none" xmlns="http://www.w3.org/2000/svg">
<path d="M3.28255 0.661133C1.81324 0.661133 0.620361 1.81275 0.620361 3.23687V34.0854C0.620361 35.51 1.81324 36.6611 3.28255 36.6611H33.9582C35.4274 36.6611 36.6204 35.51 36.6204 34.0854V3.23687C36.6204 1.81275 35.4274 0.661133 33.9582 0.661133H3.28255ZM8.84893 6.70457C10.7091 6.70457 11.8489 7.91539 11.8842 9.5108C11.8842 11.0711 10.7048 12.317 8.80861 12.317H8.77842C6.95366 12.317 5.77339 11.0711 5.77339 9.5108C5.77339 7.91539 6.98893 6.70457 8.84893 6.70457ZM24.8826 14.1611C28.46 14.1611 31.1347 16.4833 31.1347 21.4774V30.7981H25.6994V22.0988C25.6994 19.913 24.914 18.4206 22.9464 18.4206C21.4443 18.4206 20.5462 19.4341 20.1531 20.405C20.0096 20.7524 19.9817 21.232 19.9817 21.7179V30.7981H14.5363C14.5363 30.7981 14.6077 16.0676 14.5363 14.542H19.9817V16.8371C20.7045 15.7293 21.9994 14.1611 24.8826 14.1611ZM19.9817 16.8371C19.969 16.8564 19.9536 16.8782 19.9414 16.8972H19.9817V16.8371ZM6.09598 14.542H11.5313V30.7981H6.09598V14.542Z" fill="#A1ABFF"/>
</svg>
