<svg width="36" height="36" viewBox="0 0 36 36" fill="none" xmlns="http://www.w3.org/2000/svg">
<path fill-rule="evenodd" clip-rule="evenodd" d="M30.875 0H5.3125C4.38542 0 3.67708 0.0625 3.1875 0.1875C1.0625 0.90625 0 2.55208 0 5.125V30.6875L0.125 32.625C0.8125 34.875 2.4375 36 5 36H31.0625C32.5417 36 33.625 35.6667 34.3125 35C35.4375 34.2812 36 32.9271 36 30.9375V5.0625C36 4.16667 35.9167 3.4375 35.75 2.875C34.9375 0.958333 33.3125 0 30.875 0ZM10 10H26C27.1 10 28 10.9 28 12V24C28 25.1 27.1 26 26 26H10C8.9 26 8 25.1 8 24L8.01 12C8.01 10.9 8.9 10 10 10ZM18 19L26 14V12L18 17L10 12V14L18 19Z" fill="#5A60F3"/>
</svg>
