<svg width="40" height="40" viewBox="0 0 40 40" fill="none" xmlns="http://www.w3.org/2000/svg">
<rect width="40" height="40" fill="#5A60F3"/>
<path fill-rule="evenodd" clip-rule="evenodd" d="M7.00361 8.32356C6.99716 8.23938 6.99935 8.15465 7.01018 8.07083L16.5374 17.5981C16.4234 17.8555 16.36 18.1403 16.36 18.44C16.36 19.5888 17.2912 20.52 18.44 20.52C19.5888 20.52 20.52 19.5888 20.52 18.44C20.52 17.2912 19.5888 16.36 18.44 16.36C18.1403 16.36 17.8555 16.4234 17.5981 16.5374L8.07085 7.01019C8.09425 7.00717 8.11772 7.00482 8.14123 7.00315C8.20177 6.99881 8.26285 6.99893 8.32398 7.00367C8.39631 7.00924 8.46824 7.02118 8.53885 7.0395L25.2993 12.3762C25.7645 12.4884 26.1223 12.8606 26.2161 13.3299L27.6161 20.3297L20.3297 27.6161L13.3299 26.2161C12.8606 26.1223 12.4884 25.7645 12.3761 25.2993L7.03947 8.53888C7.02112 8.46812 7.00917 8.39604 7.00361 8.32356ZM29.518 21.2562L21.2562 29.518L24.3782 32.64C24.8581 33.12 25.6364 33.12 26.1164 32.64L32.64 26.1164C33.12 25.6364 33.12 24.8582 32.64 24.3782L29.518 21.2562Z" fill="white"/>
</svg>
